<ttFont>
<head>
    <!-- Most of this table will be recalculated by the compiler -->
    <tableVersion value="1.0"/>
    <fontRevision value="1.05199"/>
    <checkSumAdjustment value="0x57b37ea0"/>
    <magicNumber value="0x5f0f3cf5"/>
    <flags value="00000000 00000011"/>
    <unitsPerEm value="1000"/>
    <created value="Sat Apr  9 14:31:12 2016"/>
    <modified value="Tue Jul 26 14:47:35 2016"/>
    <xMin value="-179"/>
    <yMin value="-333"/>
    <xMax value="1184"/>
    <yMax value="930"/>
    <macStyle value="00000000 00000000"/>
    <lowestRecPPEM value="7"/>
    <fontDirectionHint value="2"/>
    <indexToLocFormat value="0"/>
    <glyphDataFormat value="0"/>
  </head>
    <TTGlyph name=".notdef" xMin="50" yMin="0" xMax="450" yMax="660">
      <contour>
        <pt x="50" y="660" on="1"/>
        <pt x="450" y="660" on="1"/>
        <pt x="450" y="0" on="1"/>
        <pt x="50" y="0" on="1"/>
      </contour>
      <contour>
        <pt x="370" y="80" on="1"/>
        <pt x="370" y="580" on="1"/>
        <pt x="130" y="580" on="1"/>
        <pt x="130" y="80" on="1"/>
      </contour>
    </TTGlyph>
    <TTGlyph name="A" xMin="19" yMin="0" xMax="606" yMax="660">
      <contour>
        <pt x="470" y="207" on="1"/>
        <pt x="154" y="207" on="1"/>
        <pt x="72" y="0" on="1"/>
        <pt x="19" y="0" on="1"/>
        <pt x="283" y="660" on="1"/>
        <pt x="342" y="660" on="1"/>
        <pt x="606" y="0" on="1"/>
        <pt x="553" y="0" on="1"/>
      </contour>
      <contour>
        <pt x="452" y="253" on="1"/>
        <pt x="337" y="541" on="1"/>
        <pt x="313" y="611" on="1"/>
        <pt x="312" y="611" on="1"/>
        <pt x="288" y="543" on="1"/>
        <pt x="173" y="253" on="1"/>
      </contour>
    </TTGlyph>
    <TTGlyph name="A.swsh" xMin="5" yMin="-110" xMax="871" yMax="660">
      <contour>
        <pt x="735" y="207" on="1"/>
        <pt x="420" y="207" on="1"/>
        <pt x="350" y="32" on="1"/>
        <pt x="321" y="-42" on="0"/>
        <pt x="237" y="-110" on="0"/>
        <pt x="169" y="-110" on="1"/>
        <pt x="94" y="-110" on="0"/>
        <pt x="7" y="-41" on="0"/>
        <pt x="5" y="27" on="1"/>
        <pt x="42" y="53" on="1"/>
        <pt x="46" y="-13" on="0"/>
        <pt x="109" y="-66" on="0"/>
        <pt x="168" y="-66" on="1"/>
        <pt x="205" y="-66" on="0"/>
        <pt x="252" y="-43" on="0"/>
        <pt x="289" y="13" on="0"/>
        <pt x="311" y="67" on="1"/>
        <pt x="533" y="619" on="1"/>
        <pt x="349" y="619" on="1"/>
        <pt x="275" y="619" on="0"/>
        <pt x="196" y="555" on="0"/>
        <pt x="196" y="490" on="1"/>
        <pt x="196" y="439" on="0"/>
        <pt x="257" y="374" on="0"/>
        <pt x="309" y="364" on="1"/>
        <pt x="288" y="325" on="1"/>
        <pt x="225" y="336" on="0"/>
        <pt x="146" y="424" on="0"/>
        <pt x="146" y="491" on="1"/>
        <pt x="146" y="572" on="0"/>
        <pt x="247" y="660" on="0"/>
        <pt x="338" y="660" on="1"/>
        <pt x="608" y="660" on="1"/>
        <pt x="871" y="0" on="1"/>
        <pt x="818" y="0" on="1"/>
      </contour>
      <contour>
        <pt x="717" y="253" on="1"/>
        <pt x="602" y="541" on="1"/>
        <pt x="578" y="611" on="1"/>
        <pt x="577" y="611" on="1"/>
        <pt x="553" y="543" on="1"/>
        <pt x="438" y="253" on="1"/>
      </contour>
    </TTGlyph>
    <TTGlyph name="AE" xMin="-1" yMin="0" xMax="880" yMax="660">
      <contour>
        <pt x="880" y="46" on="1"/>
        <pt x="880" y="0" on="1"/>
        <pt x="445" y="0" on="1"/>
        <pt x="445" y="232" on="1"/>
        <pt x="196" y="232" on="1"/>
        <pt x="56" y="0" on="1"/>
        <pt x="-1" y="0" on="1"/>
        <pt x="401" y="660" on="1"/>
        <pt x="865" y="660" on="1"/>
        <pt x="865" y="614" on="1"/>
        <pt x="495" y="614" on="1"/>
        <pt x="495" y="358" on="1"/>
        <pt x="783" y="358" on="1"/>
        <pt x="783" y="312" on="1"/>
        <pt x="495" y="312" on="1"/>
        <pt x="495" y="46" on="1"/>
      </contour>
      <contour>
        <pt x="445" y="279" on="1"/>
        <pt x="445" y="614" on="1"/>
        <pt x="425" y="614" on="1"/>
        <pt x="224" y="279" on="1"/>
      </contour>
    </TTGlyph>
    <TTGlyph name="Aacute" xMin="19" yMin="0" xMax="606" yMax="897">
      <component glyphName="A" x="0" y="0" flags="0x0"/>
      <component glyphName="acutecomb.cap" x="313" y="0" flags="0x0"/>
    </TTGlyph>
    <TTGlyph name="Aacute.swsh" xMin="5" yMin="-110" xMax="871" yMax="897">
      <component glyphName="A.swsh" x="0" y="0" flags="0x0"/>
      <component glyphName="acutecomb.cap" x="578" y="0" flags="0x0"/>
    </TTGlyph>
    <TTGlyph name="Abreve" xMin="19" yMin="0" xMax="606" yMax="874">
      <component glyphName="A" x="0" y="0" flags="0x0"/>
      <component glyphName="breve" x="61" y="160" flags="0x4"/>
    </TTGlyph>
    <TTGlyph name="Abreve.swsh" xMin="5" yMin="-110" xMax="871" yMax="874">
      <component glyphName="A.swsh" x="0" y="0" flags="0x0"/>
      <component glyphName="breve" x="326" y="160" flags="0x4"/>
    </TTGlyph>
    <TTGlyph name="Acircumflex" xMin="19" yMin="0" xMax="606" yMax="892">
      <component glyphName="A" x="0" y="0" flags="0x0"/>
      <component glyphName="uni0302.cap" x="313" y="0" flags="0x0"/>
    </TTGlyph>
    <TTGlyph name="Acircumflex.swsh" xMin="5" yMin="-110" xMax="871" yMax="892">
      <component glyphName="A.swsh" x="0" y="0" flags="0x0"/>
      <component glyphName="uni0302.cap" x="578" y="0" flags="0x0"/>
    </TTGlyph>
    <TTGlyph name="Adieresis" xMin="19" yMin="0" xMax="606" yMax="831">
      <component glyphName="A" x="0" y="0" flags="0x0"/>
      <component glyphName="dieresis" x="49" y="160" flags="0x4"/>
    </TTGlyph>
    <TTGlyph name="Adieresis.swsh" xMin="5" yMin="-110" xMax="871" yMax="831">
      <component glyphName="A.swsh" x="0" y="0" flags="0x0"/>
      <component glyphName="dieresis" x="314" y="160" flags="0x4"/>
    </TTGlyph>
    <TTGlyph name="Adieresis.titl" xMin="19" yMin="0" xMax="606" yMax="662">
      <contour>
        <pt x="167" y="583" on="0"/>
        <pt x="145" y="605" on="0"/>
        <pt x="145" y="623" on="1"/>
        <pt x="145" y="640" on="0"/>
        <pt x="167" y="662" on="0"/>
        <pt x="184" y="662" on="1"/>
        <pt x="202" y="662" on="0"/>
        <pt x="224" y="640" on="0"/>
        <pt x="224" y="623" on="1"/>
        <pt x="224" y="605" on="0"/>
        <pt x="202" y="583" on="0"/>
        <pt x="184" y="583" on="1"/>
      </contour>
      <contour>
        <pt x="423" y="583" on="0"/>
        <pt x="401" y="605" on="0"/>
        <pt x="401" y="623" on="1"/>
        <pt x="401" y="640" on="0"/>
        <pt x="423" y="662" on="0"/>
        <pt x="441" y="662" on="1"/>
        <pt x="458" y="662" on="0"/>
        <pt x="480" y="640" on="0"/>
        <pt x="480" y="623" on="1"/>
        <pt x="480" y="605" on="0"/>
        <pt x="458" y="583" on="0"/>
        <pt x="441" y="583" on="1"/>
      </contour>
      <contour>
        <pt x="470" y="207" on="1"/>
        <pt x="154" y="207" on="1"/>
        <pt x="72" y="0" on="1"/>
        <pt x="19" y="0" on="1"/>
        <pt x="283" y="660" on="1"/>
        <pt x="342" y="660" on="1"/>
        <pt x="606" y="0" on="1"/>
        <pt x="553" y="0" on="1"/>
      </contour>
      <contour>
        <pt x="452" y="253" on="1"/>
        <pt x="337" y="541" on="1"/>
        <pt x="313" y="611" on="1"/>
        <pt x="312" y="611" on="1"/>
        <pt x="288" y="543" on="1"/>
        <pt x="173" y="253" on="1"/>
      </contour>
    </TTGlyph>
    <TTGlyph name="Agrave" xMin="19" yMin="0" xMax="606" yMax="897">
      <component glyphName="A" x="0" y="0" flags="0x0"/>
      <component glyphName="gravecomb.cap" x="313" y="0" flags="0x0"/>
    </TTGlyph>
    <TTGlyph name="Agrave.swsh" xMin="5" yMin="-110" xMax="871" yMax="897">
      <component glyphName="A.swsh" x="0" y="0" flags="0x0"/>
      <component glyphName="gravecomb.cap" x="578" y="0" flags="0x0"/>
    </TTGlyph>
    <TTGlyph name="Amacron" xMin="19" yMin="0" xMax="606" yMax="802">
      <component glyphName="A" x="0" y="0" flags="0x0"/>
      <component glyphName="macron" x="51" y="160" flags="0x4"/>
    </TTGlyph>
    <TTGlyph name="Amacron.swsh" xMin="5" yMin="-110" xMax="871" yMax="802">
      <component glyphName="A.swsh" x="0" y="0" flags="0x0"/>
      <component glyphName="macron" x="316" y="160" flags="0x4"/>
    </TTGlyph>
    <TTGlyph name="Aogonek" xMin="19" yMin="-209" xMax="618" yMax="660">
      <contour>
        <pt x="618" y="-189" on="1"/>
        <pt x="590" y="-209" on="0"/>
        <pt x="541" y="-209" on="1"/>
        <pt x="494" y="-209" on="0"/>
        <pt x="437" y="-161" on="0"/>
        <pt x="437" y="-117" on="1"/>
        <pt x="437" y="-76" on="0"/>
        <pt x="490" y="-14" on="0"/>
        <pt x="549" y="10" on="1"/>
        <pt x="470" y="207" on="1"/>
        <pt x="154" y="207" on="1"/>
        <pt x="72" y="0" on="1"/>
        <pt x="19" y="0" on="1"/>
        <pt x="283" y="660" on="1"/>
        <pt x="342" y="660" on="1"/>
        <pt x="606" y="0" on="1"/>
        <pt x="535" y="-25" on="0"/>
        <pt x="478" y="-79" on="0"/>
        <pt x="478" y="-114" on="1"/>
        <pt x="478" y="-142" on="0"/>
        <pt x="516" y="-172" on="0"/>
        <pt x="546" y="-172" on="1"/>
        <pt x="585" y="-172" on="0"/>
        <pt x="607" y="-156" on="1"/>
      </contour>
      <contour>
        <pt x="452" y="253" on="1"/>
        <pt x="337" y="541" on="1"/>
        <pt x="313" y="611" on="1"/>
        <pt x="312" y="611" on="1"/>
        <pt x="288" y="543" on="1"/>
        <pt x="173" y="253" on="1"/>
      </contour>
    </TTGlyph>
    <TTGlyph name="Aogonek.swsh" xMin="5" yMin="-209" xMax="883" yMax="660">
      <contour>
        <pt x="883" y="-189" on="1"/>
        <pt x="855" y="-209" on="0"/>
        <pt x="806" y="-209" on="1"/>
        <pt x="759" y="-209" on="0"/>
        <pt x="702" y="-161" on="0"/>
        <pt x="702" y="-117" on="1"/>
        <pt x="702" y="-76" on="0"/>
        <pt x="755" y="-14" on="0"/>
        <pt x="814" y="10" on="1"/>
        <pt x="735" y="207" on="1"/>
        <pt x="420" y="207" on="1"/>
        <pt x="350" y="32" on="1"/>
        <pt x="321" y="-42" on="0"/>
        <pt x="237" y="-110" on="0"/>
        <pt x="169" y="-110" on="1"/>
        <pt x="94" y="-110" on="0"/>
        <pt x="7" y="-41" on="0"/>
        <pt x="5" y="27" on="1"/>
        <pt x="42" y="53" on="1"/>
        <pt x="46" y="-13" on="0"/>
        <pt x="109" y="-66" on="0"/>
        <pt x="168" y="-66" on="1"/>
        <pt x="205" y="-66" on="0"/>
        <pt x="252" y="-43" on="0"/>
        <pt x="289" y="13" on="0"/>
        <pt x="311" y="67" on="1"/>
        <pt x="533" y="619" on="1"/>
        <pt x="349" y="619" on="1"/>
        <pt x="275" y="619" on="0"/>
        <pt x="196" y="555" on="0"/>
        <pt x="196" y="490" on="1"/>
        <pt x="196" y="439" on="0"/>
        <pt x="257" y="374" on="0"/>
        <pt x="309" y="364" on="1"/>
        <pt x="288" y="325" on="1"/>
        <pt x="225" y="336" on="0"/>
        <pt x="146" y="424" on="0"/>
        <pt x="146" y="491" on="1"/>
        <pt x="146" y="572" on="0"/>
        <pt x="247" y="660" on="0"/>
        <pt x="338" y="660" on="1"/>
        <pt x="608" y="660" on="1"/>
        <pt x="871" y="0" on="1"/>
        <pt x="800" y="-25" on="0"/>
        <pt x="743" y="-79" on="0"/>
        <pt x="743" y="-114" on="1"/>
        <pt x="743" y="-142" on="0"/>
        <pt x="781" y="-172" on="0"/>
        <pt x="811" y="-172" on="1"/>
        <pt x="850" y="-172" on="0"/>
        <pt x="872" y="-156" on="1"/>
      </contour>
      <contour>
        <pt x="717" y="253" on="1"/>
        <pt x="602" y="541" on="1"/>
        <pt x="578" y="611" on="1"/>
        <pt x="577" y="611" on="1"/>
        <pt x="553" y="543" on="1"/>
        <pt x="438" y="253" on="1"/>
      </contour>
    </TTGlyph>
    <TTGlyph name="Aring" xMin="19" yMin="0" xMax="606" yMax="821">
      <contour>
        <pt x="470" y="207" on="1"/>
        <pt x="154" y="207" on="1"/>
        <pt x="72" y="0" on="1"/>
        <pt x="19" y="0" on="1"/>
        <pt x="274" y="636" on="1"/>
        <pt x="245" y="646" on="0"/>
        <pt x="213" y="693" on="0"/>
        <pt x="213" y="726" on="1"/>
        <pt x="213" y="768" on="0"/>
        <pt x="268" y="821" on="0"/>
        <pt x="313" y="821" on="1"/>
        <pt x="358" y="821" on="0"/>
        <pt x="413" y="768" on="0"/>
        <pt x="413" y="726" on="1"/>
        <pt x="413" y="693" on="0"/>
        <pt x="381" y="646" on="0"/>
        <pt x="352" y="636" on="1"/>
        <pt x="606" y="0" on="1"/>
        <pt x="553" y="0" on="1"/>
      </contour>
      <contour>
        <pt x="249" y="698" on="0"/>
        <pt x="284" y="663" on="0"/>
        <pt x="313" y="663" on="1"/>
        <pt x="341" y="663" on="0"/>
        <pt x="377" y="698" on="0"/>
        <pt x="377" y="726" on="1"/>
        <pt x="377" y="754" on="0"/>
        <pt x="341" y="788" on="0"/>
        <pt x="313" y="788" on="1"/>
        <pt x="284" y="788" on="0"/>
        <pt x="249" y="754" on="0"/>
        <pt x="249" y="726" on="1"/>
      </contour>
      <contour>
        <pt x="452" y="253" on="1"/>
        <pt x="337" y="541" on="1"/>
        <pt x="313" y="611" on="1"/>
        <pt x="312" y="611" on="1"/>
        <pt x="288" y="543" on="1"/>
        <pt x="173" y="253" on="1"/>
      </contour>
    </TTGlyph>
    <TTGlyph name="Atilde" xMin="19" yMin="0" xMax="606" yMax="861">
      <component glyphName="A" x="0" y="0" flags="0x0"/>
      <component glyphName="tilde" x="62" y="160" flags="0x4"/>
    </TTGlyph>
    <TTGlyph name="Atilde.swsh" xMin="5" yMin="-110" xMax="871" yMax="861">
      <component glyphName="A.swsh" x="0" y="0" flags="0x0"/>
      <component glyphName="tilde" x="327" y="160" flags="0x4"/>
    </TTGlyph>
    <TTGlyph name="B" xMin="104" yMin="0" xMax="570" yMax="660">
      <contour>
        <pt x="104" y="660" on="1"/>
        <pt x="337" y="660" on="1"/>
        <pt x="445" y="660" on="0"/>
        <pt x="552" y="570" on="0"/>
        <pt x="552" y="485" on="1"/>
        <pt x="552" y="427" on="0"/>
        <pt x="489" y="347" on="0"/>
        <pt x="431" y="335" on="1"/>
        <pt x="431" y="334" on="1"/>
        <pt x="495" y="324" on="0"/>
        <pt x="570" y="240" on="0"/>
        <pt x="570" y="178" on="1"/>
        <pt x="570" y="93" on="0"/>
        <pt x="449" y="0" on="0"/>
        <pt x="337" y="0" on="1"/>
        <pt x="104" y="0" on="1"/>
      </contour>
      <contour>
        <pt x="338" y="356" on="1"/>
        <pt x="499" y="356" on="0"/>
        <pt x="499" y="485" on="1"/>
        <pt x="499" y="614" on="0"/>
        <pt x="338" y="614" on="1"/>
        <pt x="154" y="614" on="1"/>
        <pt x="154" y="356" on="1"/>
      </contour>
      <contour>
        <pt x="347" y="46" on="1"/>
        <pt x="431" y="46" on="0"/>
        <pt x="517" y="114" on="0"/>
        <pt x="517" y="178" on="1"/>
        <pt x="517" y="243" on="0"/>
        <pt x="431" y="310" on="0"/>
        <pt x="347" y="310" on="1"/>
        <pt x="154" y="310" on="1"/>
        <pt x="154" y="46" on="1"/>
      </contour>
    </TTGlyph>
    <TTGlyph name="C" xMin="62" yMin="-10" xMax="626" yMax="670">
      <contour>
        <pt x="598" y="83" on="0"/>
        <pt x="459" y="-10" on="0"/>
        <pt x="362" y="-10" on="1"/>
        <pt x="272" y="-10" on="0"/>
        <pt x="136" y="73" on="0"/>
        <pt x="62" y="227" on="0"/>
        <pt x="62" y="330" on="1"/>
        <pt x="62" y="433" on="0"/>
        <pt x="136" y="587" on="0"/>
        <pt x="272" y="670" on="0"/>
        <pt x="361" y="670" on="1"/>
        <pt x="559" y="670" on="0"/>
        <pt x="617" y="507" on="1"/>
        <pt x="568" y="484" on="1"/>
        <pt x="545" y="554" on="0"/>
        <pt x="444" y="624" on="0"/>
        <pt x="364" y="624" on="1"/>
        <pt x="290" y="624" on="0"/>
        <pt x="177" y="553" on="0"/>
        <pt x="115" y="420" on="0"/>
        <pt x="115" y="330" on="1"/>
        <pt x="115" y="240" on="0"/>
        <pt x="176" y="107" on="0"/>
        <pt x="287" y="36" on="0"/>
        <pt x="362" y="36" on="1"/>
        <pt x="442" y="36" on="0"/>
        <pt x="554" y="114" on="0"/>
        <pt x="576" y="186" on="1"/>
        <pt x="626" y="167" on="1"/>
      </contour>
    </TTGlyph>
    <TTGlyph name="Cacute" xMin="62" yMin="-10" xMax="626" yMax="897">
      <component glyphName="C" x="0" y="0" flags="0x0"/>
      <component glyphName="acutecomb.cap" x="357" y="0" flags="0x0"/>
    </TTGlyph>
    <TTGlyph name="Ccaron" xMin="62" yMin="-10" xMax="626" yMax="894">
      <component glyphName="C" x="0" y="0" flags="0x0"/>
      <component glyphName="uni030C.cap" x="357" y="0" flags="0x0"/>
    </TTGlyph>
    <TTGlyph name="Ccedilla" xMin="62" yMin="-209" xMax="626" yMax="670">
      <contour>
        <pt x="601" y="91" on="0"/>
        <pt x="481" y="0" on="0"/>
        <pt x="398" y="-8" on="1"/>
        <pt x="463" y="-51" on="0"/>
        <pt x="463" y="-113" on="1"/>
        <pt x="463" y="-154" on="0"/>
        <pt x="407" y="-209" on="0"/>
        <pt x="360" y="-209" on="1"/>
        <pt x="326" y="-209" on="0"/>
        <pt x="277" y="-191" on="0"/>
        <pt x="257" y="-171" on="1"/>
        <pt x="277" y="-136" on="1"/>
        <pt x="306" y="-171" on="0"/>
        <pt x="354" y="-171" on="1"/>
        <pt x="382" y="-171" on="0"/>
        <pt x="419" y="-136" on="0"/>
        <pt x="419" y="-107" on="1"/>
        <pt x="419" y="-78" on="0"/>
        <pt x="384" y="-35" on="0"/>
        <pt x="337" y="-9" on="1"/>
        <pt x="253" y="-4" on="0"/>
        <pt x="129" y="82" on="0"/>
        <pt x="62" y="232" on="0"/>
        <pt x="62" y="330" on="1"/>
        <pt x="62" y="433" on="0"/>
        <pt x="136" y="587" on="0"/>
        <pt x="272" y="670" on="0"/>
        <pt x="361" y="670" on="1"/>
        <pt x="559" y="670" on="0"/>
        <pt x="617" y="507" on="1"/>
        <pt x="568" y="484" on="1"/>
        <pt x="545" y="554" on="0"/>
        <pt x="444" y="624" on="0"/>
        <pt x="364" y="624" on="1"/>
        <pt x="290" y="624" on="0"/>
        <pt x="177" y="553" on="0"/>
        <pt x="115" y="420" on="0"/>
        <pt x="115" y="330" on="1"/>
        <pt x="115" y="240" on="0"/>
        <pt x="176" y="107" on="0"/>
        <pt x="287" y="36" on="0"/>
        <pt x="362" y="36" on="1"/>
        <pt x="442" y="36" on="0"/>
        <pt x="554" y="114" on="0"/>
        <pt x="576" y="186" on="1"/>
        <pt x="626" y="167" on="1"/>
      </contour>
    </TTGlyph>
    <TTGlyph name="D" xMin="104" yMin="0" xMax="641" yMax="660">
      <contour>
        <pt x="470" y="660" on="0"/>
        <pt x="641" y="493" on="0"/>
        <pt x="641" y="335" on="1"/>
        <pt x="641" y="173" on="0"/>
        <pt x="470" y="0" on="0"/>
        <pt x="312" y="0" on="1"/>
        <pt x="104" y="0" on="1"/>
        <pt x="104" y="660" on="1"/>
        <pt x="312" y="660" on="1"/>
      </contour>
      <contour>
        <pt x="448" y="46" on="0"/>
        <pt x="589" y="195" on="0"/>
        <pt x="589" y="335" on="1"/>
        <pt x="589" y="469" on="0"/>
        <pt x="448" y="614" on="0"/>
        <pt x="316" y="614" on="1"/>
        <pt x="154" y="614" on="1"/>
        <pt x="154" y="46" on="1"/>
        <pt x="316" y="46" on="1"/>
      </contour>
    </TTGlyph>
    <TTGlyph name="Dcaron" xMin="104" yMin="0" xMax="641" yMax="894">
      <component glyphName="D" x="0" y="0" flags="0x0"/>
      <component glyphName="uni030C.cap" x="318" y="0" flags="0x0"/>
    </TTGlyph>
    <TTGlyph name="Dcroat" xMin="16" yMin="0" xMax="653" yMax="660">
      <contour>
        <pt x="482" y="660" on="0"/>
        <pt x="653" y="493" on="0"/>
        <pt x="653" y="335" on="1"/>
        <pt x="653" y="173" on="0"/>
        <pt x="482" y="0" on="0"/>
        <pt x="324" y="0" on="1"/>
        <pt x="116" y="0" on="1"/>
        <pt x="116" y="314" on="1"/>
        <pt x="16" y="314" on="1"/>
        <pt x="16" y="353" on="1"/>
        <pt x="116" y="353" on="1"/>
        <pt x="116" y="660" on="1"/>
        <pt x="324" y="660" on="1"/>
      </contour>
      <contour>
        <pt x="460" y="46" on="0"/>
        <pt x="601" y="195" on="0"/>
        <pt x="601" y="335" on="1"/>
        <pt x="601" y="469" on="0"/>
        <pt x="460" y="614" on="0"/>
        <pt x="328" y="614" on="1"/>
        <pt x="166" y="614" on="1"/>
        <pt x="166" y="353" on="1"/>
        <pt x="368" y="353" on="1"/>
        <pt x="368" y="314" on="1"/>
        <pt x="166" y="314" on="1"/>
        <pt x="166" y="46" on="1"/>
        <pt x="328" y="46" on="1"/>
      </contour>
    </TTGlyph>
    <TTGlyph name="E" xMin="104" yMin="0" xMax="571" yMax="660">
      <contour>
        <pt x="571" y="46" on="1"/>
        <pt x="571" y="0" on="1"/>
        <pt x="104" y="0" on="1"/>
        <pt x="104" y="660" on="1"/>
        <pt x="555" y="660" on="1"/>
        <pt x="555" y="614" on="1"/>
        <pt x="154" y="614" on="1"/>
        <pt x="154" y="359" on="1"/>
        <pt x="471" y="359" on="1"/>
        <pt x="471" y="312" on="1"/>
        <pt x="154" y="312" on="1"/>
        <pt x="154" y="46" on="1"/>
      </contour>
    </TTGlyph>
    <TTGlyph name="E.swsh" xMin="10" yMin="0" xMax="788" yMax="660">
      <contour>
        <pt x="788" y="46" on="1"/>
        <pt x="788" y="0" on="1"/>
        <pt x="321" y="0" on="1"/>
        <pt x="321" y="619" on="1"/>
        <pt x="213" y="619" on="1"/>
        <pt x="139" y="619" on="0"/>
        <pt x="60" y="555" on="0"/>
        <pt x="60" y="490" on="1"/>
        <pt x="60" y="439" on="0"/>
        <pt x="121" y="374" on="0"/>
        <pt x="173" y="364" on="1"/>
        <pt x="152" y="325" on="1"/>
        <pt x="89" y="336" on="0"/>
        <pt x="10" y="424" on="0"/>
        <pt x="10" y="491" on="1"/>
        <pt x="10" y="572" on="0"/>
        <pt x="111" y="660" on="0"/>
        <pt x="202" y="660" on="1"/>
        <pt x="772" y="660" on="1"/>
        <pt x="772" y="614" on="1"/>
        <pt x="371" y="614" on="1"/>
        <pt x="371" y="359" on="1"/>
        <pt x="688" y="359" on="1"/>
        <pt x="688" y="312" on="1"/>
        <pt x="371" y="312" on="1"/>
        <pt x="371" y="46" on="1"/>
      </contour>
    </TTGlyph>
    <TTGlyph name="E.swsh.001" xMin="104" yMin="0" xMax="709" yMax="660">
      <contour>
        <pt x="648" y="302" on="0"/>
        <pt x="709" y="222" on="0"/>
        <pt x="709" y="158" on="1"/>
        <pt x="709" y="80" on="0"/>
        <pt x="608" y="0" on="0"/>
        <pt x="517" y="0" on="1"/>
        <pt x="104" y="0" on="1"/>
        <pt x="104" y="660" on="1"/>
        <pt x="590" y="660" on="1"/>
        <pt x="590" y="614" on="1"/>
        <pt x="154" y="614" on="1"/>
        <pt x="154" y="354" on="1"/>
        <pt x="405" y="354" on="1"/>
        <pt x="405" y="308" on="1"/>
        <pt x="154" y="308" on="1"/>
        <pt x="154" y="46" on="1"/>
        <pt x="505" y="46" on="1"/>
        <pt x="583" y="46" on="0"/>
        <pt x="659" y="99" on="0"/>
        <pt x="659" y="159" on="1"/>
        <pt x="659" y="208" on="0"/>
        <pt x="615" y="264" on="0"/>
        <pt x="577" y="269" on="1"/>
        <pt x="599" y="308" on="1"/>
      </contour>
    </TTGlyph>
    <TTGlyph name="Eacute" xMin="104" yMin="0" xMax="571" yMax="897">
      <component glyphName="E" x="0" y="0" flags="0x0"/>
      <component glyphName="acutecomb.cap" x="329" y="0" flags="0x0"/>
    </TTGlyph>
    <TTGlyph name="Eacute.swsh" xMin="10" yMin="0" xMax="788" yMax="897">
      <component glyphName="E.swsh" x="0" y="0" flags="0x0"/>
      <component glyphName="acutecomb.cap" x="545" y="0" flags="0x0"/>
    </TTGlyph>
    <TTGlyph name="Eacute.swsh.001" xMin="104" yMin="0" xMax="709" yMax="897">
      <component glyphName="E.swsh.001" x="0" y="0" flags="0x0"/>
      <component glyphName="acutecomb.cap" x="361" y="0" flags="0x0"/>
    </TTGlyph>
    <TTGlyph name="Ecaron" xMin="104" yMin="0" xMax="571" yMax="894">
      <component glyphName="E" x="0" y="0" flags="0x0"/>
      <component glyphName="uni030C.cap" x="329" y="0" flags="0x0"/>
    </TTGlyph>
    <TTGlyph name="Ecaron.swsh" xMin="10" yMin="0" xMax="788" yMax="894">
      <component glyphName="E.swsh" x="0" y="0" flags="0x0"/>
      <component glyphName="uni030C.cap" x="545" y="0" flags="0x0"/>
    </TTGlyph>
    <TTGlyph name="Ecaron.swsh.001" xMin="104" yMin="0" xMax="709" yMax="894">
      <component glyphName="E.swsh.001" x="0" y="0" flags="0x0"/>
      <component glyphName="uni030C.cap" x="361" y="0" flags="0x0"/>
    </TTGlyph>
    <TTGlyph name="Ecircumflex" xMin="104" yMin="0" xMax="571" yMax="892">
      <component glyphName="E" x="0" y="0" flags="0x0"/>
      <component glyphName="uni0302.cap" x="329" y="0" flags="0x0"/>
    </TTGlyph>
    <TTGlyph name="Ecircumflex.swsh" xMin="10" yMin="0" xMax="788" yMax="892">
      <component glyphName="E.swsh" x="0" y="0" flags="0x0"/>
      <component glyphName="uni0302.cap" x="545" y="0" flags="0x0"/>
    </TTGlyph>
    <TTGlyph name="Ecircumflex.swsh.001" xMin="104" yMin="0" xMax="709" yMax="892">
      <component glyphName="E.swsh.001" x="0" y="0" flags="0x0"/>
      <component glyphName="uni0302.cap" x="361" y="0" flags="0x0"/>
    </TTGlyph>
    <TTGlyph name="Edieresis" xMin="104" yMin="0" xMax="571" yMax="831">
      <component glyphName="E" x="0" y="0" flags="0x0"/>
      <component glyphName="dieresis" x="65" y="160" flags="0x4"/>
    </TTGlyph>
    <TTGlyph name="Edieresis.swsh" xMin="10" yMin="0" xMax="788" yMax="831">
      <component glyphName="E.swsh" x="0" y="0" flags="0x0"/>
      <component glyphName="dieresis" x="281" y="160" flags="0x4"/>
    </TTGlyph>
    <TTGlyph name="Edieresis.swsh.001" xMin="104" yMin="0" xMax="709" yMax="831">
      <component glyphName="E.swsh.001" x="0" y="0" flags="0x0"/>
      <component glyphName="dieresis" x="97" y="160" flags="0x4"/>
    </TTGlyph>
    <TTGlyph name="Edotaccent" xMin="104" yMin="0" xMax="571" yMax="841">
      <component glyphName="E" x="0" y="0" flags="0x0"/>
      <component glyphName="dotaccent" x="67" y="160" flags="0x4"/>
    </TTGlyph>
    <TTGlyph name="Edotaccent.swsh" xMin="10" yMin="0" xMax="788" yMax="841">
      <component glyphName="E.swsh" x="0" y="0" flags="0x0"/>
      <component glyphName="dotaccent" x="283" y="160" flags="0x4"/>
    </TTGlyph>
    <TTGlyph name="Edotaccent.swsh.001" xMin="104" yMin="0" xMax="709" yMax="841">
      <component glyphName="E.swsh.001" x="0" y="0" flags="0x0"/>
      <component glyphName="dotaccent" x="99" y="160" flags="0x4"/>
    </TTGlyph>
    <TTGlyph name="Egrave" xMin="104" yMin="0" xMax="571" yMax="897">
      <component glyphName="E" x="0" y="0" flags="0x0"/>
      <component glyphName="gravecomb.cap" x="331" y="0" flags="0x0"/>
    </TTGlyph>
    <TTGlyph name="Egrave.swsh" xMin="10" yMin="0" xMax="788" yMax="897">
      <component glyphName="E.swsh" x="0" y="0" flags="0x0"/>
      <component glyphName="gravecomb.cap" x="545" y="0" flags="0x0"/>
    </TTGlyph>
    <TTGlyph name="Egrave.swsh.001" xMin="104" yMin="0" xMax="709" yMax="897">
      <component glyphName="E.swsh.001" x="0" y="0" flags="0x0"/>
      <component glyphName="gravecomb.cap" x="361" y="0" flags="0x0"/>
    </TTGlyph>
    <TTGlyph name="Emacron" xMin="104" yMin="0" xMax="571" yMax="802">
      <component glyphName="E" x="0" y="0" flags="0x0"/>
      <component glyphName="macron" x="67" y="160" flags="0x4"/>
    </TTGlyph>
    <TTGlyph name="Emacron.swsh" xMin="10" yMin="0" xMax="788" yMax="802">
      <component glyphName="E.swsh" x="0" y="0" flags="0x0"/>
      <component glyphName="macron" x="283" y="160" flags="0x4"/>
    </TTGlyph>
    <TTGlyph name="Emacron.swsh.001" xMin="104" yMin="0" xMax="709" yMax="802">
      <component glyphName="E.swsh.001" x="0" y="0" flags="0x0"/>
      <component glyphName="macron" x="99" y="160" flags="0x4"/>
    </TTGlyph>
    <TTGlyph name="Eogonek" xMin="104" yMin="-209" xMax="584" yMax="660">
      <contour>
        <pt x="584" y="-189" on="1"/>
        <pt x="554" y="-209" on="0"/>
        <pt x="506" y="-209" on="1"/>
        <pt x="459" y="-209" on="0"/>
        <pt x="402" y="-162" on="0"/>
        <pt x="402" y="-120" on="1"/>
        <pt x="402" y="-79" on="0"/>
        <pt x="451" y="-22" on="0"/>
        <pt x="505" y="0" on="1"/>
        <pt x="104" y="0" on="1"/>
        <pt x="104" y="660" on="1"/>
        <pt x="555" y="660" on="1"/>
        <pt x="555" y="614" on="1"/>
        <pt x="154" y="614" on="1"/>
        <pt x="154" y="359" on="1"/>
        <pt x="471" y="359" on="1"/>
        <pt x="471" y="312" on="1"/>
        <pt x="154" y="312" on="1"/>
        <pt x="154" y="46" on="1"/>
        <pt x="571" y="46" on="1"/>
        <pt x="571" y="0" on="1"/>
        <pt x="499" y="-26" on="0"/>
        <pt x="443" y="-80" on="0"/>
        <pt x="443" y="-114" on="1"/>
        <pt x="443" y="-142" on="0"/>
        <pt x="481" y="-172" on="0"/>
        <pt x="512" y="-172" on="1"/>
        <pt x="550" y="-172" on="0"/>
        <pt x="572" y="-156" on="1"/>
      </contour>
    </TTGlyph>
    <TTGlyph name="Eogonek.swsh" xMin="10" yMin="-209" xMax="800" yMax="660">
      <contour>
        <pt x="800" y="-189" on="1"/>
        <pt x="770" y="-209" on="0"/>
        <pt x="722" y="-209" on="1"/>
        <pt x="675" y="-209" on="0"/>
        <pt x="618" y="-162" on="0"/>
        <pt x="618" y="-120" on="1"/>
        <pt x="618" y="-79" on="0"/>
        <pt x="667" y="-22" on="0"/>
        <pt x="721" y="0" on="1"/>
        <pt x="321" y="0" on="1"/>
        <pt x="321" y="619" on="1"/>
        <pt x="213" y="619" on="1"/>
        <pt x="139" y="619" on="0"/>
        <pt x="60" y="555" on="0"/>
        <pt x="60" y="490" on="1"/>
        <pt x="60" y="439" on="0"/>
        <pt x="121" y="374" on="0"/>
        <pt x="173" y="364" on="1"/>
        <pt x="152" y="325" on="1"/>
        <pt x="89" y="336" on="0"/>
        <pt x="10" y="424" on="0"/>
        <pt x="10" y="491" on="1"/>
        <pt x="10" y="572" on="0"/>
        <pt x="111" y="660" on="0"/>
        <pt x="202" y="660" on="1"/>
        <pt x="772" y="660" on="1"/>
        <pt x="772" y="614" on="1"/>
        <pt x="371" y="614" on="1"/>
        <pt x="371" y="359" on="1"/>
        <pt x="688" y="359" on="1"/>
        <pt x="688" y="312" on="1"/>
        <pt x="371" y="312" on="1"/>
        <pt x="371" y="46" on="1"/>
        <pt x="788" y="46" on="1"/>
        <pt x="788" y="0" on="1"/>
        <pt x="787" y="0" on="1"/>
        <pt x="715" y="-26" on="0"/>
        <pt x="659" y="-80" on="0"/>
        <pt x="659" y="-114" on="1"/>
        <pt x="659" y="-142" on="0"/>
        <pt x="697" y="-172" on="0"/>
        <pt x="728" y="-172" on="1"/>
        <pt x="766" y="-172" on="0"/>
        <pt x="788" y="-156" on="1"/>
      </contour>
    </TTGlyph>
    <TTGlyph name="Eth" xMin="16" yMin="0" xMax="653" yMax="660">
      <component glyphName="Dcroat" x="0" y="0" flags="0x0"/>
    </TTGlyph>
    <TTGlyph name="Euro" xMin="49" yMin="-10" xMax="630" yMax="670">
      <contour>
        <pt x="630" y="169" on="1"/>
        <pt x="606" y="84" on="0"/>
        <pt x="479" y="-10" on="0"/>
        <pt x="399" y="-10" on="1"/>
        <pt x="294" y="-10" on="0"/>
        <pt x="159" y="116" on="0"/>
        <pt x="138" y="230" on="1"/>
        <pt x="49" y="230" on="1"/>
        <pt x="49" y="272" on="1"/>
        <pt x="133" y="272" on="1"/>
        <pt x="130" y="301" on="0"/>
        <pt x="130" y="330" on="1"/>
        <pt x="130" y="348" on="0"/>
        <pt x="132" y="380" on="1"/>
        <pt x="49" y="380" on="1"/>
        <pt x="49" y="422" on="1"/>
        <pt x="137" y="422" on="1"/>
        <pt x="157" y="540" on="0"/>
        <pt x="292" y="670" on="0"/>
        <pt x="397" y="670" on="1"/>
        <pt x="479" y="670" on="0"/>
        <pt x="595" y="594" on="0"/>
        <pt x="620" y="522" on="1"/>
        <pt x="576" y="499" on="1"/>
        <pt x="557" y="561" on="0"/>
        <pt x="465" y="626" on="0"/>
        <pt x="401" y="626" on="1"/>
        <pt x="318" y="626" on="0"/>
        <pt x="206" y="519" on="0"/>
        <pt x="188" y="422" on="1"/>
        <pt x="452" y="422" on="1"/>
        <pt x="437" y="380" on="1"/>
        <pt x="182" y="380" on="1"/>
        <pt x="180" y="348" on="0"/>
        <pt x="180" y="330" on="1"/>
        <pt x="180" y="299" on="0"/>
        <pt x="183" y="272" on="1"/>
        <pt x="412" y="272" on="1"/>
        <pt x="397" y="230" on="1"/>
        <pt x="189" y="230" on="1"/>
        <pt x="209" y="136" on="0"/>
        <pt x="318" y="34" on="0"/>
        <pt x="400" y="34" on="1"/>
        <pt x="464" y="34" on="0"/>
        <pt x="566" y="113" on="0"/>
        <pt x="585" y="187" on="1"/>
      </contour>
    </TTGlyph>
    <TTGlyph name="Euro.tf" xMin="29" yMin="-10" xMax="576" yMax="670">
      <contour>
        <pt x="576" y="169" on="1"/>
        <pt x="556" y="84" on="0"/>
        <pt x="439" y="-10" on="0"/>
        <pt x="359" y="-10" on="1"/>
        <pt x="261" y="-10" on="0"/>
        <pt x="134" y="116" on="0"/>
        <pt x="115" y="230" on="1"/>
        <pt x="29" y="230" on="1"/>
        <pt x="29" y="272" on="1"/>
        <pt x="110" y="272" on="1"/>
        <pt x="107" y="301" on="0"/>
        <pt x="107" y="330" on="1"/>
        <pt x="107" y="348" on="0"/>
        <pt x="109" y="380" on="1"/>
        <pt x="29" y="380" on="1"/>
        <pt x="29" y="422" on="1"/>
        <pt x="114" y="422" on="1"/>
        <pt x="132" y="539" on="0"/>
        <pt x="261" y="670" on="0"/>
        <pt x="360" y="670" on="1"/>
        <pt x="439" y="670" on="0"/>
        <pt x="546" y="594" on="0"/>
        <pt x="566" y="522" on="1"/>
        <pt x="522" y="499" on="1"/>
        <pt x="507" y="561" on="0"/>
        <pt x="426" y="626" on="0"/>
        <pt x="364" y="626" on="1"/>
        <pt x="287" y="626" on="0"/>
        <pt x="182" y="519" on="0"/>
        <pt x="165" y="422" on="1"/>
        <pt x="413" y="422" on="1"/>
        <pt x="398" y="380" on="1"/>
        <pt x="159" y="380" on="1"/>
        <pt x="157" y="348" on="0"/>
        <pt x="157" y="330" on="1"/>
        <pt x="157" y="299" on="0"/>
        <pt x="160" y="272" on="1"/>
        <pt x="374" y="272" on="1"/>
        <pt x="360" y="230" on="1"/>
        <pt x="166" y="230" on="1"/>
        <pt x="183" y="137" on="0"/>
        <pt x="284" y="34" on="0"/>
        <pt x="359" y="34" on="1"/>
        <pt x="424" y="34" on="0"/>
        <pt x="516" y="113" on="0"/>
        <pt x="531" y="187" on="1"/>
      </contour>
    </TTGlyph>
    <TTGlyph name="F" xMin="104" yMin="0" xMax="554" yMax="660">
      <contour>
        <pt x="154" y="614" on="1"/>
        <pt x="154" y="359" on="1"/>
        <pt x="471" y="359" on="1"/>
        <pt x="471" y="312" on="1"/>
        <pt x="154" y="312" on="1"/>
        <pt x="154" y="0" on="1"/>
        <pt x="104" y="0" on="1"/>
        <pt x="104" y="660" on="1"/>
        <pt x="554" y="660" on="1"/>
        <pt x="554" y="614" on="1"/>
      </contour>
    </TTGlyph>
    <TTGlyph name="F.swsh" xMin="10" yMin="0" xMax="771" yMax="660">
      <contour>
        <pt x="371" y="614" on="1"/>
        <pt x="371" y="359" on="1"/>
        <pt x="688" y="359" on="1"/>
        <pt x="688" y="312" on="1"/>
        <pt x="371" y="312" on="1"/>
        <pt x="371" y="0" on="1"/>
        <pt x="321" y="0" on="1"/>
        <pt x="321" y="619" on="1"/>
        <pt x="213" y="619" on="1"/>
        <pt x="139" y="619" on="0"/>
        <pt x="60" y="555" on="0"/>
        <pt x="60" y="490" on="1"/>
        <pt x="60" y="439" on="0"/>
        <pt x="121" y="374" on="0"/>
        <pt x="173" y="364" on="1"/>
        <pt x="152" y="325" on="1"/>
        <pt x="89" y="336" on="0"/>
        <pt x="10" y="424" on="0"/>
        <pt x="10" y="491" on="1"/>
        <pt x="10" y="572" on="0"/>
        <pt x="111" y="660" on="0"/>
        <pt x="202" y="660" on="1"/>
        <pt x="771" y="660" on="1"/>
        <pt x="771" y="614" on="1"/>
      </contour>
    </TTGlyph>
    <TTGlyph name="G" xMin="62" yMin="-10" xMax="629" yMax="670">
      <contour>
        <pt x="629" y="323" on="1"/>
        <pt x="629" y="0" on="1"/>
        <pt x="589" y="0" on="1"/>
        <pt x="588" y="116" on="1"/>
        <pt x="561" y="56" on="0"/>
        <pt x="445" y="-10" on="0"/>
        <pt x="360" y="-10" on="1"/>
        <pt x="270" y="-10" on="0"/>
        <pt x="135" y="73" on="0"/>
        <pt x="62" y="227" on="0"/>
        <pt x="62" y="330" on="1"/>
        <pt x="62" y="433" on="0"/>
        <pt x="137" y="587" on="0"/>
        <pt x="273" y="670" on="0"/>
        <pt x="363" y="670" on="1"/>
        <pt x="464" y="670" on="0"/>
        <pt x="592" y="590" on="0"/>
        <pt x="624" y="508" on="1"/>
        <pt x="578" y="484" on="1"/>
        <pt x="555" y="553" on="0"/>
        <pt x="446" y="624" on="0"/>
        <pt x="363" y="624" on="1"/>
        <pt x="289" y="624" on="0"/>
        <pt x="177" y="553" on="0"/>
        <pt x="115" y="420" on="0"/>
        <pt x="115" y="330" on="1"/>
        <pt x="115" y="193" on="0"/>
        <pt x="246" y="36" on="0"/>
        <pt x="362" y="36" on="1"/>
        <pt x="434" y="36" on="0"/>
        <pt x="534" y="93" on="0"/>
        <pt x="582" y="186" on="0"/>
        <pt x="582" y="239" on="1"/>
        <pt x="582" y="276" on="1"/>
        <pt x="358" y="276" on="1"/>
        <pt x="358" y="323" on="1"/>
      </contour>
    </TTGlyph>
    <TTGlyph name="G.ss04" xMin="62" yMin="-10" xMax="638" yMax="670">
      <contour>
        <pt x="638" y="323" on="1"/>
        <pt x="638" y="282" on="1"/>
        <pt x="638" y="152" on="0"/>
        <pt x="501" y="-10" on="0"/>
        <pt x="361" y="-10" on="1"/>
        <pt x="271" y="-10" on="0"/>
        <pt x="135" y="73" on="0"/>
        <pt x="62" y="227" on="0"/>
        <pt x="62" y="330" on="1"/>
        <pt x="62" y="433" on="0"/>
        <pt x="137" y="587" on="0"/>
        <pt x="273" y="670" on="0"/>
        <pt x="363" y="670" on="1"/>
        <pt x="464" y="670" on="0"/>
        <pt x="592" y="590" on="0"/>
        <pt x="624" y="508" on="1"/>
        <pt x="578" y="484" on="1"/>
        <pt x="555" y="553" on="0"/>
        <pt x="446" y="624" on="0"/>
        <pt x="363" y="624" on="1"/>
        <pt x="289" y="624" on="0"/>
        <pt x="177" y="553" on="0"/>
        <pt x="115" y="420" on="0"/>
        <pt x="115" y="330" on="1"/>
        <pt x="115" y="193" on="0"/>
        <pt x="248" y="36" on="0"/>
        <pt x="365" y="36" on="1"/>
        <pt x="448" y="36" on="0"/>
        <pt x="549" y="109" on="0"/>
        <pt x="590" y="217" on="0"/>
        <pt x="590" y="275" on="1"/>
        <pt x="590" y="276" on="1"/>
        <pt x="358" y="276" on="1"/>
        <pt x="358" y="323" on="1"/>
      </contour>
    </TTGlyph>
    <TTGlyph name="Gbreve" xMin="62" yMin="-10" xMax="629" yMax="874">
      <component glyphName="G" x="0" y="0" flags="0x0"/>
      <component glyphName="breve" x="107" y="160" flags="0x4"/>
    </TTGlyph>
    <TTGlyph name="Gbreve.ss04" xMin="62" yMin="-10" xMax="638" yMax="874">
      <component glyphName="G.ss04" x="0" y="0" flags="0x0"/>
      <component glyphName="breve" x="107" y="160" flags="0x4"/>
    </TTGlyph>
    <TTGlyph name="Gcommaaccent.sc" xMin="56" yMin="-233" xMax="563" yMax="568">
      <component glyphName="g.sc" x="0" y="0" flags="0x0"/>
      <component glyphName="uni0326" x="349" y="0" flags="0x0"/>
    </TTGlyph>
    <TTGlyph name="Gcommaaccent.sc.ss04" xMin="56" yMin="-233" xMax="570" yMax="568">
      <component glyphName="g.sc.ss04" x="0" y="0" flags="0x0"/>
      <component glyphName="uni0326" x="337" y="0" flags="0x0"/>
    </TTGlyph>
    <TTGlyph name="Gcommaaccent.ss04" xMin="62" yMin="-233" xMax="638" yMax="670">
      <component glyphName="G.ss04" x="0" y="0" flags="0x0"/>
      <component glyphName="uni0326" x="380" y="0" flags="0x0"/>
    </TTGlyph>
    <TTGlyph name="H" xMin="104" yMin="0" xMax="612" yMax="660">
      <contour>
        <pt x="612" y="660" on="1"/>
        <pt x="612" y="0" on="1"/>
        <pt x="562" y="0" on="1"/>
        <pt x="562" y="312" on="1"/>
        <pt x="154" y="312" on="1"/>
        <pt x="154" y="0" on="1"/>
        <pt x="104" y="0" on="1"/>
        <pt x="104" y="660" on="1"/>
        <pt x="154" y="660" on="1"/>
        <pt x="154" y="359" on="1"/>
        <pt x="562" y="359" on="1"/>
        <pt x="562" y="660" on="1"/>
      </contour>
    </TTGlyph>
    <TTGlyph name="Hinferior" xMin="59" yMin="-189" xMax="384" yMax="208">
      <component glyphName="Hsuperior" x="0" y="-522" flags="0x4"/>
    </TTGlyph>
    <TTGlyph name="Hsuperior" xMin="59" yMin="333" xMax="384" yMax="730">
      <contour>
        <pt x="384" y="730" on="1"/>
        <pt x="384" y="333" on="1"/>
        <pt x="339" y="333" on="1"/>
        <pt x="339" y="517" on="1"/>
        <pt x="105" y="517" on="1"/>
        <pt x="105" y="333" on="1"/>
        <pt x="59" y="333" on="1"/>
        <pt x="59" y="730" on="1"/>
        <pt x="105" y="730" on="1"/>
        <pt x="105" y="555" on="1"/>
        <pt x="339" y="555" on="1"/>
        <pt x="339" y="730" on="1"/>
      </contour>
    </TTGlyph>
    <TTGlyph name="I" xMin="104" yMin="0" xMax="154" yMax="660">
      <contour>
        <pt x="154" y="0" on="1"/>
        <pt x="104" y="0" on="1"/>
        <pt x="104" y="660" on="1"/>
        <pt x="154" y="660" on="1"/>
      </contour>
    </TTGlyph>
    <TTGlyph name="IJ" xMin="104" yMin="-10" xMax="695" yMax="660">
      <component glyphName="I" x="0" y="0" flags="0x0"/>
      <component glyphName="J" x="258" y="0" flags="0x0"/>
    </TTGlyph>
    <TTGlyph name="IJ.ss05" xMin="103" yMin="-10" xMax="507" yMax="660">
      <contour>
        <pt x="507" y="218" on="1"/>
        <pt x="507" y="112" on="0"/>
        <pt x="396" y="-10" on="0"/>
        <pt x="298" y="-10" on="1"/>
        <pt x="202" y="-10" on="0"/>
        <pt x="103" y="76" on="0"/>
        <pt x="103" y="158" on="1"/>
        <pt x="104" y="178" on="1"/>
        <pt x="152" y="178" on="1"/>
        <pt x="151" y="172" on="0"/>
        <pt x="151" y="160" on="1"/>
        <pt x="151" y="99" on="0"/>
        <pt x="226" y="36" on="0"/>
        <pt x="298" y="36" on="1"/>
        <pt x="374" y="36" on="0"/>
        <pt x="457" y="137" on="0"/>
        <pt x="457" y="229" on="1"/>
        <pt x="457" y="660" on="1"/>
        <pt x="507" y="660" on="1"/>
      </contour>
      <contour>
        <pt x="154" y="275" on="1"/>
        <pt x="104" y="275" on="1"/>
        <pt x="104" y="660" on="1"/>
        <pt x="154" y="660" on="1"/>
      </contour>
    </TTGlyph>
    <TTGlyph name="Iacute" xMin="104" yMin="0" xMax="229" yMax="897">
      <component glyphName="I" x="0" y="0" flags="0x0"/>
      <component glyphName="acutecomb.cap" x="129" y="0" flags="0x0"/>
    </TTGlyph>
    <TTGlyph name="Iacute_J.loclNLD" xMin="104" yMin="-10" xMax="770" yMax="897">
      <component glyphName="I" x="0" y="0" flags="0x0"/>
      <component glyphName="acutecomb.cap" x="129" y="0" flags="0x0"/>
      <component glyphName="J" x="258" y="0" flags="0x0"/>
      <component glyphName="acutecomb.cap" x="670" y="0" flags="0x0"/>
    </TTGlyph>
    <TTGlyph name="Iacute_J.loclNLD.ss05" xMin="96" yMin="-10" xMax="579" yMax="897">
      <component glyphName="acutecomb.cap" x="479" y="0" flags="0x0"/>
      <component glyphName="acutecomb.cap" x="121" y="0" flags="0x0"/>
      <component glyphName="IJ.ss05" x="-7" y="0" flags="0x0"/>
    </TTGlyph>
    <TTGlyph name="Icircumflex" xMin="-9" yMin="0" xMax="267" yMax="892">
      <component glyphName="I" x="0" y="0" flags="0x0"/>
      <component glyphName="uni0302.cap" x="129" y="0" flags="0x0"/>
    </TTGlyph>
    <TTGlyph name="Idieresis" xMin="15" yMin="0" xMax="243" yMax="831">
      <contour>
        <pt x="74" y="831" on="0"/>
        <pt x="96" y="808" on="0"/>
        <pt x="96" y="790" on="1"/>
        <pt x="96" y="772" on="0"/>
        <pt x="74" y="750" on="0"/>
        <pt x="55" y="750" on="1"/>
        <pt x="37" y="750" on="0"/>
        <pt x="15" y="772" on="0"/>
        <pt x="15" y="790" on="1"/>
        <pt x="15" y="808" on="0"/>
        <pt x="37" y="831" on="0"/>
        <pt x="55" y="831" on="1"/>
      </contour>
      <contour>
        <pt x="220" y="831" on="0"/>
        <pt x="243" y="808" on="0"/>
        <pt x="243" y="790" on="1"/>
        <pt x="243" y="772" on="0"/>
        <pt x="220" y="750" on="0"/>
        <pt x="202" y="750" on="1"/>
        <pt x="184" y="750" on="0"/>
        <pt x="162" y="772" on="0"/>
        <pt x="162" y="790" on="1"/>
        <pt x="162" y="808" on="0"/>
        <pt x="184" y="831" on="0"/>
        <pt x="202" y="831" on="1"/>
      </contour>
      <contour>
        <pt x="154" y="0" on="1"/>
        <pt x="104" y="0" on="1"/>
        <pt x="104" y="660" on="1"/>
        <pt x="154" y="660" on="1"/>
      </contour>
    </TTGlyph>
    <TTGlyph name="Idotaccent" xMin="87" yMin="0" xMax="171" yMax="841">
      <component glyphName="I" x="0" y="0" flags="0x0"/>
      <component glyphName="dotaccent" x="-133" y="160" flags="0x4"/>
    </TTGlyph>
    <TTGlyph name="Igrave" xMin="29" yMin="0" xMax="154" yMax="897">
      <component glyphName="I" x="0" y="0" flags="0x0"/>
      <component glyphName="gravecomb.cap" x="129" y="0" flags="0x0"/>
    </TTGlyph>
    <TTGlyph name="Imacron" xMin="20" yMin="0" xMax="237" yMax="802">
      <contour>
        <pt x="237" y="760" on="1"/>
        <pt x="20" y="760" on="1"/>
        <pt x="20" y="802" on="1"/>
        <pt x="237" y="802" on="1"/>
      </contour>
      <contour>
        <pt x="154" y="0" on="1"/>
        <pt x="104" y="0" on="1"/>
        <pt x="104" y="660" on="1"/>
        <pt x="154" y="660" on="1"/>
      </contour>
    </TTGlyph>
    <TTGlyph name="Iogonek" xMin="11" yMin="-209" xMax="187" yMax="660">
      <contour>
        <pt x="187" y="-187" on="1"/>
        <pt x="156" y="-209" on="0"/>
        <pt x="112" y="-209" on="1"/>
        <pt x="68" y="-209" on="0"/>
        <pt x="11" y="-160" on="0"/>
        <pt x="11" y="-118" on="1"/>
        <pt x="11" y="-82" on="0"/>
        <pt x="55" y="-23" on="0"/>
        <pt x="104" y="4" on="1"/>
        <pt x="104" y="660" on="1"/>
        <pt x="154" y="660" on="1"/>
        <pt x="154" y="0" on="1"/>
        <pt x="96" y="-33" on="0"/>
        <pt x="52" y="-83" on="0"/>
        <pt x="52" y="-111" on="1"/>
        <pt x="52" y="-140" on="0"/>
        <pt x="87" y="-172" on="0"/>
        <pt x="116" y="-172" on="1"/>
        <pt x="135" y="-172" on="0"/>
        <pt x="161" y="-164" on="0"/>
        <pt x="174" y="-154" on="1"/>
      </contour>
    </TTGlyph>
    <TTGlyph name="J" xMin="36" yMin="-10" xMax="437" yMax="660">
      <contour>
        <pt x="437" y="218" on="1"/>
        <pt x="437" y="111" on="0"/>
        <pt x="327" y="-10" on="0"/>
        <pt x="227" y="-10" on="1"/>
        <pt x="136" y="-10" on="0"/>
        <pt x="36" y="83" on="0"/>
        <pt x="36" y="163" on="1"/>
        <pt x="36" y="189" on="0"/>
        <pt x="40" y="210" on="1"/>
        <pt x="87" y="221" on="1"/>
        <pt x="84" y="197" on="0"/>
        <pt x="84" y="175" on="1"/>
        <pt x="84" y="36" on="0"/>
        <pt x="226" y="36" on="1"/>
        <pt x="310" y="36" on="0"/>
        <pt x="387" y="134" on="0"/>
        <pt x="387" y="229" on="1"/>
        <pt x="387" y="660" on="1"/>
        <pt x="437" y="660" on="1"/>
      </contour>
    </TTGlyph>
    <TTGlyph name="K" xMin="104" yMin="0" xMax="589" yMax="660">
      <contour>
        <pt x="286" y="357" on="1"/>
        <pt x="154" y="222" on="1"/>
        <pt x="154" y="0" on="1"/>
        <pt x="104" y="0" on="1"/>
        <pt x="104" y="660" on="1"/>
        <pt x="154" y="660" on="1"/>
        <pt x="154" y="291" on="1"/>
        <pt x="516" y="660" on="1"/>
        <pt x="582" y="660" on="1"/>
        <pt x="322" y="393" on="1"/>
        <pt x="589" y="0" on="1"/>
        <pt x="528" y="0" on="1"/>
      </contour>
    </TTGlyph>
    <TTGlyph name="Kcommaaccent.sc" xMin="92" yMin="-233" xMax="528" yMax="560">
      <component glyphName="k.sc" x="0" y="0" flags="0x0"/>
      <component glyphName="uni0326" x="307" y="0" flags="0x0"/>
    </TTGlyph>
    <TTGlyph name="L" xMin="104" yMin="0" xMax="550" yMax="660">
      <contour>
        <pt x="550" y="46" on="1"/>
        <pt x="550" y="0" on="1"/>
        <pt x="104" y="0" on="1"/>
        <pt x="104" y="660" on="1"/>
        <pt x="154" y="660" on="1"/>
        <pt x="154" y="46" on="1"/>
      </contour>
    </TTGlyph>
    <TTGlyph name="L.swsh" xMin="104" yMin="0" xMax="602" yMax="660">
      <contour>
        <pt x="522" y="323" on="0"/>
        <pt x="602" y="239" on="0"/>
        <pt x="602" y="169" on="1"/>
        <pt x="602" y="85" on="0"/>
        <pt x="502" y="0" on="0"/>
        <pt x="410" y="0" on="1"/>
        <pt x="104" y="0" on="1"/>
        <pt x="104" y="660" on="1"/>
        <pt x="154" y="660" on="1"/>
        <pt x="154" y="46" on="1"/>
        <pt x="398" y="46" on="1"/>
        <pt x="473" y="46" on="0"/>
        <pt x="552" y="105" on="0"/>
        <pt x="552" y="170" on="1"/>
        <pt x="552" y="224" on="0"/>
        <pt x="491" y="285" on="0"/>
        <pt x="438" y="291" on="1"/>
        <pt x="460" y="330" on="1"/>
      </contour>
    </TTGlyph>
    <TTGlyph name="Lacute" xMin="104" yMin="0" xMax="550" yMax="897">
      <component glyphName="L" x="0" y="0" flags="0x0"/>
      <component glyphName="acutecomb.cap" x="129" y="0" flags="0x0"/>
    </TTGlyph>
    <TTGlyph name="Lacute.swsh" xMin="104" yMin="0" xMax="602" yMax="897">
      <component glyphName="L.swsh" x="0" y="0" flags="0x0"/>
      <component glyphName="acutecomb.cap" x="129" y="0" flags="0x0"/>
    </TTGlyph>
    <TTGlyph name="Lcaron" xMin="104" yMin="0" xMax="550" yMax="700">
      <contour>
        <pt x="295" y="503" on="1"/>
        <pt x="260" y="503" on="1"/>
        <pt x="282" y="700" on="1"/>
        <pt x="331" y="700" on="1"/>
      </contour>
      <contour>
        <pt x="550" y="46" on="1"/>
        <pt x="550" y="0" on="1"/>
        <pt x="104" y="0" on="1"/>
        <pt x="104" y="660" on="1"/>
        <pt x="154" y="660" on="1"/>
        <pt x="154" y="46" on="1"/>
      </contour>
    </TTGlyph>
    <TTGlyph name="Lcaron.swsh" xMin="104" yMin="0" xMax="602" yMax="700">
      <contour>
        <pt x="295" y="503" on="1"/>
        <pt x="260" y="503" on="1"/>
        <pt x="282" y="700" on="1"/>
        <pt x="331" y="700" on="1"/>
      </contour>
      <contour>
        <pt x="522" y="323" on="0"/>
        <pt x="602" y="239" on="0"/>
        <pt x="602" y="169" on="1"/>
        <pt x="602" y="85" on="0"/>
        <pt x="502" y="0" on="0"/>
        <pt x="410" y="0" on="1"/>
        <pt x="104" y="0" on="1"/>
        <pt x="104" y="660" on="1"/>
        <pt x="154" y="660" on="1"/>
        <pt x="154" y="46" on="1"/>
        <pt x="398" y="46" on="1"/>
        <pt x="473" y="46" on="0"/>
        <pt x="552" y="105" on="0"/>
        <pt x="552" y="170" on="1"/>
        <pt x="552" y="224" on="0"/>
        <pt x="491" y="285" on="0"/>
        <pt x="438" y="291" on="1"/>
        <pt x="460" y="330" on="1"/>
      </contour>
    </TTGlyph>
    <TTGlyph name="Lcommaaccent.sc" xMin="92" yMin="-233" xMax="491" yMax="560">
      <component glyphName="l.sc" x="0" y="0" flags="0x0"/>
      <component glyphName="uni0326" x="315" y="0" flags="0x0"/>
    </TTGlyph>
    <TTGlyph name="Lcommaaccent.swsh" xMin="104" yMin="-233" xMax="602" yMax="660">
      <component glyphName="L.swsh" x="0" y="0" flags="0x0"/>
      <component glyphName="uni0326" x="354" y="0" flags="0x0"/>
    </TTGlyph>
    <TTGlyph name="Ldot" xMin="104" yMin="0" xMax="554" yMax="660">
      <component glyphName="L" x="0" y="0" flags="0x0"/>
      <component glyphName="period" x="399" y="302" flags="0x4"/>
    </TTGlyph>
    <TTGlyph name="Lslash" xMin="22" yMin="0" xMax="571" yMax="660">
      <contour>
        <pt x="571" y="46" on="1"/>
        <pt x="571" y="0" on="1"/>
        <pt x="125" y="0" on="1"/>
        <pt x="125" y="265" on="1"/>
        <pt x="22" y="204" on="1"/>
        <pt x="22" y="257" on="1"/>
        <pt x="125" y="318" on="1"/>
        <pt x="125" y="660" on="1"/>
        <pt x="175" y="660" on="1"/>
        <pt x="175" y="348" on="1"/>
        <pt x="366" y="461" on="1"/>
        <pt x="366" y="408" on="1"/>
        <pt x="175" y="295" on="1"/>
        <pt x="175" y="46" on="1"/>
      </contour>
    </TTGlyph>
    <TTGlyph name="Lslash.swsh" xMin="22" yMin="0" xMax="623" yMax="660">
      <contour>
        <pt x="543" y="323" on="0"/>
        <pt x="623" y="239" on="0"/>
        <pt x="623" y="169" on="1"/>
        <pt x="623" y="85" on="0"/>
        <pt x="523" y="0" on="0"/>
        <pt x="431" y="0" on="1"/>
        <pt x="125" y="0" on="1"/>
        <pt x="125" y="265" on="1"/>
        <pt x="22" y="204" on="1"/>
        <pt x="22" y="257" on="1"/>
        <pt x="125" y="318" on="1"/>
        <pt x="125" y="660" on="1"/>
        <pt x="175" y="660" on="1"/>
        <pt x="175" y="348" on="1"/>
        <pt x="366" y="461" on="1"/>
        <pt x="366" y="408" on="1"/>
        <pt x="175" y="295" on="1"/>
        <pt x="175" y="46" on="1"/>
        <pt x="419" y="46" on="1"/>
        <pt x="494" y="46" on="0"/>
        <pt x="573" y="105" on="0"/>
        <pt x="573" y="170" on="1"/>
        <pt x="573" y="224" on="0"/>
        <pt x="512" y="285" on="0"/>
        <pt x="459" y="291" on="1"/>
        <pt x="481" y="330" on="1"/>
      </contour>
    </TTGlyph>
    <TTGlyph name="M" xMin="104" yMin="0" xMax="718" yMax="660">
      <contour>
        <pt x="718" y="0" on="1"/>
        <pt x="670" y="0" on="1"/>
        <pt x="670" y="492" on="1"/>
        <pt x="676" y="612" on="1"/>
        <pt x="675" y="612" on="1"/>
        <pt x="434" y="0" on="1"/>
        <pt x="388" y="0" on="1"/>
        <pt x="147" y="612" on="1"/>
        <pt x="146" y="612" on="1"/>
        <pt x="152" y="492" on="1"/>
        <pt x="152" y="0" on="1"/>
        <pt x="104" y="0" on="1"/>
        <pt x="104" y="660" on="1"/>
        <pt x="179" y="660" on="1"/>
        <pt x="378" y="160" on="1"/>
        <pt x="411" y="59" on="1"/>
        <pt x="412" y="59" on="1"/>
        <pt x="444" y="159" on="1"/>
        <pt x="643" y="660" on="1"/>
        <pt x="718" y="660" on="1"/>
      </contour>
    </TTGlyph>
    <TTGlyph name="M.swsh" xMin="10" yMin="-110" xMax="935" yMax="660">
      <contour>
        <pt x="935" y="660" on="1"/>
        <pt x="935" y="0" on="1"/>
        <pt x="887" y="0" on="1"/>
        <pt x="887" y="492" on="1"/>
        <pt x="892" y="612" on="1"/>
        <pt x="650" y="0" on="1"/>
        <pt x="605" y="0" on="1"/>
        <pt x="364" y="612" on="1"/>
        <pt x="363" y="612" on="1"/>
        <pt x="368" y="492" on="1"/>
        <pt x="368" y="57" on="1"/>
        <pt x="368" y="-17" on="0"/>
        <pt x="277" y="-110" on="0"/>
        <pt x="196" y="-110" on="1"/>
        <pt x="125" y="-110" on="0"/>
        <pt x="45" y="-46" on="0"/>
        <pt x="37" y="14" on="1"/>
        <pt x="74" y="40" on="1"/>
        <pt x="82" y="-15" on="0"/>
        <pt x="141" y="-67" on="0"/>
        <pt x="196" y="-67" on="1"/>
        <pt x="254" y="-67" on="0"/>
        <pt x="320" y="6" on="0"/>
        <pt x="320" y="68" on="1"/>
        <pt x="320" y="619" on="1"/>
        <pt x="214" y="619" on="1"/>
        <pt x="140" y="619" on="0"/>
        <pt x="60" y="555" on="0"/>
        <pt x="60" y="490" on="1"/>
        <pt x="60" y="440" on="0"/>
        <pt x="121" y="374" on="0"/>
        <pt x="173" y="364" on="1"/>
        <pt x="152" y="325" on="1"/>
        <pt x="89" y="336" on="0"/>
        <pt x="10" y="424" on="0"/>
        <pt x="10" y="491" on="1"/>
        <pt x="10" y="572" on="0"/>
        <pt x="111" y="660" on="0"/>
        <pt x="202" y="660" on="1"/>
        <pt x="396" y="660" on="1"/>
        <pt x="595" y="160" on="1"/>
        <pt x="627" y="59" on="1"/>
        <pt x="628" y="59" on="1"/>
        <pt x="661" y="159" on="1"/>
        <pt x="860" y="660" on="1"/>
      </contour>
    </TTGlyph>
    <TTGlyph name="M.swsh.001" xMin="10" yMin="0" xMax="935" yMax="660">
      <contour>
        <pt x="935" y="660" on="1"/>
        <pt x="935" y="0" on="1"/>
        <pt x="887" y="0" on="1"/>
        <pt x="887" y="492" on="1"/>
        <pt x="893" y="612" on="1"/>
        <pt x="892" y="612" on="1"/>
        <pt x="651" y="0" on="1"/>
        <pt x="605" y="0" on="1"/>
        <pt x="364" y="612" on="1"/>
        <pt x="363" y="612" on="1"/>
        <pt x="369" y="492" on="1"/>
        <pt x="369" y="0" on="1"/>
        <pt x="321" y="0" on="1"/>
        <pt x="321" y="619" on="1"/>
        <pt x="214" y="619" on="1"/>
        <pt x="140" y="619" on="0"/>
        <pt x="60" y="555" on="0"/>
        <pt x="60" y="490" on="1"/>
        <pt x="60" y="440" on="0"/>
        <pt x="121" y="374" on="0"/>
        <pt x="173" y="364" on="1"/>
        <pt x="152" y="325" on="1"/>
        <pt x="89" y="336" on="0"/>
        <pt x="10" y="424" on="0"/>
        <pt x="10" y="491" on="1"/>
        <pt x="10" y="572" on="0"/>
        <pt x="111" y="660" on="0"/>
        <pt x="202" y="660" on="1"/>
        <pt x="396" y="660" on="1"/>
        <pt x="595" y="160" on="1"/>
        <pt x="628" y="59" on="1"/>
        <pt x="629" y="59" on="1"/>
        <pt x="661" y="159" on="1"/>
        <pt x="860" y="660" on="1"/>
      </contour>
    </TTGlyph>
    <TTGlyph name="N" xMin="104" yMin="0" xMax="611" yMax="660">
      <contour>
        <pt x="611" y="0" on="1"/>
        <pt x="549" y="0" on="1"/>
        <pt x="199" y="518" on="1"/>
        <pt x="150" y="606" on="1"/>
        <pt x="149" y="606" on="1"/>
        <pt x="152" y="523" on="1"/>
        <pt x="152" y="0" on="1"/>
        <pt x="104" y="0" on="1"/>
        <pt x="104" y="660" on="1"/>
        <pt x="167" y="660" on="1"/>
        <pt x="516" y="143" on="1"/>
        <pt x="566" y="54" on="1"/>
        <pt x="564" y="137" on="1"/>
        <pt x="564" y="660" on="1"/>
        <pt x="611" y="660" on="1"/>
      </contour>
    </TTGlyph>
    <TTGlyph name="N.swsh" xMin="104" yMin="0" xMax="895" yMax="735">
      <contour>
        <pt x="807" y="735" on="0"/>
        <pt x="887" y="671" on="0"/>
        <pt x="895" y="611" on="1"/>
        <pt x="858" y="585" on="1"/>
        <pt x="850" y="640" on="0"/>
        <pt x="791" y="692" on="0"/>
        <pt x="736" y="692" on="1"/>
        <pt x="677" y="692" on="0"/>
        <pt x="611" y="616" on="0"/>
        <pt x="611" y="548" on="1"/>
        <pt x="611" y="0" on="1"/>
        <pt x="549" y="0" on="1"/>
        <pt x="199" y="518" on="1"/>
        <pt x="150" y="606" on="1"/>
        <pt x="149" y="606" on="1"/>
        <pt x="152" y="523" on="1"/>
        <pt x="152" y="0" on="1"/>
        <pt x="104" y="0" on="1"/>
        <pt x="104" y="660" on="1"/>
        <pt x="167" y="660" on="1"/>
        <pt x="516" y="143" on="1"/>
        <pt x="566" y="54" on="1"/>
        <pt x="564" y="137" on="1"/>
        <pt x="564" y="559" on="1"/>
        <pt x="564" y="639" on="0"/>
        <pt x="654" y="735" on="0"/>
        <pt x="736" y="735" on="1"/>
      </contour>
    </TTGlyph>
    <TTGlyph name="Nacute" xMin="104" yMin="0" xMax="611" yMax="897">
      <component glyphName="N" x="0" y="0" flags="0x0"/>
      <component glyphName="acutecomb.cap" x="363" y="0" flags="0x0"/>
    </TTGlyph>
    <TTGlyph name="Nacute.swsh" xMin="104" yMin="0" xMax="895" yMax="897">
      <component glyphName="N.swsh" x="0" y="0" flags="0x0"/>
      <component glyphName="acutecomb.cap" x="363" y="0" flags="0x0"/>
    </TTGlyph>
    <TTGlyph name="Ncaron" xMin="104" yMin="0" xMax="611" yMax="894">
      <component glyphName="N" x="0" y="0" flags="0x0"/>
      <component glyphName="uni030C.cap" x="363" y="0" flags="0x0"/>
    </TTGlyph>
    <TTGlyph name="Ncaron.swsh" xMin="104" yMin="0" xMax="895" yMax="894">
      <component glyphName="N.swsh" x="0" y="0" flags="0x0"/>
      <component glyphName="uni030C.cap" x="363" y="0" flags="0x0"/>
    </TTGlyph>
    <TTGlyph name="Ncommaaccent.sc" xMin="92" yMin="-233" xMax="549" yMax="560">
      <component glyphName="n.sc" x="0" y="0" flags="0x0"/>
      <component glyphName="uni0326" x="332" y="0" flags="0x0"/>
    </TTGlyph>
    <TTGlyph name="Ncommaaccent.swsh" xMin="104" yMin="-233" xMax="895" yMax="735">
      <component glyphName="N.swsh" x="0" y="0" flags="0x0"/>
      <component glyphName="uni0326" x="374" y="0" flags="0x0"/>
    </TTGlyph>
    <TTGlyph name="Ntilde" xMin="104" yMin="0" xMax="611" yMax="861">
      <component glyphName="N" x="0" y="0" flags="0x0"/>
      <component glyphName="tilde" x="112" y="160" flags="0x4"/>
    </TTGlyph>
    <TTGlyph name="Ntilde.swsh" xMin="104" yMin="0" xMax="895" yMax="861">
      <component glyphName="N.swsh" x="0" y="0" flags="0x0"/>
      <component glyphName="tilde" x="112" y="160" flags="0x4"/>
    </TTGlyph>
    <TTGlyph name="O" xMin="62" yMin="-10" xMax="670" yMax="670">
      <contour>
        <pt x="459" y="670" on="0"/>
        <pt x="596" y="587" on="0"/>
        <pt x="670" y="434" on="0"/>
        <pt x="670" y="330" on="1"/>
        <pt x="670" y="226" on="0"/>
        <pt x="596" y="73" on="0"/>
        <pt x="459" y="-10" on="0"/>
        <pt x="366" y="-10" on="1"/>
        <pt x="273" y="-10" on="0"/>
        <pt x="136" y="73" on="0"/>
        <pt x="62" y="226" on="0"/>
        <pt x="62" y="330" on="1"/>
        <pt x="62" y="434" on="0"/>
        <pt x="136" y="587" on="0"/>
        <pt x="273" y="670" on="0"/>
        <pt x="366" y="670" on="1"/>
      </contour>
      <contour>
        <pt x="289" y="624" on="0"/>
        <pt x="176" y="553" on="0"/>
        <pt x="115" y="420" on="0"/>
        <pt x="115" y="330" on="1"/>
        <pt x="115" y="240" on="0"/>
        <pt x="176" y="107" on="0"/>
        <pt x="289" y="36" on="0"/>
        <pt x="366" y="36" on="1"/>
        <pt x="443" y="36" on="0"/>
        <pt x="557" y="107" on="0"/>
        <pt x="618" y="240" on="0"/>
        <pt x="618" y="330" on="1"/>
        <pt x="618" y="420" on="0"/>
        <pt x="557" y="553" on="0"/>
        <pt x="443" y="624" on="0"/>
        <pt x="366" y="624" on="1"/>
      </contour>
    </TTGlyph>
    <TTGlyph name="OE" xMin="62" yMin="-10" xMax="1024" yMax="670">
      <contour>
        <pt x="1024" y="46" on="1"/>
        <pt x="1024" y="0" on="1"/>
        <pt x="589" y="0" on="1"/>
        <pt x="589" y="127" on="1"/>
        <pt x="556" y="60" on="0"/>
        <pt x="438" y="-10" on="0"/>
        <pt x="356" y="-10" on="1"/>
        <pt x="267" y="-10" on="0"/>
        <pt x="134" y="73" on="0"/>
        <pt x="62" y="226" on="0"/>
        <pt x="62" y="330" on="1"/>
        <pt x="62" y="434" on="0"/>
        <pt x="134" y="587" on="0"/>
        <pt x="267" y="670" on="0"/>
        <pt x="358" y="670" on="1"/>
        <pt x="439" y="670" on="0"/>
        <pt x="556" y="601" on="0"/>
        <pt x="589" y="534" on="1"/>
        <pt x="589" y="660" on="1"/>
        <pt x="1008" y="660" on="1"/>
        <pt x="1008" y="614" on="1"/>
        <pt x="635" y="614" on="1"/>
        <pt x="635" y="359" on="1"/>
        <pt x="929" y="359" on="1"/>
        <pt x="929" y="312" on="1"/>
        <pt x="635" y="312" on="1"/>
        <pt x="635" y="46" on="1"/>
      </contour>
      <contour>
        <pt x="471" y="36" on="0"/>
        <pt x="589" y="187" on="0"/>
        <pt x="589" y="330" on="1"/>
        <pt x="589" y="473" on="0"/>
        <pt x="471" y="624" on="0"/>
        <pt x="358" y="624" on="1"/>
        <pt x="283" y="624" on="0"/>
        <pt x="174" y="553" on="0"/>
        <pt x="115" y="420" on="0"/>
        <pt x="115" y="330" on="1"/>
        <pt x="115" y="240" on="0"/>
        <pt x="174" y="107" on="0"/>
        <pt x="283" y="36" on="0"/>
        <pt x="358" y="36" on="1"/>
      </contour>
    </TTGlyph>
    <TTGlyph name="Oacute" xMin="62" yMin="-10" xMax="670" yMax="897">
      <component glyphName="O" x="0" y="0" flags="0x0"/>
      <component glyphName="acutecomb.cap" x="366" y="0" flags="0x0"/>
    </TTGlyph>
    <TTGlyph name="Ocircumflex" xMin="62" yMin="-10" xMax="670" yMax="892">
      <component glyphName="O" x="0" y="0" flags="0x0"/>
      <component glyphName="uni0302.cap" x="366" y="0" flags="0x0"/>
    </TTGlyph>
    <TTGlyph name="Odieresis" xMin="62" yMin="-10" xMax="670" yMax="831">
      <component glyphName="O" x="0" y="0" flags="0x0"/>
      <component glyphName="dieresis" x="102" y="160" flags="0x4"/>
    </TTGlyph>
    <TTGlyph name="Odieresis.titl" xMin="63" yMin="-10" xMax="670" yMax="670">
      <contour>
        <pt x="459" y="670" on="0"/>
        <pt x="596" y="587" on="0"/>
        <pt x="670" y="434" on="0"/>
        <pt x="670" y="330" on="1"/>
        <pt x="670" y="226" on="0"/>
        <pt x="596" y="73" on="0"/>
        <pt x="459" y="-10" on="0"/>
        <pt x="366" y="-10" on="1"/>
        <pt x="273" y="-10" on="0"/>
        <pt x="136" y="73" on="0"/>
        <pt x="63" y="226" on="0"/>
        <pt x="63" y="330" on="1"/>
        <pt x="63" y="434" on="0"/>
        <pt x="136" y="587" on="0"/>
        <pt x="273" y="670" on="0"/>
        <pt x="366" y="670" on="1"/>
      </contour>
      <contour>
        <pt x="289" y="624" on="0"/>
        <pt x="175" y="553" on="0"/>
        <pt x="114" y="420" on="0"/>
        <pt x="114" y="330" on="1"/>
        <pt x="114" y="240" on="0"/>
        <pt x="175" y="107" on="0"/>
        <pt x="289" y="36" on="0"/>
        <pt x="366" y="36" on="1"/>
        <pt x="443" y="36" on="0"/>
        <pt x="556" y="107" on="0"/>
        <pt x="617" y="240" on="0"/>
        <pt x="617" y="330" on="1"/>
        <pt x="617" y="420" on="0"/>
        <pt x="556" y="553" on="0"/>
        <pt x="443" y="624" on="0"/>
        <pt x="366" y="624" on="1"/>
      </contour>
      <contour>
        <pt x="318" y="583" on="0"/>
        <pt x="341" y="562" on="0"/>
        <pt x="341" y="545" on="1"/>
        <pt x="341" y="527" on="0"/>
        <pt x="318" y="505" on="0"/>
        <pt x="301" y="505" on="1"/>
        <pt x="283" y="505" on="0"/>
        <pt x="262" y="527" on="0"/>
        <pt x="262" y="545" on="1"/>
        <pt x="262" y="562" on="0"/>
        <pt x="283" y="583" on="0"/>
        <pt x="301" y="583" on="1"/>
      </contour>
      <contour>
        <pt x="449" y="583" on="0"/>
        <pt x="471" y="562" on="0"/>
        <pt x="471" y="545" on="1"/>
        <pt x="471" y="527" on="0"/>
        <pt x="449" y="505" on="0"/>
        <pt x="432" y="505" on="1"/>
        <pt x="414" y="505" on="0"/>
        <pt x="393" y="527" on="0"/>
        <pt x="393" y="545" on="1"/>
        <pt x="393" y="562" on="0"/>
        <pt x="414" y="583" on="0"/>
        <pt x="432" y="583" on="1"/>
      </contour>
    </TTGlyph>
    <TTGlyph name="Ograve" xMin="62" yMin="-10" xMax="670" yMax="897">
      <component glyphName="O" x="0" y="0" flags="0x0"/>
      <component glyphName="gravecomb.cap" x="366" y="0" flags="0x0"/>
    </TTGlyph>
    <TTGlyph name="Ohungarumlaut" xMin="62" yMin="-10" xMax="670" yMax="897">
      <component glyphName="O" x="0" y="0" flags="0x0"/>
      <component glyphName="acutecomb.cap" x="441" y="0" flags="0x0"/>
      <component glyphName="acutecomb.cap" x="292" y="0" flags="0x0"/>
    </TTGlyph>
    <TTGlyph name="Oinferior" xMin="36" yMin="-195" xMax="414" yMax="213">
      <component glyphName="Osuperior" x="0" y="-522" flags="0x4"/>
    </TTGlyph>
    <TTGlyph name="Omacron" xMin="62" yMin="-10" xMax="670" yMax="802">
      <component glyphName="O" x="0" y="0" flags="0x0"/>
      <component glyphName="macron" x="104" y="160" flags="0x4"/>
    </TTGlyph>
    <TTGlyph name="Oslash" xMin="62" yMin="-34" xMax="670" yMax="686">
      <contour>
        <pt x="622" y="545" on="0"/>
        <pt x="670" y="413" on="0"/>
        <pt x="670" y="330" on="1"/>
        <pt x="670" y="226" on="0"/>
        <pt x="596" y="73" on="0"/>
        <pt x="459" y="-10" on="0"/>
        <pt x="366" y="-10" on="1"/>
        <pt x="261" y="-10" on="0"/>
        <pt x="188" y="42" on="1"/>
        <pt x="134" y="-34" on="1"/>
        <pt x="87" y="-34" on="1"/>
        <pt x="158" y="67" on="1"/>
        <pt x="112" y="112" on="0"/>
        <pt x="62" y="246" on="0"/>
        <pt x="62" y="330" on="1"/>
        <pt x="62" y="434" on="0"/>
        <pt x="136" y="587" on="0"/>
        <pt x="273" y="670" on="0"/>
        <pt x="366" y="670" on="1"/>
        <pt x="473" y="670" on="0"/>
        <pt x="548" y="615" on="1"/>
        <pt x="598" y="686" on="1"/>
        <pt x="646" y="686" on="1"/>
        <pt x="577" y="590" on="1"/>
      </contour>
      <contour>
        <pt x="115" y="259" on="0"/>
        <pt x="152" y="147" on="0"/>
        <pt x="188" y="108" on="1"/>
        <pt x="519" y="575" on="1"/>
        <pt x="456" y="624" on="0"/>
        <pt x="366" y="624" on="1"/>
        <pt x="289" y="624" on="0"/>
        <pt x="176" y="553" on="0"/>
        <pt x="115" y="420" on="0"/>
        <pt x="115" y="330" on="1"/>
      </contour>
      <contour>
        <pt x="443" y="36" on="0"/>
        <pt x="557" y="107" on="0"/>
        <pt x="618" y="240" on="0"/>
        <pt x="618" y="330" on="1"/>
        <pt x="618" y="469" on="0"/>
        <pt x="547" y="548" on="1"/>
        <pt x="216" y="83" on="1"/>
        <pt x="277" y="36" on="0"/>
        <pt x="366" y="36" on="1"/>
      </contour>
    </TTGlyph>
    <TTGlyph name="Osuperior" xMin="36" yMin="327" xMax="414" yMax="735">
      <contour>
        <pt x="313" y="735" on="0"/>
        <pt x="414" y="626" on="0"/>
        <pt x="414" y="531" on="1"/>
        <pt x="414" y="436" on="0"/>
        <pt x="313" y="327" on="0"/>
        <pt x="225" y="327" on="1"/>
        <pt x="137" y="327" on="0"/>
        <pt x="36" y="436" on="0"/>
        <pt x="36" y="531" on="1"/>
        <pt x="36" y="626" on="0"/>
        <pt x="137" y="735" on="0"/>
        <pt x="225" y="735" on="1"/>
      </contour>
      <contour>
        <pt x="159" y="698" on="0"/>
        <pt x="81" y="609" on="0"/>
        <pt x="81" y="531" on="1"/>
        <pt x="81" y="453" on="0"/>
        <pt x="159" y="364" on="0"/>
        <pt x="225" y="364" on="1"/>
        <pt x="291" y="364" on="0"/>
        <pt x="369" y="453" on="0"/>
        <pt x="369" y="531" on="1"/>
        <pt x="369" y="609" on="0"/>
        <pt x="291" y="698" on="0"/>
        <pt x="225" y="698" on="1"/>
      </contour>
    </TTGlyph>
    <TTGlyph name="Otilde" xMin="62" yMin="-10" xMax="670" yMax="861">
      <component glyphName="O" x="0" y="0" flags="0x0"/>
      <component glyphName="tilde" x="115" y="160" flags="0x4"/>
    </TTGlyph>
    <TTGlyph name="P" xMin="104" yMin="0" xMax="547" yMax="660">
      <contour>
        <pt x="426" y="660" on="0"/>
        <pt x="547" y="557" on="0"/>
        <pt x="547" y="467" on="1"/>
        <pt x="547" y="377" on="0"/>
        <pt x="426" y="273" on="0"/>
        <pt x="323" y="273" on="1"/>
        <pt x="154" y="273" on="1"/>
        <pt x="154" y="0" on="1"/>
        <pt x="104" y="0" on="1"/>
        <pt x="104" y="660" on="1"/>
        <pt x="323" y="660" on="1"/>
      </contour>
      <contour>
        <pt x="403" y="320" on="0"/>
        <pt x="494" y="396" on="0"/>
        <pt x="494" y="467" on="1"/>
        <pt x="494" y="537" on="0"/>
        <pt x="403" y="614" on="0"/>
        <pt x="317" y="614" on="1"/>
        <pt x="154" y="614" on="1"/>
        <pt x="154" y="320" on="1"/>
        <pt x="317" y="320" on="1"/>
      </contour>
    </TTGlyph>
    <TTGlyph name="Q" xMin="62" yMin="-195" xMax="670" yMax="670">
      <contour>
        <pt x="570" y="-145" on="0"/>
        <pt x="629" y="-126" on="0"/>
        <pt x="647" y="-108" on="1"/>
        <pt x="665" y="-154" on="1"/>
        <pt x="644" y="-173" on="0"/>
        <pt x="573" y="-195" on="0"/>
        <pt x="535" y="-195" on="1"/>
        <pt x="455" y="-195" on="0"/>
        <pt x="352" y="-103" on="0"/>
        <pt x="346" y="-9" on="1"/>
        <pt x="259" y="-5" on="0"/>
        <pt x="131" y="80" on="0"/>
        <pt x="62" y="230" on="0"/>
        <pt x="62" y="330" on="1"/>
        <pt x="62" y="434" on="0"/>
        <pt x="136" y="587" on="0"/>
        <pt x="273" y="670" on="0"/>
        <pt x="366" y="670" on="1"/>
        <pt x="459" y="670" on="0"/>
        <pt x="596" y="587" on="0"/>
        <pt x="670" y="434" on="0"/>
        <pt x="670" y="330" on="1"/>
        <pt x="670" y="231" on="0"/>
        <pt x="602" y="82" on="0"/>
        <pt x="477" y="-4" on="0"/>
        <pt x="391" y="-9" on="1"/>
        <pt x="402" y="-145" on="0"/>
        <pt x="536" y="-145" on="1"/>
      </contour>
      <contour>
        <pt x="115" y="240" on="0"/>
        <pt x="176" y="107" on="0"/>
        <pt x="289" y="36" on="0"/>
        <pt x="366" y="36" on="1"/>
        <pt x="443" y="36" on="0"/>
        <pt x="557" y="107" on="0"/>
        <pt x="618" y="240" on="0"/>
        <pt x="618" y="330" on="1"/>
        <pt x="618" y="420" on="0"/>
        <pt x="557" y="553" on="0"/>
        <pt x="443" y="624" on="0"/>
        <pt x="366" y="624" on="1"/>
        <pt x="289" y="624" on="0"/>
        <pt x="176" y="553" on="0"/>
        <pt x="115" y="420" on="0"/>
        <pt x="115" y="330" on="1"/>
      </contour>
    </TTGlyph>
    <TTGlyph name="R" xMin="104" yMin="0" xMax="600" yMax="660">
      <contour>
        <pt x="541" y="0" on="1"/>
        <pt x="352" y="286" on="1"/>
        <pt x="349" y="286" on="1"/>
        <pt x="154" y="286" on="1"/>
        <pt x="154" y="0" on="1"/>
        <pt x="104" y="0" on="1"/>
        <pt x="104" y="660" on="1"/>
        <pt x="349" y="660" on="1"/>
        <pt x="448" y="660" on="0"/>
        <pt x="565" y="560" on="0"/>
        <pt x="565" y="473" on="1"/>
        <pt x="565" y="401" on="0"/>
        <pt x="481" y="305" on="0"/>
        <pt x="408" y="291" on="1"/>
        <pt x="600" y="0" on="1"/>
      </contour>
      <contour>
        <pt x="154" y="333" on="1"/>
        <pt x="348" y="333" on="1"/>
        <pt x="428" y="333" on="0"/>
        <pt x="513" y="405" on="0"/>
        <pt x="513" y="473" on="1"/>
        <pt x="513" y="541" on="0"/>
        <pt x="428" y="614" on="0"/>
        <pt x="348" y="614" on="1"/>
        <pt x="154" y="614" on="1"/>
      </contour>
    </TTGlyph>
    <TTGlyph name="R.ss03" xMin="104" yMin="0" xMax="575" yMax="660">
      <contour>
        <pt x="104" y="660" on="1"/>
        <pt x="349" y="660" on="1"/>
        <pt x="448" y="660" on="0"/>
        <pt x="565" y="560" on="0"/>
        <pt x="565" y="473" on="1"/>
        <pt x="565" y="405" on="0"/>
        <pt x="489" y="318" on="0"/>
        <pt x="422" y="304" on="1"/>
        <pt x="422" y="303" on="1"/>
        <pt x="482" y="293" on="0"/>
        <pt x="544" y="221" on="0"/>
        <pt x="546" y="162" on="1"/>
        <pt x="550" y="77" on="0"/>
        <pt x="564" y="20" on="0"/>
        <pt x="575" y="3" on="1"/>
        <pt x="575" y="0" on="1"/>
        <pt x="521" y="0" on="1"/>
        <pt x="512" y="19" on="0"/>
        <pt x="500" y="85" on="0"/>
        <pt x="497" y="156" on="1"/>
        <pt x="492" y="286" on="0"/>
        <pt x="339" y="286" on="1"/>
        <pt x="154" y="286" on="1"/>
        <pt x="154" y="0" on="1"/>
        <pt x="104" y="0" on="1"/>
      </contour>
      <contour>
        <pt x="348" y="333" on="1"/>
        <pt x="428" y="333" on="0"/>
        <pt x="513" y="405" on="0"/>
        <pt x="513" y="473" on="1"/>
        <pt x="513" y="541" on="0"/>
        <pt x="428" y="614" on="0"/>
        <pt x="348" y="614" on="1"/>
        <pt x="154" y="614" on="1"/>
        <pt x="154" y="333" on="1"/>
      </contour>
    </TTGlyph>
    <TTGlyph name="R.swsh" xMin="10" yMin="-110" xMax="817" yMax="660">
      <contour>
        <pt x="758" y="0" on="1"/>
        <pt x="569" y="286" on="1"/>
        <pt x="565" y="286" on="1"/>
        <pt x="370" y="286" on="1"/>
        <pt x="370" y="57" on="1"/>
        <pt x="370" y="-17" on="0"/>
        <pt x="278" y="-110" on="0"/>
        <pt x="196" y="-110" on="1"/>
        <pt x="123" y="-110" on="0"/>
        <pt x="42" y="-39" on="0"/>
        <pt x="37" y="23" on="1"/>
        <pt x="74" y="49" on="1"/>
        <pt x="83" y="-67" on="0"/>
        <pt x="196" y="-67" on="1"/>
        <pt x="254" y="-67" on="0"/>
        <pt x="320" y="6" on="0"/>
        <pt x="320" y="68" on="1"/>
        <pt x="320" y="619" on="1"/>
        <pt x="213" y="619" on="1"/>
        <pt x="139" y="619" on="0"/>
        <pt x="60" y="555" on="0"/>
        <pt x="60" y="490" on="1"/>
        <pt x="60" y="439" on="0"/>
        <pt x="121" y="374" on="0"/>
        <pt x="173" y="364" on="1"/>
        <pt x="152" y="325" on="1"/>
        <pt x="89" y="336" on="0"/>
        <pt x="10" y="424" on="0"/>
        <pt x="10" y="491" on="1"/>
        <pt x="10" y="572" on="0"/>
        <pt x="111" y="660" on="0"/>
        <pt x="202" y="660" on="1"/>
        <pt x="565" y="660" on="1"/>
        <pt x="664" y="660" on="0"/>
        <pt x="782" y="560" on="0"/>
        <pt x="782" y="473" on="1"/>
        <pt x="782" y="401" on="0"/>
        <pt x="698" y="305" on="0"/>
        <pt x="625" y="291" on="1"/>
        <pt x="817" y="0" on="1"/>
      </contour>
      <contour>
        <pt x="370" y="333" on="1"/>
        <pt x="565" y="333" on="1"/>
        <pt x="645" y="333" on="0"/>
        <pt x="730" y="405" on="0"/>
        <pt x="730" y="473" on="1"/>
        <pt x="730" y="541" on="0"/>
        <pt x="645" y="614" on="0"/>
        <pt x="565" y="614" on="1"/>
        <pt x="370" y="614" on="1"/>
      </contour>
    </TTGlyph>
    <TTGlyph name="R.swsh.001" xMin="104" yMin="-94" xMax="675" yMax="660">
      <contour>
        <pt x="571" y="8" on="0"/>
        <pt x="642" y="-50" on="0"/>
        <pt x="675" y="-60" on="1"/>
        <pt x="649" y="-94" on="1"/>
        <pt x="591" y="-69" on="0"/>
        <pt x="530" y="-16" on="0"/>
        <pt x="503" y="23" on="1"/>
        <pt x="321" y="286" on="1"/>
        <pt x="154" y="286" on="1"/>
        <pt x="154" y="0" on="1"/>
        <pt x="104" y="0" on="1"/>
        <pt x="104" y="660" on="1"/>
        <pt x="349" y="660" on="1"/>
        <pt x="448" y="660" on="0"/>
        <pt x="565" y="560" on="0"/>
        <pt x="565" y="473" on="1"/>
        <pt x="565" y="393" on="0"/>
        <pt x="464" y="294" on="0"/>
        <pt x="376" y="287" on="1"/>
        <pt x="550" y="37" on="1"/>
      </contour>
      <contour>
        <pt x="154" y="333" on="1"/>
        <pt x="348" y="333" on="1"/>
        <pt x="428" y="333" on="0"/>
        <pt x="513" y="405" on="0"/>
        <pt x="513" y="473" on="1"/>
        <pt x="513" y="541" on="0"/>
        <pt x="428" y="614" on="0"/>
        <pt x="348" y="614" on="1"/>
        <pt x="154" y="614" on="1"/>
      </contour>
    </TTGlyph>
    <TTGlyph name="Racute" xMin="104" yMin="0" xMax="600" yMax="897">
      <component glyphName="R" x="0" y="0" flags="0x0"/>
      <component glyphName="acutecomb.cap" x="308" y="0" flags="0x0"/>
    </TTGlyph>
    <TTGlyph name="Racute.ss03" xMin="104" yMin="0" xMax="575" yMax="897">
      <component glyphName="R.ss03" x="0" y="0" flags="0x0"/>
      <component glyphName="acutecomb.cap" x="308" y="0" flags="0x0"/>
    </TTGlyph>
    <TTGlyph name="Racute.swsh" xMin="10" yMin="-110" xMax="817" yMax="897">
      <component glyphName="R.swsh" x="0" y="0" flags="0x0"/>
      <component glyphName="acutecomb.cap" x="525" y="0" flags="0x0"/>
    </TTGlyph>
    <TTGlyph name="Racute.swsh.001" xMin="104" yMin="-94" xMax="675" yMax="897">
      <component glyphName="R.swsh.001" x="0" y="0" flags="0x0"/>
      <component glyphName="acutecomb.cap" x="308" y="0" flags="0x0"/>
    </TTGlyph>
    <TTGlyph name="Rcaron" xMin="104" yMin="0" xMax="600" yMax="894">
      <component glyphName="R" x="0" y="0" flags="0x0"/>
      <component glyphName="uni030C.cap" x="308" y="0" flags="0x0"/>
    </TTGlyph>
    <TTGlyph name="Rcaron.ss03" xMin="104" yMin="0" xMax="575" yMax="894">
      <component glyphName="R.ss03" x="0" y="0" flags="0x0"/>
      <component glyphName="uni030C.cap" x="308" y="0" flags="0x0"/>
    </TTGlyph>
    <TTGlyph name="Rcaron.swsh" xMin="10" yMin="-110" xMax="817" yMax="894">
      <component glyphName="R.swsh" x="0" y="0" flags="0x0"/>
      <component glyphName="uni030C.cap" x="525" y="0" flags="0x0"/>
    </TTGlyph>
    <TTGlyph name="Rcaron.swsh.001" xMin="104" yMin="-94" xMax="675" yMax="894">
      <component glyphName="R.swsh.001" x="0" y="0" flags="0x0"/>
      <component glyphName="uni030C.cap" x="308" y="0" flags="0x0"/>
    </TTGlyph>
    <TTGlyph name="Rcommaaccent.sc" xMin="92" yMin="-233" xMax="539" yMax="560">
      <component glyphName="r.sc" x="0" y="0" flags="0x0"/>
      <component glyphName="uni0326" x="319" y="0" flags="0x0"/>
    </TTGlyph>
    <TTGlyph name="Rcommaaccent.sc.ss03" xMin="92" yMin="-233" xMax="517" yMax="560">
      <component glyphName="r.sc.ss03" x="0" y="0" flags="0x0"/>
      <component glyphName="uni0326" x="314" y="0" flags="0x0"/>
    </TTGlyph>
    <TTGlyph name="Rcommaaccent.ss03" xMin="104" yMin="-233" xMax="575" yMax="660">
      <component glyphName="R.ss03" x="0" y="0" flags="0x0"/>
      <component glyphName="uni0326" x="356" y="0" flags="0x0"/>
    </TTGlyph>
    <TTGlyph name="Rcommaaccent.swsh" xMin="10" yMin="-233" xMax="817" yMax="660">
      <component glyphName="R.swsh" x="0" y="0" flags="0x0"/>
      <component glyphName="uni0326" x="573" y="0" flags="0x0"/>
    </TTGlyph>
    <TTGlyph name="Rcommaaccent.swsh.001" xMin="104" yMin="-233" xMax="675" yMax="660">
      <component glyphName="R.swsh.001" x="0" y="0" flags="0x0"/>
      <component glyphName="uni0326" x="356" y="0" flags="0x0"/>
    </TTGlyph>
    <TTGlyph name="S" xMin="45" yMin="-10" xMax="566" yMax="670">
      <contour>
        <pt x="494" y="670" on="0"/>
        <pt x="557" y="524" on="1"/>
        <pt x="514" y="489" on="1"/>
        <pt x="489" y="560" on="0"/>
        <pt x="390" y="624" on="0"/>
        <pt x="309" y="624" on="1"/>
        <pt x="251" y="624" on="0"/>
        <pt x="165" y="588" on="0"/>
        <pt x="120" y="526" on="0"/>
        <pt x="120" y="487" on="1"/>
        <pt x="120" y="449" on="0"/>
        <pt x="158" y="399" on="0"/>
        <pt x="249" y="364" on="0"/>
        <pt x="329" y="350" on="1"/>
        <pt x="458" y="328" on="0"/>
        <pt x="566" y="244" on="0"/>
        <pt x="566" y="170" on="1"/>
        <pt x="566" y="117" on="0"/>
        <pt x="504" y="35" on="0"/>
        <pt x="391" y="-10" on="0"/>
        <pt x="318" y="-10" on="1"/>
        <pt x="214" y="-10" on="0"/>
        <pt x="71" y="73" on="0"/>
        <pt x="45" y="148" on="1"/>
        <pt x="89" y="182" on="1"/>
        <pt x="109" y="111" on="0"/>
        <pt x="230" y="36" on="0"/>
        <pt x="319" y="36" on="1"/>
        <pt x="405" y="36" on="0"/>
        <pt x="514" y="106" on="0"/>
        <pt x="514" y="167" on="1"/>
        <pt x="514" y="220" on="0"/>
        <pt x="425" y="282" on="0"/>
        <pt x="315" y="301" on="1"/>
        <pt x="222" y="317" on="0"/>
        <pt x="114" y="363" on="0"/>
        <pt x="67" y="431" on="0"/>
        <pt x="67" y="482" on="1"/>
        <pt x="67" y="533" on="0"/>
        <pt x="126" y="619" on="0"/>
        <pt x="235" y="670" on="0"/>
        <pt x="308" y="670" on="1"/>
      </contour>
    </TTGlyph>
    <TTGlyph name="S.swsh" xMin="70" yMin="-110" xMax="568" yMax="670">
      <contour>
        <pt x="200" y="-110" on="0"/>
        <pt x="70" y="-17" on="0"/>
        <pt x="70" y="68" on="1"/>
        <pt x="70" y="91" on="0"/>
        <pt x="76" y="119" on="1"/>
        <pt x="123" y="133" on="1"/>
        <pt x="117" y="106" on="0"/>
        <pt x="117" y="81" on="1"/>
        <pt x="117" y="10" on="0"/>
        <pt x="220" y="-64" on="0"/>
        <pt x="320" y="-64" on="1"/>
        <pt x="414" y="-64" on="0"/>
        <pt x="516" y="17" on="0"/>
        <pt x="516" y="91" on="1"/>
        <pt x="516" y="129" on="0"/>
        <pt x="479" y="185" on="0"/>
        <pt x="393" y="230" on="0"/>
        <pt x="318" y="252" on="1"/>
        <pt x="190" y="288" on="0"/>
        <pt x="84" y="384" on="0"/>
        <pt x="84" y="460" on="1"/>
        <pt x="84" y="556" on="0"/>
        <pt x="211" y="670" on="0"/>
        <pt x="318" y="670" on="1"/>
        <pt x="429" y="670" on="0"/>
        <pt x="548" y="572" on="0"/>
        <pt x="550" y="478" on="1"/>
        <pt x="501" y="459" on="1"/>
        <pt x="503" y="543" on="0"/>
        <pt x="414" y="624" on="0"/>
        <pt x="319" y="624" on="1"/>
        <pt x="233" y="624" on="0"/>
        <pt x="136" y="540" on="0"/>
        <pt x="136" y="465" on="1"/>
        <pt x="136" y="425" on="0"/>
        <pt x="174" y="366" on="0"/>
        <pt x="263" y="319" on="0"/>
        <pt x="340" y="296" on="1"/>
        <pt x="426" y="271" on="0"/>
        <pt x="525" y="215" on="0"/>
        <pt x="568" y="144" on="0"/>
        <pt x="568" y="93" on="1"/>
        <pt x="568" y="32" on="0"/>
        <pt x="506" y="-60" on="0"/>
        <pt x="393" y="-110" on="0"/>
        <pt x="318" y="-110" on="1"/>
      </contour>
    </TTGlyph>
    <TTGlyph name="Sacute" xMin="45" yMin="-10" xMax="566" yMax="897">
      <component glyphName="S" x="0" y="0" flags="0x0"/>
      <component glyphName="acutecomb.cap" x="309" y="0" flags="0x0"/>
    </TTGlyph>
    <TTGlyph name="Sacute.swsh" xMin="70" yMin="-110" xMax="568" yMax="897">
      <component glyphName="S.swsh" x="0" y="0" flags="0x0"/>
      <component glyphName="acutecomb.cap" x="309" y="0" flags="0x0"/>
    </TTGlyph>
    <TTGlyph name="Scaron" xMin="45" yMin="-10" xMax="566" yMax="894">
      <component glyphName="S" x="0" y="0" flags="0x0"/>
      <component glyphName="uni030C.cap" x="309" y="0" flags="0x0"/>
    </TTGlyph>
    <TTGlyph name="Scaron.swsh" xMin="70" yMin="-110" xMax="568" yMax="894">
      <component glyphName="S.swsh" x="0" y="0" flags="0x0"/>
      <component glyphName="uni030C.cap" x="309" y="0" flags="0x0"/>
    </TTGlyph>
    <TTGlyph name="Scedilla.sc" xMin="42" yMin="-209" xMax="507" yMax="568">
      <contour>
        <pt x="507" y="81" on="0"/>
        <pt x="401" y="-1" on="0"/>
        <pt x="313" y="-7" on="1"/>
        <pt x="380" y="-50" on="0"/>
        <pt x="380" y="-113" on="1"/>
        <pt x="380" y="-154" on="0"/>
        <pt x="324" y="-209" on="0"/>
        <pt x="277" y="-209" on="1"/>
        <pt x="243" y="-209" on="0"/>
        <pt x="194" y="-191" on="0"/>
        <pt x="174" y="-171" on="1"/>
        <pt x="194" y="-136" on="1"/>
        <pt x="223" y="-171" on="0"/>
        <pt x="271" y="-171" on="1"/>
        <pt x="299" y="-171" on="0"/>
        <pt x="336" y="-136" on="0"/>
        <pt x="336" y="-107" on="1"/>
        <pt x="336" y="-77" on="0"/>
        <pt x="299" y="-33" on="0"/>
        <pt x="249" y="-7" on="1"/>
        <pt x="170" y="0" on="0"/>
        <pt x="63" y="67" on="0"/>
        <pt x="42" y="124" on="1"/>
        <pt x="81" y="157" on="1"/>
        <pt x="99" y="97" on="0"/>
        <pt x="206" y="35" on="0"/>
        <pt x="286" y="35" on="1"/>
        <pt x="362" y="35" on="0"/>
        <pt x="457" y="92" on="0"/>
        <pt x="457" y="142" on="1"/>
        <pt x="457" y="178" on="0"/>
        <pt x="409" y="221" on="0"/>
        <pt x="338" y="242" on="0"/>
        <pt x="278" y="253" on="1"/>
        <pt x="207" y="267" on="0"/>
        <pt x="121" y="294" on="0"/>
        <pt x="61" y="355" on="0"/>
        <pt x="61" y="408" on="1"/>
        <pt x="61" y="451" on="0"/>
        <pt x="113" y="525" on="0"/>
        <pt x="212" y="568" on="0"/>
        <pt x="277" y="568" on="1"/>
        <pt x="443" y="568" on="0"/>
        <pt x="500" y="446" on="1"/>
        <pt x="461" y="413" on="1"/>
        <pt x="439" y="472" on="0"/>
        <pt x="350" y="525" on="0"/>
        <pt x="278" y="525" on="1"/>
        <pt x="202" y="525" on="0"/>
        <pt x="111" y="460" on="0"/>
        <pt x="111" y="412" on="1"/>
        <pt x="111" y="376" on="0"/>
        <pt x="159" y="332" on="0"/>
        <pt x="230" y="311" on="0"/>
        <pt x="291" y="299" on="1"/>
        <pt x="362" y="286" on="0"/>
        <pt x="447" y="258" on="0"/>
        <pt x="507" y="198" on="0"/>
        <pt x="507" y="145" on="1"/>
      </contour>
    </TTGlyph>
    <TTGlyph name="Scedilla.swsh" xMin="70" yMin="-309" xMax="568" yMax="670">
      <contour>
        <pt x="568" y="5" on="0"/>
        <pt x="446" y="-104" on="0"/>
        <pt x="341" y="-109" on="1"/>
        <pt x="405" y="-152" on="0"/>
        <pt x="405" y="-213" on="1"/>
        <pt x="405" y="-254" on="0"/>
        <pt x="349" y="-309" on="0"/>
        <pt x="302" y="-309" on="1"/>
        <pt x="268" y="-309" on="0"/>
        <pt x="219" y="-291" on="0"/>
        <pt x="199" y="-271" on="1"/>
        <pt x="219" y="-236" on="1"/>
        <pt x="248" y="-271" on="0"/>
        <pt x="296" y="-271" on="1"/>
        <pt x="324" y="-271" on="0"/>
        <pt x="361" y="-236" on="0"/>
        <pt x="361" y="-207" on="1"/>
        <pt x="361" y="-178" on="0"/>
        <pt x="325" y="-134" on="0"/>
        <pt x="278" y="-108" on="1"/>
        <pt x="178" y="-100" on="0"/>
        <pt x="70" y="-9" on="0"/>
        <pt x="70" y="68" on="1"/>
        <pt x="70" y="91" on="0"/>
        <pt x="76" y="119" on="1"/>
        <pt x="123" y="133" on="1"/>
        <pt x="117" y="106" on="0"/>
        <pt x="117" y="81" on="1"/>
        <pt x="117" y="10" on="0"/>
        <pt x="220" y="-64" on="0"/>
        <pt x="320" y="-64" on="1"/>
        <pt x="414" y="-64" on="0"/>
        <pt x="516" y="17" on="0"/>
        <pt x="516" y="91" on="1"/>
        <pt x="516" y="129" on="0"/>
        <pt x="479" y="185" on="0"/>
        <pt x="393" y="230" on="0"/>
        <pt x="318" y="252" on="1"/>
        <pt x="190" y="288" on="0"/>
        <pt x="84" y="384" on="0"/>
        <pt x="84" y="460" on="1"/>
        <pt x="84" y="556" on="0"/>
        <pt x="211" y="670" on="0"/>
        <pt x="318" y="670" on="1"/>
        <pt x="429" y="670" on="0"/>
        <pt x="548" y="572" on="0"/>
        <pt x="550" y="478" on="1"/>
        <pt x="501" y="459" on="1"/>
        <pt x="503" y="543" on="0"/>
        <pt x="414" y="624" on="0"/>
        <pt x="319" y="624" on="1"/>
        <pt x="233" y="624" on="0"/>
        <pt x="136" y="540" on="0"/>
        <pt x="136" y="465" on="1"/>
        <pt x="136" y="425" on="0"/>
        <pt x="174" y="366" on="0"/>
        <pt x="263" y="319" on="0"/>
        <pt x="340" y="296" on="1"/>
        <pt x="426" y="271" on="0"/>
        <pt x="525" y="215" on="0"/>
        <pt x="568" y="144" on="0"/>
        <pt x="568" y="93" on="1"/>
      </contour>
    </TTGlyph>
    <TTGlyph name="Scommaaccent.sc" xMin="42" yMin="-233" xMax="507" yMax="568">
      <component glyphName="s.sc" x="0" y="0" flags="0x0"/>
      <component glyphName="uni0326" x="300" y="0" flags="0x0"/>
    </TTGlyph>
    <TTGlyph name="Scommaaccent.swsh" xMin="70" yMin="-333" xMax="568" yMax="670">
      <component glyphName="S.swsh" x="0" y="0" flags="0x0"/>
      <component glyphName="uni0326" x="329" y="-100" flags="0x4"/>
    </TTGlyph>
    <TTGlyph name="T" xMin="22" yMin="0" xMax="554" yMax="660">
      <contour>
        <pt x="554" y="614" on="1"/>
        <pt x="313" y="614" on="1"/>
        <pt x="313" y="0" on="1"/>
        <pt x="263" y="0" on="1"/>
        <pt x="263" y="614" on="1"/>
        <pt x="22" y="614" on="1"/>
        <pt x="22" y="660" on="1"/>
        <pt x="554" y="660" on="1"/>
      </contour>
    </TTGlyph>
    <TTGlyph name="T.swsh" xMin="10" yMin="0" xMax="645" yMax="660">
      <contour>
        <pt x="645" y="614" on="1"/>
        <pt x="404" y="614" on="1"/>
        <pt x="404" y="0" on="1"/>
        <pt x="354" y="0" on="1"/>
        <pt x="354" y="614" on="1"/>
        <pt x="214" y="614" on="1"/>
        <pt x="60" y="614" on="0"/>
        <pt x="60" y="490" on="1"/>
        <pt x="60" y="440" on="0"/>
        <pt x="121" y="374" on="0"/>
        <pt x="173" y="364" on="1"/>
        <pt x="152" y="325" on="1"/>
        <pt x="89" y="336" on="0"/>
        <pt x="10" y="424" on="0"/>
        <pt x="10" y="491" on="1"/>
        <pt x="10" y="572" on="0"/>
        <pt x="111" y="660" on="0"/>
        <pt x="202" y="660" on="1"/>
        <pt x="645" y="660" on="1"/>
      </contour>
    </TTGlyph>
    <TTGlyph name="Tcaron" xMin="22" yMin="0" xMax="554" yMax="894">
      <component glyphName="T" x="0" y="0" flags="0x0"/>
      <component glyphName="uni030C.cap" x="288" y="0" flags="0x0"/>
    </TTGlyph>
    <TTGlyph name="Tcaron.swsh" xMin="10" yMin="0" xMax="645" yMax="894">
      <component glyphName="T.swsh" x="0" y="0" flags="0x0"/>
      <component glyphName="uni030C.cap" x="379" y="0" flags="0x0"/>
    </TTGlyph>
    <TTGlyph name="Thorn" xMin="104" yMin="0" xMax="551" yMax="660">
      <contour>
        <pt x="431" y="534" on="0"/>
        <pt x="551" y="434" on="0"/>
        <pt x="551" y="338" on="1"/>
        <pt x="551" y="243" on="0"/>
        <pt x="430" y="143" on="0"/>
        <pt x="312" y="143" on="1"/>
        <pt x="154" y="143" on="1"/>
        <pt x="154" y="0" on="1"/>
        <pt x="104" y="0" on="1"/>
        <pt x="104" y="660" on="1"/>
        <pt x="154" y="660" on="1"/>
        <pt x="154" y="534" on="1"/>
        <pt x="312" y="534" on="1"/>
      </contour>
      <contour>
        <pt x="499" y="189" on="0"/>
        <pt x="499" y="338" on="1"/>
        <pt x="499" y="488" on="0"/>
        <pt x="320" y="488" on="1"/>
        <pt x="154" y="488" on="1"/>
        <pt x="154" y="189" on="1"/>
        <pt x="320" y="189" on="1"/>
      </contour>
    </TTGlyph>
    <TTGlyph name="U" xMin="96" yMin="-10" xMax="605" yMax="660">
      <contour>
        <pt x="605" y="241" on="1"/>
        <pt x="605" y="119" on="0"/>
        <pt x="473" y="-10" on="0"/>
        <pt x="351" y="-10" on="1"/>
        <pt x="229" y="-10" on="0"/>
        <pt x="96" y="119" on="0"/>
        <pt x="96" y="241" on="1"/>
        <pt x="96" y="660" on="1"/>
        <pt x="146" y="660" on="1"/>
        <pt x="146" y="251" on="1"/>
        <pt x="146" y="145" on="0"/>
        <pt x="250" y="36" on="0"/>
        <pt x="351" y="36" on="1"/>
        <pt x="451" y="36" on="0"/>
        <pt x="555" y="145" on="0"/>
        <pt x="555" y="251" on="1"/>
        <pt x="555" y="660" on="1"/>
        <pt x="605" y="660" on="1"/>
      </contour>
    </TTGlyph>
    <TTGlyph name="Uacute" xMin="96" yMin="-10" xMax="605" yMax="897">
      <component glyphName="U" x="0" y="0" flags="0x0"/>
      <component glyphName="acutecomb.cap" x="351" y="0" flags="0x0"/>
    </TTGlyph>
    <TTGlyph name="Ucircumflex" xMin="96" yMin="-10" xMax="605" yMax="892">
      <component glyphName="U" x="0" y="0" flags="0x0"/>
      <component glyphName="uni0302.cap" x="351" y="0" flags="0x0"/>
    </TTGlyph>
    <TTGlyph name="Udieresis" xMin="96" yMin="-10" xMax="605" yMax="831">
      <component glyphName="U" x="0" y="0" flags="0x0"/>
      <component glyphName="dieresis" x="87" y="160" flags="0x4"/>
    </TTGlyph>
    <TTGlyph name="Udieresis.titl" xMin="96" yMin="-10" xMax="605" yMax="662">
      <contour>
        <pt x="260" y="583" on="0"/>
        <pt x="238" y="605" on="0"/>
        <pt x="238" y="623" on="1"/>
        <pt x="238" y="640" on="0"/>
        <pt x="260" y="662" on="0"/>
        <pt x="277" y="662" on="1"/>
        <pt x="294" y="662" on="0"/>
        <pt x="316" y="640" on="0"/>
        <pt x="316" y="623" on="1"/>
        <pt x="316" y="605" on="0"/>
        <pt x="294" y="583" on="0"/>
        <pt x="277" y="583" on="1"/>
      </contour>
      <contour>
        <pt x="406" y="583" on="0"/>
        <pt x="384" y="605" on="0"/>
        <pt x="384" y="623" on="1"/>
        <pt x="384" y="640" on="0"/>
        <pt x="406" y="662" on="0"/>
        <pt x="424" y="662" on="1"/>
        <pt x="441" y="662" on="0"/>
        <pt x="463" y="640" on="0"/>
        <pt x="463" y="623" on="1"/>
        <pt x="463" y="605" on="0"/>
        <pt x="441" y="583" on="0"/>
        <pt x="424" y="583" on="1"/>
      </contour>
      <contour>
        <pt x="605" y="241" on="1"/>
        <pt x="605" y="119" on="0"/>
        <pt x="473" y="-10" on="0"/>
        <pt x="351" y="-10" on="1"/>
        <pt x="229" y="-10" on="0"/>
        <pt x="96" y="119" on="0"/>
        <pt x="96" y="241" on="1"/>
        <pt x="96" y="660" on="1"/>
        <pt x="146" y="660" on="1"/>
        <pt x="146" y="251" on="1"/>
        <pt x="146" y="145" on="0"/>
        <pt x="250" y="36" on="0"/>
        <pt x="351" y="36" on="1"/>
        <pt x="451" y="36" on="0"/>
        <pt x="555" y="145" on="0"/>
        <pt x="555" y="251" on="1"/>
        <pt x="555" y="660" on="1"/>
        <pt x="605" y="660" on="1"/>
      </contour>
    </TTGlyph>
    <TTGlyph name="Ugrave" xMin="96" yMin="-10" xMax="605" yMax="897">
      <component glyphName="U" x="0" y="0" flags="0x0"/>
      <component glyphName="gravecomb.cap" x="378" y="0" flags="0x0"/>
    </TTGlyph>
    <TTGlyph name="Uhungarumlaut" xMin="96" yMin="-10" xMax="605" yMax="897">
      <component glyphName="U" x="0" y="0" flags="0x0"/>
      <component glyphName="acutecomb.cap" x="426" y="0" flags="0x0"/>
      <component glyphName="acutecomb.cap" x="277" y="0" flags="0x0"/>
    </TTGlyph>
    <TTGlyph name="Umacron" xMin="96" yMin="-10" xMax="605" yMax="802">
      <component glyphName="U" x="0" y="0" flags="0x0"/>
      <component glyphName="macron" x="89" y="160" flags="0x4"/>
    </TTGlyph>
    <TTGlyph name="Uogonek" xMin="96" yMin="-209" xMax="605" yMax="660">
      <contour>
        <pt x="605" y="660" on="1"/>
        <pt x="605" y="241" on="1"/>
        <pt x="605" y="140" on="0"/>
        <pt x="514" y="16" on="0"/>
        <pt x="428" y="-2" on="1"/>
        <pt x="370" y="-30" on="0"/>
        <pt x="322" y="-84" on="0"/>
        <pt x="322" y="-114" on="1"/>
        <pt x="322" y="-142" on="0"/>
        <pt x="360" y="-172" on="0"/>
        <pt x="390" y="-172" on="1"/>
        <pt x="430" y="-172" on="0"/>
        <pt x="452" y="-156" on="1"/>
        <pt x="464" y="-190" on="1"/>
        <pt x="433" y="-209" on="0"/>
        <pt x="385" y="-209" on="1"/>
        <pt x="339" y="-209" on="0"/>
        <pt x="280" y="-161" on="0"/>
        <pt x="280" y="-120" on="1"/>
        <pt x="280" y="-86" on="0"/>
        <pt x="315" y="-34" on="0"/>
        <pt x="352" y="-10" on="1"/>
        <pt x="351" y="-10" on="1"/>
        <pt x="229" y="-10" on="0"/>
        <pt x="96" y="119" on="0"/>
        <pt x="96" y="241" on="1"/>
        <pt x="96" y="660" on="1"/>
        <pt x="146" y="660" on="1"/>
        <pt x="146" y="251" on="1"/>
        <pt x="146" y="145" on="0"/>
        <pt x="250" y="36" on="0"/>
        <pt x="351" y="36" on="1"/>
        <pt x="451" y="36" on="0"/>
        <pt x="555" y="145" on="0"/>
        <pt x="555" y="251" on="1"/>
        <pt x="555" y="660" on="1"/>
      </contour>
    </TTGlyph>
    <TTGlyph name="Uring" xMin="96" yMin="-10" xMax="605" yMax="852">
      <component glyphName="U" x="0" y="0" flags="0x0"/>
      <component glyphName="ring" x="101" y="76" flags="0x4"/>
    </TTGlyph>
    <TTGlyph name="V" xMin="23" yMin="0" xMax="591" yMax="660">
      <contour>
        <pt x="337" y="0" on="1"/>
        <pt x="278" y="0" on="1"/>
        <pt x="23" y="660" on="1"/>
        <pt x="77" y="660" on="1"/>
        <pt x="272" y="149" on="1"/>
        <pt x="307" y="47" on="1"/>
        <pt x="342" y="149" on="1"/>
        <pt x="538" y="660" on="1"/>
        <pt x="591" y="660" on="1"/>
      </contour>
    </TTGlyph>
    <TTGlyph name="W" xMin="30" yMin="0" xMax="907" yMax="660">
      <contour>
        <pt x="298" y="0" on="1"/>
        <pt x="236" y="0" on="1"/>
        <pt x="30" y="660" on="1"/>
        <pt x="84" y="660" on="1"/>
        <pt x="267" y="41" on="1"/>
        <pt x="440" y="660" on="1"/>
        <pt x="498" y="660" on="1"/>
        <pt x="671" y="40" on="1"/>
        <pt x="856" y="660" on="1"/>
        <pt x="907" y="660" on="1"/>
        <pt x="701" y="0" on="1"/>
        <pt x="639" y="0" on="1"/>
        <pt x="506" y="463" on="1"/>
        <pt x="469" y="606" on="1"/>
        <pt x="468" y="606" on="1"/>
        <pt x="431" y="463" on="1"/>
      </contour>
    </TTGlyph>
    <TTGlyph name="W.swsh" xMin="10" yMin="0" xMax="1136" yMax="660">
      <contour>
        <pt x="1136" y="660" on="1"/>
        <pt x="930" y="0" on="1"/>
        <pt x="868" y="0" on="1"/>
        <pt x="735" y="463" on="1"/>
        <pt x="698" y="606" on="1"/>
        <pt x="697" y="606" on="1"/>
        <pt x="660" y="463" on="1"/>
        <pt x="527" y="0" on="1"/>
        <pt x="465" y="0" on="1"/>
        <pt x="272" y="619" on="1"/>
        <pt x="214" y="619" on="1"/>
        <pt x="140" y="619" on="0"/>
        <pt x="60" y="555" on="0"/>
        <pt x="60" y="490" on="1"/>
        <pt x="60" y="440" on="0"/>
        <pt x="121" y="374" on="0"/>
        <pt x="173" y="364" on="1"/>
        <pt x="152" y="325" on="1"/>
        <pt x="89" y="336" on="0"/>
        <pt x="10" y="424" on="0"/>
        <pt x="10" y="491" on="1"/>
        <pt x="10" y="572" on="0"/>
        <pt x="111" y="660" on="0"/>
        <pt x="202" y="660" on="1"/>
        <pt x="313" y="660" on="1"/>
        <pt x="496" y="41" on="1"/>
        <pt x="669" y="660" on="1"/>
        <pt x="727" y="660" on="1"/>
        <pt x="900" y="40" on="1"/>
        <pt x="1085" y="660" on="1"/>
      </contour>
    </TTGlyph>
    <TTGlyph name="X" xMin="19" yMin="0" xMax="541" yMax="660">
      <contour>
        <pt x="482" y="0" on="1"/>
        <pt x="282" y="299" on="1"/>
        <pt x="78" y="0" on="1"/>
        <pt x="19" y="0" on="1"/>
        <pt x="255" y="339" on="1"/>
        <pt x="39" y="660" on="1"/>
        <pt x="99" y="660" on="1"/>
        <pt x="287" y="381" on="1"/>
        <pt x="477" y="660" on="1"/>
        <pt x="533" y="660" on="1"/>
        <pt x="314" y="340" on="1"/>
        <pt x="541" y="0" on="1"/>
      </contour>
    </TTGlyph>
    <TTGlyph name="Y" xMin="13" yMin="0" xMax="531" yMax="660">
      <contour>
        <pt x="297" y="257" on="1"/>
        <pt x="297" y="0" on="1"/>
        <pt x="247" y="0" on="1"/>
        <pt x="247" y="257" on="1"/>
        <pt x="13" y="660" on="1"/>
        <pt x="72" y="660" on="1"/>
        <pt x="272" y="309" on="1"/>
        <pt x="472" y="660" on="1"/>
        <pt x="531" y="660" on="1"/>
      </contour>
    </TTGlyph>
    <TTGlyph name="Yacute" xMin="13" yMin="0" xMax="531" yMax="897">
      <component glyphName="Y" x="0" y="0" flags="0x0"/>
      <component glyphName="acutecomb.cap" x="272" y="0" flags="0x0"/>
    </TTGlyph>
    <TTGlyph name="Ydieresis" xMin="13" yMin="0" xMax="531" yMax="831">
      <component glyphName="Y" x="0" y="0" flags="0x0"/>
      <component glyphName="dieresis" x="8" y="160" flags="0x4"/>
    </TTGlyph>
    <TTGlyph name="Z" xMin="43" yMin="0" xMax="553" yMax="660">
      <contour>
        <pt x="553" y="46" on="1"/>
        <pt x="553" y="0" on="1"/>
        <pt x="43" y="0" on="1"/>
        <pt x="43" y="44" on="1"/>
        <pt x="478" y="614" on="1"/>
        <pt x="52" y="614" on="1"/>
        <pt x="52" y="660" on="1"/>
        <pt x="537" y="660" on="1"/>
        <pt x="537" y="616" on="1"/>
        <pt x="102" y="46" on="1"/>
      </contour>
    </TTGlyph>
    <TTGlyph name="Zacute" xMin="43" yMin="0" xMax="553" yMax="897">
      <component glyphName="Z" x="0" y="0" flags="0x0"/>
      <component glyphName="acutecomb.cap" x="292" y="0" flags="0x0"/>
    </TTGlyph>
    <TTGlyph name="Zcaron" xMin="43" yMin="0" xMax="553" yMax="894">
      <component glyphName="Z" x="0" y="0" flags="0x0"/>
      <component glyphName="uni030C.cap" x="292" y="0" flags="0x0"/>
    </TTGlyph>
    <TTGlyph name="Zdotaccent" xMin="43" yMin="0" xMax="553" yMax="841">
      <component glyphName="Z" x="0" y="0" flags="0x0"/>
      <component glyphName="dotaccent" x="30" y="160" flags="0x4"/>
    </TTGlyph>
    <TTGlyph name="a" xMin="52" yMin="-10" xMax="530" yMax="510">
      <contour>
        <pt x="516" y="33" on="0"/>
        <pt x="530" y="40" on="1"/>
        <pt x="527" y="0" on="1"/>
        <pt x="509" y="-10" on="0"/>
        <pt x="478" y="-10" on="1"/>
        <pt x="443" y="-10" on="0"/>
        <pt x="399" y="28" on="0"/>
        <pt x="396" y="75" on="1"/>
        <pt x="373" y="35" on="0"/>
        <pt x="271" y="-10" on="0"/>
        <pt x="215" y="-10" on="1"/>
        <pt x="141" y="-10" on="0"/>
        <pt x="52" y="56" on="0"/>
        <pt x="52" y="117" on="1"/>
        <pt x="52" y="233" on="0"/>
        <pt x="242" y="267" on="1"/>
        <pt x="395" y="294" on="1"/>
        <pt x="395" y="338" on="1"/>
        <pt x="395" y="398" on="0"/>
        <pt x="324" y="466" on="0"/>
        <pt x="259" y="466" on="1"/>
        <pt x="140" y="466" on="0"/>
        <pt x="99" y="360" on="1"/>
        <pt x="61" y="388" on="1"/>
        <pt x="83" y="447" on="0"/>
        <pt x="185" y="510" on="0"/>
        <pt x="259" y="510" on="1"/>
        <pt x="346" y="510" on="0"/>
        <pt x="445" y="425" on="0"/>
        <pt x="445" y="344" on="1"/>
        <pt x="445" y="86" on="1"/>
        <pt x="445" y="33" on="0"/>
        <pt x="491" y="33" on="1"/>
      </contour>
      <contour>
        <pt x="262" y="34" on="0"/>
        <pt x="342" y="63" on="0"/>
        <pt x="395" y="120" on="0"/>
        <pt x="395" y="160" on="1"/>
        <pt x="395" y="253" on="1"/>
        <pt x="258" y="228" on="1"/>
        <pt x="177" y="213" on="0"/>
        <pt x="103" y="159" on="0"/>
        <pt x="103" y="117" on="1"/>
        <pt x="103" y="77" on="0"/>
        <pt x="165" y="34" on="0"/>
        <pt x="220" y="34" on="1"/>
      </contour>
    </TTGlyph>
    <TTGlyph name="a.sc" xMin="19" yMin="0" xMax="543" yMax="560">
      <contour>
        <pt x="418" y="174" on="1"/>
        <pt x="143" y="174" on="1"/>
        <pt x="71" y="0" on="1"/>
        <pt x="19" y="0" on="1"/>
        <pt x="251" y="560" on="1"/>
        <pt x="310" y="560" on="1"/>
        <pt x="543" y="0" on="1"/>
        <pt x="490" y="0" on="1"/>
      </contour>
      <contour>
        <pt x="400" y="217" on="1"/>
        <pt x="301" y="456" on="1"/>
        <pt x="281" y="514" on="1"/>
        <pt x="260" y="456" on="1"/>
        <pt x="161" y="217" on="1"/>
      </contour>
    </TTGlyph>
    <TTGlyph name="aacute" xMin="52" yMin="-10" xMax="530" yMax="741">
      <component glyphName="a" x="0" y="0" flags="0x0"/>
      <component glyphName="acute" x="-18" y="0" flags="0x0"/>
    </TTGlyph>
    <TTGlyph name="aacute.sc" xMin="19" yMin="0" xMax="543" yMax="797">
      <component glyphName="a.sc" x="0" y="0" flags="0x0"/>
      <component glyphName="acutecomb.cap" x="281" y="-100" flags="0x4"/>
    </TTGlyph>
    <TTGlyph name="abreve" xMin="52" yMin="-10" xMax="530" yMax="714">
      <component glyphName="a" x="0" y="0" flags="0x0"/>
      <component glyphName="breve" x="8" y="0" flags="0x0"/>
    </TTGlyph>
    <TTGlyph name="abreve.sc" xMin="19" yMin="0" xMax="543" yMax="774">
      <component glyphName="a.sc" x="0" y="0" flags="0x0"/>
      <component glyphName="breve" x="29" y="60" flags="0x4"/>
    </TTGlyph>
    <TTGlyph name="acircumflex" xMin="52" yMin="-10" xMax="530" yMax="735">
      <component glyphName="a" x="0" y="0" flags="0x0"/>
      <component glyphName="circumflex" x="-2" y="0" flags="0x0"/>
    </TTGlyph>
    <TTGlyph name="acircumflex.sc" xMin="19" yMin="0" xMax="543" yMax="792">
      <component glyphName="a.sc" x="0" y="0" flags="0x0"/>
      <component glyphName="uni0302.cap" x="281" y="-100" flags="0x4"/>
    </TTGlyph>
    <TTGlyph name="acute" xMin="248" yMin="583" xMax="383" yMax="741">
      <contour>
        <pt x="383" y="741" on="1"/>
        <pt x="290" y="583" on="1"/>
        <pt x="248" y="583" on="1"/>
        <pt x="329" y="741" on="1"/>
      </contour>
    </TTGlyph>
    <TTGlyph name="acutecmb" xMin="-30" yMin="583" xMax="105" yMax="741">
      <component glyphName="acute" x="-278" y="0" flags="0x0"/>
    </TTGlyph>
    <TTGlyph name="acutecomb.asc" xMin="19" yMin="861" xMax="57" yMax="866">
      <contour>
        <pt x="57" y="866" on="1"/>
        <pt x="47" y="861" on="1"/>
        <pt x="22" y="861" on="1"/>
        <pt x="19" y="866" on="1"/>
      </contour>
    </TTGlyph>
    <TTGlyph name="acutecomb.cap" xMin="-23" yMin="743" xMax="100" yMax="897">
      <contour>
        <pt x="100" y="897" on="1"/>
        <pt x="18" y="743" on="1"/>
        <pt x="-23" y="743" on="1"/>
        <pt x="47" y="897" on="1"/>
      </contour>
    </TTGlyph>
    <TTGlyph name="adieresis" xMin="52" yMin="-10" xMax="530" yMax="671">
      <component glyphName="a" x="0" y="0" flags="0x0"/>
      <component glyphName="dieresis" x="-4" y="0" flags="0x0"/>
    </TTGlyph>
    <TTGlyph name="adieresis.sc" xMin="19" yMin="0" xMax="543" yMax="731">
      <component glyphName="a.sc" x="0" y="0" flags="0x0"/>
      <component glyphName="dieresis" x="17" y="60" flags="0x4"/>
    </TTGlyph>
    <TTGlyph name="ae" xMin="52" yMin="-10" xMax="822" yMax="510">
      <contour>
        <pt x="822" y="255" on="0"/>
        <pt x="820" y="237" on="1"/>
        <pt x="444" y="237" on="1"/>
        <pt x="448" y="142" on="0"/>
        <pt x="541" y="34" on="0"/>
        <pt x="617" y="34" on="1"/>
        <pt x="678" y="34" on="0"/>
        <pt x="752" y="80" on="0"/>
        <pt x="771" y="126" on="1"/>
        <pt x="812" y="104" on="1"/>
        <pt x="784" y="48" on="0"/>
        <pt x="692" y="-10" on="0"/>
        <pt x="617" y="-10" on="1"/>
        <pt x="546" y="-10" on="0"/>
        <pt x="444" y="61" on="0"/>
        <pt x="421" y="129" on="1"/>
        <pt x="405" y="60" on="0"/>
        <pt x="287" y="-10" on="0"/>
        <pt x="212" y="-10" on="1"/>
        <pt x="139" y="-10" on="0"/>
        <pt x="52" y="57" on="0"/>
        <pt x="52" y="117" on="1"/>
        <pt x="52" y="176" on="0"/>
        <pt x="144" y="253" on="0"/>
        <pt x="237" y="264" on="1"/>
        <pt x="399" y="282" on="1"/>
        <pt x="399" y="337" on="1"/>
        <pt x="399" y="398" on="0"/>
        <pt x="326" y="466" on="0"/>
        <pt x="259" y="466" on="1"/>
        <pt x="142" y="466" on="0"/>
        <pt x="99" y="360" on="1"/>
        <pt x="61" y="388" on="1"/>
        <pt x="83" y="448" on="0"/>
        <pt x="186" y="510" on="0"/>
        <pt x="260" y="510" on="1"/>
        <pt x="326" y="510" on="0"/>
        <pt x="416" y="451" on="0"/>
        <pt x="433" y="394" on="1"/>
        <pt x="459" y="449" on="0"/>
        <pt x="551" y="510" on="0"/>
        <pt x="613" y="510" on="1"/>
        <pt x="715" y="510" on="0"/>
        <pt x="822" y="382" on="0"/>
        <pt x="822" y="270" on="1"/>
      </contour>
      <contour>
        <pt x="542" y="466" on="0"/>
        <pt x="452" y="369" on="0"/>
        <pt x="445" y="282" on="1"/>
        <pt x="774" y="282" on="1"/>
        <pt x="769" y="372" on="0"/>
        <pt x="689" y="466" on="0"/>
        <pt x="613" y="466" on="1"/>
      </contour>
      <contour>
        <pt x="264" y="34" on="0"/>
        <pt x="346" y="68" on="0"/>
        <pt x="399" y="140" on="0"/>
        <pt x="399" y="193" on="1"/>
        <pt x="399" y="243" on="1"/>
        <pt x="253" y="224" on="1"/>
        <pt x="174" y="215" on="0"/>
        <pt x="103" y="161" on="0"/>
        <pt x="103" y="117" on="1"/>
        <pt x="103" y="76" on="0"/>
        <pt x="167" y="34" on="0"/>
        <pt x="221" y="34" on="1"/>
      </contour>
    </TTGlyph>
    <TTGlyph name="ae.sc" xMin="0" yMin="0" xMax="754" yMax="560">
      <contour>
        <pt x="754" y="43" on="1"/>
        <pt x="754" y="0" on="1"/>
        <pt x="367" y="0" on="1"/>
        <pt x="367" y="196" on="1"/>
        <pt x="164" y="196" on="1"/>
        <pt x="52" y="0" on="1"/>
        <pt x="0" y="0" on="1"/>
        <pt x="323" y="560" on="1"/>
        <pt x="741" y="560" on="1"/>
        <pt x="741" y="517" on="1"/>
        <pt x="416" y="517" on="1"/>
        <pt x="416" y="305" on="1"/>
        <pt x="670" y="305" on="1"/>
        <pt x="670" y="262" on="1"/>
        <pt x="416" y="262" on="1"/>
        <pt x="416" y="43" on="1"/>
      </contour>
      <contour>
        <pt x="367" y="240" on="1"/>
        <pt x="367" y="517" on="1"/>
        <pt x="347" y="517" on="1"/>
        <pt x="189" y="240" on="1"/>
      </contour>
    </TTGlyph>
    <TTGlyph name="agrave" xMin="52" yMin="-10" xMax="530" yMax="741">
      <component glyphName="a" x="0" y="0" flags="0x0"/>
      <component glyphName="grave" x="13" y="0" flags="0x0"/>
    </TTGlyph>
    <TTGlyph name="agrave.sc" xMin="19" yMin="0" xMax="543" yMax="797">
      <component glyphName="a.sc" x="0" y="0" flags="0x0"/>
      <component glyphName="gravecomb.cap" x="281" y="-100" flags="0x4"/>
    </TTGlyph>
    <TTGlyph name="amacron" xMin="52" yMin="-10" xMax="530" yMax="642">
      <component glyphName="a" x="0" y="0" flags="0x0"/>
      <component glyphName="macron" x="-2" y="0" flags="0x0"/>
    </TTGlyph>
    <TTGlyph name="amacron.sc" xMin="19" yMin="0" xMax="543" yMax="702">
      <component glyphName="a.sc" x="0" y="0" flags="0x0"/>
      <component glyphName="macron" x="19" y="60" flags="0x4"/>
    </TTGlyph>
    <TTGlyph name="ampersand" xMin="47" yMin="-10" xMax="605" yMax="668">
      <contour>
        <pt x="515" y="61" on="0"/>
        <pt x="571" y="28" on="0"/>
        <pt x="605" y="28" on="1"/>
        <pt x="593" y="-10" on="1"/>
        <pt x="556" y="-10" on="0"/>
        <pt x="492" y="26" on="0"/>
        <pt x="446" y="75" on="1"/>
        <pt x="369" y="-10" on="0"/>
        <pt x="247" y="-10" on="1"/>
        <pt x="189" y="-10" on="0"/>
        <pt x="98" y="31" on="0"/>
        <pt x="47" y="104" on="0"/>
        <pt x="47" y="151" on="1"/>
        <pt x="47" y="217" on="0"/>
        <pt x="127" y="312" on="0"/>
        <pt x="214" y="360" on="1"/>
        <pt x="166" y="422" on="0"/>
        <pt x="132" y="491" on="0"/>
        <pt x="132" y="528" on="1"/>
        <pt x="132" y="587" on="0"/>
        <pt x="212" y="668" on="0"/>
        <pt x="280" y="668" on="1"/>
        <pt x="343" y="668" on="0"/>
        <pt x="424" y="603" on="0"/>
        <pt x="424" y="541" on="1"/>
        <pt x="424" y="484" on="0"/>
        <pt x="364" y="397" on="0"/>
        <pt x="279" y="349" on="1"/>
        <pt x="321" y="294" on="0"/>
        <pt x="347" y="261" on="1"/>
        <pt x="407" y="185" on="0"/>
        <pt x="444" y="140" on="1"/>
        <pt x="472" y="183" on="0"/>
        <pt x="498" y="295" on="0"/>
        <pt x="496" y="360" on="1"/>
        <pt x="537" y="356" on="1"/>
        <pt x="539" y="289" on="0"/>
        <pt x="506" y="159" on="0"/>
        <pt x="472" y="108" on="1"/>
      </contour>
      <contour>
        <pt x="233" y="625" on="0"/>
        <pt x="179" y="571" on="0"/>
        <pt x="179" y="529" on="1"/>
        <pt x="179" y="498" on="0"/>
        <pt x="206" y="444" on="0"/>
        <pt x="253" y="382" on="1"/>
        <pt x="328" y="422" on="0"/>
        <pt x="379" y="495" on="0"/>
        <pt x="379" y="540" on="1"/>
        <pt x="379" y="581" on="0"/>
        <pt x="326" y="625" on="0"/>
        <pt x="279" y="625" on="1"/>
      </contour>
      <contour>
        <pt x="352" y="31" on="0"/>
        <pt x="418" y="106" on="1"/>
        <pt x="367" y="166" on="0"/>
        <pt x="314" y="233" on="1"/>
        <pt x="288" y="265" on="0"/>
        <pt x="240" y="327" on="1"/>
        <pt x="160" y="281" on="0"/>
        <pt x="94" y="206" on="0"/>
        <pt x="94" y="154" on="1"/>
        <pt x="94" y="99" on="0"/>
        <pt x="181" y="31" on="0"/>
        <pt x="244" y="31" on="1"/>
      </contour>
    </TTGlyph>
    <TTGlyph name="ampersand.sc" xMin="43" yMin="-8" xMax="540" yMax="567">
      <contour>
        <pt x="462" y="54" on="0"/>
        <pt x="511" y="27" on="0"/>
        <pt x="540" y="28" on="1"/>
        <pt x="531" y="-8" on="1"/>
        <pt x="497" y="-8" on="0"/>
        <pt x="441" y="21" on="0"/>
        <pt x="400" y="62" on="1"/>
        <pt x="332" y="-8" on="0"/>
        <pt x="221" y="-8" on="1"/>
        <pt x="143" y="-8" on="0"/>
        <pt x="43" y="66" on="0"/>
        <pt x="43" y="127" on="1"/>
        <pt x="43" y="183" on="0"/>
        <pt x="113" y="263" on="0"/>
        <pt x="190" y="303" on="1"/>
        <pt x="148" y="354" on="0"/>
        <pt x="118" y="413" on="0"/>
        <pt x="118" y="446" on="1"/>
        <pt x="118" y="498" on="0"/>
        <pt x="190" y="567" on="0"/>
        <pt x="252" y="567" on="1"/>
        <pt x="311" y="567" on="0"/>
        <pt x="384" y="509" on="0"/>
        <pt x="384" y="457" on="1"/>
        <pt x="384" y="409" on="0"/>
        <pt x="328" y="335" on="0"/>
        <pt x="251" y="293" on="1"/>
        <pt x="265" y="277" on="1"/>
        <pt x="311" y="222" on="1"/>
        <pt x="369" y="153" on="0"/>
        <pt x="398" y="121" on="1"/>
        <pt x="447" y="192" on="0"/>
        <pt x="444" y="310" on="1"/>
        <pt x="482" y="302" on="1"/>
        <pt x="483" y="243" on="0"/>
        <pt x="455" y="135" on="0"/>
        <pt x="425" y="92" on="1"/>
      </contour>
      <contour>
        <pt x="211" y="527" on="0"/>
        <pt x="163" y="481" on="0"/>
        <pt x="163" y="445" on="1"/>
        <pt x="163" y="418" on="0"/>
        <pt x="186" y="373" on="0"/>
        <pt x="227" y="322" on="1"/>
        <pt x="294" y="358" on="0"/>
        <pt x="340" y="417" on="0"/>
        <pt x="340" y="454" on="1"/>
        <pt x="340" y="489" on="0"/>
        <pt x="293" y="527" on="0"/>
        <pt x="252" y="527" on="1"/>
      </contour>
      <contour>
        <pt x="315" y="29" on="0"/>
        <pt x="373" y="90" on="1"/>
        <pt x="332" y="134" on="0"/>
        <pt x="282" y="194" on="1"/>
        <pt x="231" y="254" on="1"/>
        <pt x="214" y="273" on="1"/>
        <pt x="146" y="236" on="0"/>
        <pt x="88" y="174" on="0"/>
        <pt x="88" y="131" on="1"/>
        <pt x="88" y="85" on="0"/>
        <pt x="164" y="29" on="0"/>
        <pt x="220" y="29" on="1"/>
      </contour>
    </TTGlyph>
    <TTGlyph name="aogonek" xMin="52" yMin="-209" xMax="530" yMax="510">
      <contour>
        <pt x="500" y="-172" on="0"/>
        <pt x="519" y="-158" on="1"/>
        <pt x="530" y="-191" on="1"/>
        <pt x="503" y="-209" on="0"/>
        <pt x="457" y="-209" on="1"/>
        <pt x="411" y="-209" on="0"/>
        <pt x="353" y="-162" on="0"/>
        <pt x="353" y="-122" on="1"/>
        <pt x="353" y="-84" on="0"/>
        <pt x="401" y="-27" on="0"/>
        <pt x="450" y="-4" on="1"/>
        <pt x="404" y="15" on="0"/>
        <pt x="396" y="76" on="1"/>
        <pt x="374" y="36" on="0"/>
        <pt x="272" y="-10" on="0"/>
        <pt x="215" y="-10" on="1"/>
        <pt x="141" y="-10" on="0"/>
        <pt x="52" y="56" on="0"/>
        <pt x="52" y="117" on="1"/>
        <pt x="52" y="233" on="0"/>
        <pt x="242" y="267" on="1"/>
        <pt x="395" y="294" on="1"/>
        <pt x="395" y="338" on="1"/>
        <pt x="395" y="398" on="0"/>
        <pt x="324" y="466" on="0"/>
        <pt x="259" y="466" on="1"/>
        <pt x="142" y="466" on="0"/>
        <pt x="99" y="360" on="1"/>
        <pt x="61" y="388" on="1"/>
        <pt x="83" y="447" on="0"/>
        <pt x="185" y="510" on="0"/>
        <pt x="259" y="510" on="1"/>
        <pt x="346" y="510" on="0"/>
        <pt x="445" y="425" on="0"/>
        <pt x="445" y="344" on="1"/>
        <pt x="445" y="86" on="1"/>
        <pt x="445" y="33" on="0"/>
        <pt x="491" y="33" on="1"/>
        <pt x="516" y="33" on="0"/>
        <pt x="530" y="40" on="1"/>
        <pt x="527" y="0" on="1"/>
        <pt x="524" y="-1" on="1"/>
        <pt x="453" y="-28" on="0"/>
        <pt x="395" y="-80" on="0"/>
        <pt x="395" y="-115" on="1"/>
        <pt x="395" y="-142" on="0"/>
        <pt x="430" y="-172" on="0"/>
        <pt x="460" y="-172" on="1"/>
      </contour>
      <contour>
        <pt x="262" y="34" on="0"/>
        <pt x="342" y="63" on="0"/>
        <pt x="395" y="120" on="0"/>
        <pt x="395" y="160" on="1"/>
        <pt x="395" y="253" on="1"/>
        <pt x="258" y="228" on="1"/>
        <pt x="177" y="212" on="0"/>
        <pt x="103" y="159" on="0"/>
        <pt x="103" y="117" on="1"/>
        <pt x="103" y="77" on="0"/>
        <pt x="165" y="34" on="0"/>
        <pt x="220" y="34" on="1"/>
      </contour>
    </TTGlyph>
    <TTGlyph name="aogonek.sc" xMin="19" yMin="-209" xMax="555" yMax="560">
      <contour>
        <pt x="555" y="-189" on="1"/>
        <pt x="527" y="-209" on="0"/>
        <pt x="478" y="-209" on="1"/>
        <pt x="431" y="-209" on="0"/>
        <pt x="374" y="-161" on="0"/>
        <pt x="374" y="-117" on="1"/>
        <pt x="374" y="-76" on="0"/>
        <pt x="427" y="-14" on="0"/>
        <pt x="486" y="10" on="1"/>
        <pt x="418" y="174" on="1"/>
        <pt x="143" y="174" on="1"/>
        <pt x="71" y="0" on="1"/>
        <pt x="19" y="0" on="1"/>
        <pt x="251" y="560" on="1"/>
        <pt x="310" y="560" on="1"/>
        <pt x="543" y="0" on="1"/>
        <pt x="472" y="-25" on="0"/>
        <pt x="415" y="-79" on="0"/>
        <pt x="415" y="-114" on="1"/>
        <pt x="415" y="-142" on="0"/>
        <pt x="453" y="-172" on="0"/>
        <pt x="483" y="-172" on="1"/>
        <pt x="522" y="-172" on="0"/>
        <pt x="544" y="-156" on="1"/>
      </contour>
      <contour>
        <pt x="400" y="217" on="1"/>
        <pt x="301" y="456" on="1"/>
        <pt x="281" y="514" on="1"/>
        <pt x="260" y="456" on="1"/>
        <pt x="161" y="217" on="1"/>
      </contour>
    </TTGlyph>
    <TTGlyph name="approxequal" xMin="74" yMin="165" xMax="530" yMax="472">
      <contour>
        <pt x="221" y="472" on="0"/>
        <pt x="272" y="454" on="0"/>
        <pt x="309" y="436" on="1"/>
        <pt x="343" y="420" on="0"/>
        <pt x="390" y="403" on="0"/>
        <pt x="414" y="403" on="1"/>
        <pt x="444" y="403" on="0"/>
        <pt x="499" y="427" on="0"/>
        <pt x="530" y="458" on="1"/>
        <pt x="530" y="410" on="1"/>
        <pt x="477" y="358" on="0"/>
        <pt x="413" y="358" on="1"/>
        <pt x="388" y="358" on="0"/>
        <pt x="337" y="376" on="0"/>
        <pt x="303" y="393" on="1"/>
        <pt x="267" y="410" on="0"/>
        <pt x="218" y="427" on="0"/>
        <pt x="193" y="427" on="1"/>
        <pt x="156" y="427" on="0"/>
        <pt x="103" y="401" on="0"/>
        <pt x="74" y="372" on="1"/>
        <pt x="74" y="419" on="1"/>
        <pt x="105" y="448" on="0"/>
        <pt x="157" y="472" on="0"/>
        <pt x="193" y="472" on="1"/>
      </contour>
      <contour>
        <pt x="221" y="278" on="0"/>
        <pt x="270" y="261" on="0"/>
        <pt x="309" y="243" on="1"/>
        <pt x="343" y="227" on="0"/>
        <pt x="390" y="210" on="0"/>
        <pt x="414" y="210" on="1"/>
        <pt x="444" y="210" on="0"/>
        <pt x="500" y="234" on="0"/>
        <pt x="530" y="265" on="1"/>
        <pt x="530" y="217" on="1"/>
        <pt x="477" y="165" on="0"/>
        <pt x="413" y="165" on="1"/>
        <pt x="388" y="165" on="0"/>
        <pt x="338" y="182" on="0"/>
        <pt x="303" y="199" on="1"/>
        <pt x="267" y="216" on="0"/>
        <pt x="218" y="233" on="0"/>
        <pt x="193" y="233" on="1"/>
        <pt x="156" y="233" on="0"/>
        <pt x="103" y="207" on="0"/>
        <pt x="74" y="178" on="1"/>
        <pt x="74" y="226" on="1"/>
        <pt x="105" y="254" on="0"/>
        <pt x="157" y="278" on="0"/>
        <pt x="193" y="278" on="1"/>
      </contour>
    </TTGlyph>
    <TTGlyph name="aring" xMin="52" yMin="-10" xMax="530" yMax="776">
      <component glyphName="a" x="0" y="0" flags="0x0"/>
      <component glyphName="ring" x="7" y="0" flags="0x0"/>
    </TTGlyph>
    <TTGlyph name="aring.sc" xMin="19" yMin="0" xMax="543" yMax="721">
      <contour>
        <pt x="418" y="174" on="1"/>
        <pt x="143" y="174" on="1"/>
        <pt x="71" y="0" on="1"/>
        <pt x="19" y="0" on="1"/>
        <pt x="241" y="536" on="1"/>
        <pt x="213" y="546" on="0"/>
        <pt x="180" y="593" on="0"/>
        <pt x="180" y="626" on="1"/>
        <pt x="180" y="668" on="0"/>
        <pt x="236" y="721" on="0"/>
        <pt x="281" y="721" on="1"/>
        <pt x="326" y="721" on="0"/>
        <pt x="381" y="668" on="0"/>
        <pt x="381" y="626" on="1"/>
        <pt x="381" y="593" on="0"/>
        <pt x="349" y="546" on="0"/>
        <pt x="320" y="536" on="1"/>
        <pt x="543" y="0" on="1"/>
        <pt x="490" y="0" on="1"/>
      </contour>
      <contour>
        <pt x="217" y="598" on="0"/>
        <pt x="252" y="563" on="0"/>
        <pt x="281" y="563" on="1"/>
        <pt x="309" y="563" on="0"/>
        <pt x="345" y="598" on="0"/>
        <pt x="345" y="626" on="1"/>
        <pt x="345" y="654" on="0"/>
        <pt x="309" y="688" on="0"/>
        <pt x="281" y="688" on="1"/>
        <pt x="252" y="688" on="0"/>
        <pt x="217" y="654" on="0"/>
        <pt x="217" y="626" on="1"/>
      </contour>
      <contour>
        <pt x="400" y="217" on="1"/>
        <pt x="301" y="456" on="1"/>
        <pt x="281" y="514" on="1"/>
        <pt x="260" y="456" on="1"/>
        <pt x="161" y="217" on="1"/>
      </contour>
    </TTGlyph>
    <TTGlyph name="arrowboth" xMin="28" yMin="26" xMax="976" yMax="672">
      <contour>
        <pt x="739" y="567" on="0"/>
        <pt x="881" y="420" on="0"/>
        <pt x="976" y="351" on="1"/>
        <pt x="976" y="347" on="1"/>
        <pt x="881" y="278" on="0"/>
        <pt x="739" y="131" on="0"/>
        <pt x="670" y="26" on="1"/>
        <pt x="625" y="53" on="1"/>
        <pt x="691" y="148" on="0"/>
        <pt x="826" y="288" on="0"/>
        <pt x="889" y="328" on="1"/>
        <pt x="817" y="324" on="0"/>
        <pt x="769" y="324" on="1"/>
        <pt x="235" y="324" on="1"/>
        <pt x="187" y="324" on="0"/>
        <pt x="115" y="328" on="1"/>
        <pt x="178" y="288" on="0"/>
        <pt x="313" y="147" on="0"/>
        <pt x="378" y="53" on="1"/>
        <pt x="334" y="26" on="1"/>
        <pt x="265" y="131" on="0"/>
        <pt x="123" y="278" on="0"/>
        <pt x="28" y="347" on="1"/>
        <pt x="28" y="351" on="1"/>
        <pt x="123" y="420" on="0"/>
        <pt x="265" y="567" on="0"/>
        <pt x="334" y="672" on="1"/>
        <pt x="378" y="645" on="1"/>
        <pt x="313" y="551" on="0"/>
        <pt x="177" y="410" on="0"/>
        <pt x="114" y="370" on="1"/>
        <pt x="186" y="374" on="0"/>
        <pt x="235" y="374" on="1"/>
        <pt x="769" y="374" on="1"/>
        <pt x="818" y="374" on="0"/>
        <pt x="890" y="370" on="1"/>
        <pt x="827" y="410" on="0"/>
        <pt x="691" y="551" on="0"/>
        <pt x="625" y="645" on="1"/>
        <pt x="670" y="672" on="1"/>
      </contour>
    </TTGlyph>
    <TTGlyph name="arrowdown" xMin="53" yMin="-7" xMax="699" yMax="660">
      <contour>
        <pt x="699" y="298" on="1"/>
        <pt x="594" y="229" on="0"/>
        <pt x="446" y="87" on="0"/>
        <pt x="378" y="-7" on="1"/>
        <pt x="374" y="-7" on="1"/>
        <pt x="305" y="87" on="0"/>
        <pt x="158" y="229" on="0"/>
        <pt x="53" y="298" on="1"/>
        <pt x="86" y="339" on="1"/>
        <pt x="178" y="274" on="0"/>
        <pt x="317" y="140" on="0"/>
        <pt x="356" y="77" on="1"/>
        <pt x="351" y="145" on="0"/>
        <pt x="351" y="221" on="1"/>
        <pt x="351" y="660" on="1"/>
        <pt x="401" y="660" on="1"/>
        <pt x="401" y="221" on="1"/>
        <pt x="401" y="146" on="0"/>
        <pt x="396" y="78" on="1"/>
        <pt x="436" y="141" on="0"/>
        <pt x="574" y="275" on="0"/>
        <pt x="666" y="339" on="1"/>
      </contour>
    </TTGlyph>
    <TTGlyph name="arrowleft" xMin="29" yMin="8" xMax="696" yMax="654">
      <contour>
        <pt x="257" y="306" on="1"/>
        <pt x="181" y="306" on="0"/>
        <pt x="113" y="311" on="1"/>
        <pt x="176" y="272" on="0"/>
        <pt x="310" y="133" on="0"/>
        <pt x="375" y="41" on="1"/>
        <pt x="334" y="8" on="1"/>
        <pt x="265" y="113" on="0"/>
        <pt x="123" y="260" on="0"/>
        <pt x="29" y="329" on="1"/>
        <pt x="29" y="333" on="1"/>
        <pt x="123" y="401" on="0"/>
        <pt x="265" y="549" on="0"/>
        <pt x="334" y="654" on="1"/>
        <pt x="375" y="621" on="1"/>
        <pt x="311" y="529" on="0"/>
        <pt x="177" y="391" on="0"/>
        <pt x="114" y="351" on="1"/>
        <pt x="182" y="356" on="0"/>
        <pt x="257" y="356" on="1"/>
        <pt x="696" y="356" on="1"/>
        <pt x="696" y="306" on="1"/>
      </contour>
    </TTGlyph>
    <TTGlyph name="arrowright" xMin="54" yMin="8" xMax="721" yMax="654">
      <contour>
        <pt x="485" y="549" on="0"/>
        <pt x="627" y="401" on="0"/>
        <pt x="721" y="333" on="1"/>
        <pt x="721" y="329" on="1"/>
        <pt x="627" y="260" on="0"/>
        <pt x="485" y="113" on="0"/>
        <pt x="416" y="8" on="1"/>
        <pt x="375" y="41" on="1"/>
        <pt x="440" y="133" on="0"/>
        <pt x="574" y="272" on="0"/>
        <pt x="637" y="311" on="1"/>
        <pt x="569" y="306" on="0"/>
        <pt x="493" y="306" on="1"/>
        <pt x="54" y="306" on="1"/>
        <pt x="54" y="356" on="1"/>
        <pt x="493" y="356" on="1"/>
        <pt x="568" y="356" on="0"/>
        <pt x="636" y="351" on="1"/>
        <pt x="573" y="391" on="0"/>
        <pt x="439" y="529" on="0"/>
        <pt x="375" y="621" on="1"/>
        <pt x="416" y="654" on="1"/>
      </contour>
    </TTGlyph>
    <TTGlyph name="arrowup" xMin="51" yMin="0" xMax="697" yMax="667">
      <contour>
        <pt x="445" y="573" on="0"/>
        <pt x="592" y="431" on="0"/>
        <pt x="697" y="362" on="1"/>
        <pt x="664" y="321" on="1"/>
        <pt x="572" y="386" on="0"/>
        <pt x="433" y="520" on="0"/>
        <pt x="394" y="583" on="1"/>
        <pt x="399" y="515" on="0"/>
        <pt x="399" y="439" on="1"/>
        <pt x="399" y="0" on="1"/>
        <pt x="349" y="0" on="1"/>
        <pt x="349" y="439" on="1"/>
        <pt x="349" y="514" on="0"/>
        <pt x="354" y="582" on="1"/>
        <pt x="314" y="519" on="0"/>
        <pt x="176" y="385" on="0"/>
        <pt x="84" y="321" on="1"/>
        <pt x="51" y="362" on="1"/>
        <pt x="156" y="431" on="0"/>
        <pt x="304" y="573" on="0"/>
        <pt x="372" y="667" on="1"/>
        <pt x="376" y="667" on="1"/>
      </contour>
    </TTGlyph>
    <TTGlyph name="arrowupdn" xMin="51" yMin="-144" xMax="697" yMax="804">
      <contour>
        <pt x="435" y="5" on="0"/>
        <pt x="576" y="141" on="0"/>
        <pt x="670" y="207" on="1"/>
        <pt x="697" y="162" on="1"/>
        <pt x="592" y="93" on="0"/>
        <pt x="445" y="-49" on="0"/>
        <pt x="376" y="-144" on="1"/>
        <pt x="372" y="-144" on="1"/>
        <pt x="303" y="-49" on="0"/>
        <pt x="156" y="93" on="0"/>
        <pt x="51" y="162" on="1"/>
        <pt x="78" y="207" on="1"/>
        <pt x="173" y="141" on="0"/>
        <pt x="313" y="6" on="0"/>
        <pt x="353" y="-57" on="1"/>
        <pt x="349" y="15" on="0"/>
        <pt x="349" y="63" on="1"/>
        <pt x="349" y="597" on="1"/>
        <pt x="349" y="645" on="0"/>
        <pt x="353" y="717" on="1"/>
        <pt x="313" y="654" on="0"/>
        <pt x="172" y="519" on="0"/>
        <pt x="78" y="454" on="1"/>
        <pt x="51" y="498" on="1"/>
        <pt x="156" y="567" on="0"/>
        <pt x="303" y="709" on="0"/>
        <pt x="372" y="804" on="1"/>
        <pt x="376" y="804" on="1"/>
        <pt x="445" y="709" on="0"/>
        <pt x="592" y="567" on="0"/>
        <pt x="697" y="498" on="1"/>
        <pt x="670" y="454" on="1"/>
        <pt x="576" y="519" on="0"/>
        <pt x="435" y="655" on="0"/>
        <pt x="395" y="718" on="1"/>
        <pt x="399" y="646" on="0"/>
        <pt x="399" y="597" on="1"/>
        <pt x="399" y="63" on="1"/>
        <pt x="399" y="14" on="0"/>
        <pt x="395" y="-58" on="1"/>
      </contour>
    </TTGlyph>
    <TTGlyph name="asciicircum" xMin="32" yMin="355" xMax="516" yMax="730">
      <contour>
        <pt x="464" y="355" on="1"/>
        <pt x="274" y="687" on="1"/>
        <pt x="84" y="355" on="1"/>
        <pt x="32" y="355" on="1"/>
        <pt x="249" y="730" on="1"/>
        <pt x="298" y="730" on="1"/>
        <pt x="516" y="355" on="1"/>
      </contour>
    </TTGlyph>
    <TTGlyph name="asciitilde" xMin="43" yMin="263" xMax="468" yMax="389">
      <contour>
        <pt x="456" y="266" on="0"/>
        <pt x="355" y="266" on="1"/>
        <pt x="323" y="266" on="0"/>
        <pt x="278" y="286" on="0"/>
        <pt x="246" y="306" on="1"/>
        <pt x="220" y="323" on="0"/>
        <pt x="183" y="340" on="0"/>
        <pt x="161" y="340" on="1"/>
        <pt x="104" y="340" on="0"/>
        <pt x="91" y="263" on="1"/>
        <pt x="43" y="263" on="1"/>
        <pt x="55" y="386" on="0"/>
        <pt x="157" y="386" on="1"/>
        <pt x="188" y="386" on="0"/>
        <pt x="235" y="366" on="0"/>
        <pt x="266" y="346" on="1"/>
        <pt x="292" y="329" on="0"/>
        <pt x="329" y="312" on="0"/>
        <pt x="351" y="312" on="1"/>
        <pt x="407" y="312" on="0"/>
        <pt x="421" y="389" on="1"/>
        <pt x="468" y="389" on="1"/>
      </contour>
    </TTGlyph>
    <TTGlyph name="asterisk" xMin="50" yMin="308" xMax="493" yMax="730">
      <contour>
        <pt x="347" y="436" on="1"/>
        <pt x="421" y="332" on="1"/>
        <pt x="388" y="308" on="1"/>
        <pt x="312" y="410" on="1"/>
        <pt x="272" y="478" on="1"/>
        <pt x="231" y="410" on="1"/>
        <pt x="155" y="308" on="1"/>
        <pt x="122" y="332" on="1"/>
        <pt x="196" y="436" on="1"/>
        <pt x="248" y="496" on="1"/>
        <pt x="170" y="514" on="1"/>
        <pt x="50" y="554" on="1"/>
        <pt x="62" y="593" on="1"/>
        <pt x="183" y="555" on="1"/>
        <pt x="257" y="524" on="1"/>
        <pt x="250" y="603" on="1"/>
        <pt x="250" y="730" on="1"/>
        <pt x="293" y="730" on="1"/>
        <pt x="293" y="603" on="1"/>
        <pt x="286" y="524" on="1"/>
        <pt x="359" y="555" on="1"/>
        <pt x="481" y="593" on="1"/>
        <pt x="493" y="554" on="1"/>
        <pt x="373" y="514" on="1"/>
        <pt x="295" y="496" on="1"/>
      </contour>
    </TTGlyph>
    <TTGlyph name="at" xMin="60" yMin="-193" xMax="901" yMax="665">
      <contour>
        <pt x="631" y="665" on="0"/>
        <pt x="815" y="554" on="0"/>
        <pt x="901" y="367" on="0"/>
        <pt x="901" y="253" on="1"/>
        <pt x="901" y="132" on="0"/>
        <pt x="817" y="-7" on="0"/>
        <pt x="745" y="-7" on="1"/>
        <pt x="646" y="-7" on="0"/>
        <pt x="638" y="112" on="1"/>
        <pt x="614" y="57" on="0"/>
        <pt x="519" y="-5" on="0"/>
        <pt x="453" y="-5" on="1"/>
        <pt x="397" y="-5" on="0"/>
        <pt x="308" y="49" on="0"/>
        <pt x="259" y="150" on="0"/>
        <pt x="259" y="218" on="1"/>
        <pt x="259" y="294" on="0"/>
        <pt x="319" y="409" on="0"/>
        <pt x="423" y="470" on="0"/>
        <pt x="485" y="470" on="1"/>
        <pt x="553" y="470" on="0"/>
        <pt x="638" y="409" on="0"/>
        <pt x="655" y="356" on="1"/>
        <pt x="666" y="458" on="1"/>
        <pt x="700" y="458" on="1"/>
        <pt x="679" y="141" on="1"/>
        <pt x="674" y="29" on="0"/>
        <pt x="753" y="29" on="1"/>
        <pt x="805" y="29" on="0"/>
        <pt x="861" y="145" on="0"/>
        <pt x="861" y="253" on="1"/>
        <pt x="861" y="359" on="0"/>
        <pt x="782" y="528" on="0"/>
        <pt x="617" y="627" on="0"/>
        <pt x="492" y="627" on="1"/>
        <pt x="374" y="627" on="0"/>
        <pt x="198" y="529" on="0"/>
        <pt x="103" y="349" on="0"/>
        <pt x="103" y="228" on="1"/>
        <pt x="103" y="110" on="0"/>
        <pt x="201" y="-63" on="0"/>
        <pt x="375" y="-155" on="0"/>
        <pt x="487" y="-155" on="1"/>
        <pt x="559" y="-155" on="0"/>
        <pt x="672" y="-116" on="0"/>
        <pt x="712" y="-83" on="1"/>
        <pt x="735" y="-114" on="1"/>
        <pt x="631" y="-193" on="0"/>
        <pt x="487" y="-193" on="1"/>
        <pt x="360" y="-193" on="0"/>
        <pt x="166" y="-90" on="0"/>
        <pt x="60" y="100" on="0"/>
        <pt x="60" y="228" on="1"/>
        <pt x="60" y="358" on="0"/>
        <pt x="167" y="556" on="0"/>
        <pt x="363" y="665" on="0"/>
        <pt x="492" y="665" on="1"/>
      </contour>
      <contour>
        <pt x="405" y="432" on="0"/>
        <pt x="304" y="318" on="0"/>
        <pt x="304" y="220" on="1"/>
        <pt x="304" y="134" on="0"/>
        <pt x="391" y="34" on="0"/>
        <pt x="466" y="34" on="1"/>
        <pt x="539" y="34" on="0"/>
        <pt x="636" y="132" on="0"/>
        <pt x="641" y="213" on="1"/>
        <pt x="644" y="253" on="1"/>
        <pt x="648" y="332" on="0"/>
        <pt x="569" y="432" on="0"/>
        <pt x="490" y="432" on="1"/>
      </contour>
    </TTGlyph>
    <TTGlyph name="at.case" xMin="60" yMin="-99" xMax="901" yMax="759">
      <component glyphName="at" x="0" y="94" flags="0x4"/>
    </TTGlyph>
    <TTGlyph name="atilde" xMin="52" yMin="-10" xMax="530" yMax="701">
      <component glyphName="a" x="0" y="0" flags="0x0"/>
      <component glyphName="tilde" x="9" y="0" flags="0x0"/>
    </TTGlyph>
    <TTGlyph name="atilde.sc" xMin="19" yMin="0" xMax="543" yMax="761">
      <component glyphName="a.sc" x="0" y="0" flags="0x0"/>
      <component glyphName="tilde" x="30" y="60" flags="0x4"/>
    </TTGlyph>
    <TTGlyph name="b" xMin="89" yMin="-10" xMax="551" yMax="730">
      <contour>
        <pt x="429" y="510" on="0"/>
        <pt x="551" y="372" on="0"/>
        <pt x="551" y="250" on="1"/>
        <pt x="551" y="128" on="0"/>
        <pt x="429" y="-10" on="0"/>
        <pt x="323" y="-10" on="1"/>
        <pt x="256" y="-10" on="0"/>
        <pt x="158" y="55" on="0"/>
        <pt x="137" y="112" on="1"/>
        <pt x="134" y="0" on="1"/>
        <pt x="89" y="0" on="1"/>
        <pt x="89" y="730" on="1"/>
        <pt x="139" y="730" on="1"/>
        <pt x="139" y="394" on="1"/>
        <pt x="162" y="448" on="0"/>
        <pt x="259" y="510" on="0"/>
        <pt x="323" y="510" on="1"/>
      </contour>
      <contour>
        <pt x="404" y="34" on="0"/>
        <pt x="501" y="149" on="0"/>
        <pt x="501" y="250" on="1"/>
        <pt x="501" y="351" on="0"/>
        <pt x="404" y="466" on="0"/>
        <pt x="317" y="466" on="1"/>
        <pt x="236" y="466" on="0"/>
        <pt x="139" y="352" on="0"/>
        <pt x="139" y="255" on="1"/>
        <pt x="139" y="245" on="1"/>
        <pt x="139" y="147" on="0"/>
        <pt x="236" y="34" on="0"/>
        <pt x="317" y="34" on="1"/>
      </contour>
    </TTGlyph>
    <TTGlyph name="b.sc" xMin="92" yMin="0" xMax="514" yMax="560">
      <contour>
        <pt x="92" y="560" on="1"/>
        <pt x="308" y="560" on="1"/>
        <pt x="403" y="560" on="0"/>
        <pt x="497" y="484" on="0"/>
        <pt x="497" y="412" on="1"/>
        <pt x="497" y="362" on="0"/>
        <pt x="441" y="294" on="0"/>
        <pt x="390" y="284" on="1"/>
        <pt x="390" y="283" on="1"/>
        <pt x="450" y="276" on="0"/>
        <pt x="514" y="203" on="0"/>
        <pt x="514" y="149" on="1"/>
        <pt x="514" y="77" on="0"/>
        <pt x="408" y="0" on="0"/>
        <pt x="308" y="0" on="1"/>
        <pt x="92" y="0" on="1"/>
      </contour>
      <contour>
        <pt x="311" y="303" on="1"/>
        <pt x="447" y="303" on="0"/>
        <pt x="447" y="410" on="1"/>
        <pt x="447" y="463" on="0"/>
        <pt x="378" y="517" on="0"/>
        <pt x="311" y="517" on="1"/>
        <pt x="142" y="517" on="1"/>
        <pt x="142" y="303" on="1"/>
      </contour>
      <contour>
        <pt x="315" y="43" on="1"/>
        <pt x="389" y="43" on="0"/>
        <pt x="464" y="98" on="0"/>
        <pt x="464" y="152" on="1"/>
        <pt x="464" y="206" on="0"/>
        <pt x="389" y="261" on="0"/>
        <pt x="315" y="261" on="1"/>
        <pt x="142" y="261" on="1"/>
        <pt x="142" y="43" on="1"/>
      </contour>
    </TTGlyph>
    <TTGlyph name="backslash" xMin="32" yMin="-70" xMax="365" yMax="730">
      <contour>
        <pt x="80" y="730" on="1"/>
        <pt x="365" y="-70" on="1"/>
        <pt x="317" y="-70" on="1"/>
        <pt x="32" y="730" on="1"/>
      </contour>
    </TTGlyph>
    <TTGlyph name="bar" xMin="82" yMin="-168" xMax="126" yMax="730">
      <contour>
        <pt x="126" y="-168" on="1"/>
        <pt x="82" y="-168" on="1"/>
        <pt x="82" y="730" on="1"/>
        <pt x="126" y="730" on="1"/>
      </contour>
    </TTGlyph>
    <TTGlyph name="bar.case" xMin="82" yMin="-97" xMax="126" yMax="752">
      <contour>
        <pt x="126" y="-97" on="1"/>
        <pt x="82" y="-97" on="1"/>
        <pt x="82" y="752" on="1"/>
        <pt x="126" y="752" on="1"/>
      </contour>
    </TTGlyph>
    <TTGlyph name="braceleft" xMin="19" yMin="-180" xMax="277" yMax="746">
      <contour>
        <pt x="179" y="-139" on="0"/>
        <pt x="277" y="-139" on="1"/>
        <pt x="270" y="-180" on="1"/>
        <pt x="132" y="-180" on="0"/>
        <pt x="132" y="-62" on="1"/>
        <pt x="132" y="162" on="1"/>
        <pt x="132" y="213" on="0"/>
        <pt x="76" y="261" on="0"/>
        <pt x="19" y="261" on="1"/>
        <pt x="19" y="305" on="1"/>
        <pt x="76" y="305" on="0"/>
        <pt x="132" y="354" on="0"/>
        <pt x="132" y="404" on="1"/>
        <pt x="132" y="627" on="1"/>
        <pt x="132" y="685" on="0"/>
        <pt x="200" y="746" on="0"/>
        <pt x="270" y="746" on="1"/>
        <pt x="277" y="705" on="1"/>
        <pt x="228" y="705" on="0"/>
        <pt x="179" y="667" on="0"/>
        <pt x="179" y="631" on="1"/>
        <pt x="179" y="400" on="1"/>
        <pt x="179" y="355" on="0"/>
        <pt x="129" y="294" on="0"/>
        <pt x="83" y="283" on="1"/>
        <pt x="129" y="272" on="0"/>
        <pt x="179" y="212" on="0"/>
        <pt x="179" y="166" on="1"/>
        <pt x="179" y="-65" on="1"/>
      </contour>
    </TTGlyph>
    <TTGlyph name="braceleft.case" xMin="19" yMin="-109" xMax="277" yMax="768">
      <contour>
        <pt x="179" y="-68" on="0"/>
        <pt x="277" y="-68" on="1"/>
        <pt x="270" y="-109" on="1"/>
        <pt x="132" y="-109" on="0"/>
        <pt x="132" y="9" on="1"/>
        <pt x="132" y="207" on="1"/>
        <pt x="132" y="257" on="0"/>
        <pt x="76" y="306" on="0"/>
        <pt x="19" y="306" on="1"/>
        <pt x="19" y="349" on="1"/>
        <pt x="76" y="349" on="0"/>
        <pt x="132" y="398" on="0"/>
        <pt x="132" y="449" on="1"/>
        <pt x="132" y="649" on="1"/>
        <pt x="132" y="707" on="0"/>
        <pt x="200" y="768" on="0"/>
        <pt x="270" y="768" on="1"/>
        <pt x="277" y="727" on="1"/>
        <pt x="228" y="727" on="0"/>
        <pt x="179" y="689" on="0"/>
        <pt x="179" y="653" on="1"/>
        <pt x="179" y="445" on="1"/>
        <pt x="179" y="399" on="0"/>
        <pt x="129" y="339" on="0"/>
        <pt x="83" y="328" on="1"/>
        <pt x="129" y="317" on="0"/>
        <pt x="179" y="256" on="0"/>
        <pt x="179" y="211" on="1"/>
        <pt x="179" y="6" on="1"/>
      </contour>
    </TTGlyph>
    <TTGlyph name="braceright" xMin="31" yMin="-180" xMax="289" yMax="746">
      <contour>
        <pt x="176" y="354" on="0"/>
        <pt x="232" y="305" on="0"/>
        <pt x="289" y="305" on="1"/>
        <pt x="289" y="261" on="1"/>
        <pt x="232" y="261" on="0"/>
        <pt x="176" y="213" on="0"/>
        <pt x="176" y="162" on="1"/>
        <pt x="176" y="-62" on="1"/>
        <pt x="176" y="-180" on="0"/>
        <pt x="38" y="-180" on="1"/>
        <pt x="31" y="-139" on="1"/>
        <pt x="129" y="-139" on="0"/>
        <pt x="129" y="-65" on="1"/>
        <pt x="129" y="166" on="1"/>
        <pt x="129" y="212" on="0"/>
        <pt x="179" y="272" on="0"/>
        <pt x="225" y="283" on="1"/>
        <pt x="179" y="294" on="0"/>
        <pt x="129" y="355" on="0"/>
        <pt x="129" y="400" on="1"/>
        <pt x="129" y="631" on="1"/>
        <pt x="129" y="667" on="0"/>
        <pt x="80" y="705" on="0"/>
        <pt x="31" y="705" on="1"/>
        <pt x="38" y="746" on="1"/>
        <pt x="108" y="746" on="0"/>
        <pt x="176" y="685" on="0"/>
        <pt x="176" y="627" on="1"/>
        <pt x="176" y="404" on="1"/>
      </contour>
    </TTGlyph>
    <TTGlyph name="braceright.case" xMin="31" yMin="-109" xMax="289" yMax="768">
      <contour>
        <pt x="176" y="398" on="0"/>
        <pt x="232" y="349" on="0"/>
        <pt x="289" y="349" on="1"/>
        <pt x="289" y="306" on="1"/>
        <pt x="232" y="306" on="0"/>
        <pt x="176" y="257" on="0"/>
        <pt x="176" y="207" on="1"/>
        <pt x="176" y="9" on="1"/>
        <pt x="176" y="-109" on="0"/>
        <pt x="38" y="-109" on="1"/>
        <pt x="31" y="-68" on="1"/>
        <pt x="129" y="-68" on="0"/>
        <pt x="129" y="6" on="1"/>
        <pt x="129" y="211" on="1"/>
        <pt x="129" y="256" on="0"/>
        <pt x="179" y="317" on="0"/>
        <pt x="225" y="328" on="1"/>
        <pt x="179" y="339" on="0"/>
        <pt x="129" y="399" on="0"/>
        <pt x="129" y="445" on="1"/>
        <pt x="129" y="653" on="1"/>
        <pt x="129" y="689" on="0"/>
        <pt x="80" y="727" on="0"/>
        <pt x="31" y="727" on="1"/>
        <pt x="38" y="768" on="1"/>
        <pt x="108" y="768" on="0"/>
        <pt x="176" y="707" on="0"/>
        <pt x="176" y="649" on="1"/>
        <pt x="176" y="449" on="1"/>
      </contour>
    </TTGlyph>
    <TTGlyph name="bracketleft" xMin="82" yMin="-168" xMax="288" yMax="730">
      <contour>
        <pt x="129" y="686" on="1"/>
        <pt x="129" y="-124" on="1"/>
        <pt x="288" y="-124" on="1"/>
        <pt x="288" y="-168" on="1"/>
        <pt x="82" y="-168" on="1"/>
        <pt x="82" y="730" on="1"/>
        <pt x="288" y="730" on="1"/>
        <pt x="288" y="686" on="1"/>
      </contour>
    </TTGlyph>
    <TTGlyph name="bracketleft.case" xMin="82" yMin="-97" xMax="288" yMax="752">
      <contour>
        <pt x="129" y="708" on="1"/>
        <pt x="129" y="-53" on="1"/>
        <pt x="288" y="-53" on="1"/>
        <pt x="288" y="-97" on="1"/>
        <pt x="82" y="-97" on="1"/>
        <pt x="82" y="752" on="1"/>
        <pt x="288" y="752" on="1"/>
        <pt x="288" y="708" on="1"/>
      </contour>
    </TTGlyph>
    <TTGlyph name="bracketleftinferior" xMin="69" yMin="-269" xMax="193" yMax="288">
      <component glyphName="bracketleftsuperior" x="0" y="-522" flags="0x4"/>
    </TTGlyph>
    <TTGlyph name="bracketleftsuperior" xMin="69" yMin="253" xMax="193" yMax="810">
      <contour>
        <pt x="109" y="775" on="1"/>
        <pt x="109" y="288" on="1"/>
        <pt x="193" y="288" on="1"/>
        <pt x="193" y="253" on="1"/>
        <pt x="69" y="253" on="1"/>
        <pt x="69" y="810" on="1"/>
        <pt x="193" y="810" on="1"/>
        <pt x="193" y="775" on="1"/>
      </contour>
    </TTGlyph>
    <TTGlyph name="bracketright" xMin="23" yMin="-168" xMax="229" yMax="730">
      <contour>
        <pt x="229" y="-168" on="1"/>
        <pt x="23" y="-168" on="1"/>
        <pt x="23" y="-124" on="1"/>
        <pt x="182" y="-124" on="1"/>
        <pt x="182" y="686" on="1"/>
        <pt x="23" y="686" on="1"/>
        <pt x="23" y="730" on="1"/>
        <pt x="229" y="730" on="1"/>
      </contour>
    </TTGlyph>
    <TTGlyph name="bracketright.case" xMin="23" yMin="-97" xMax="229" yMax="752">
      <contour>
        <pt x="229" y="-97" on="1"/>
        <pt x="23" y="-97" on="1"/>
        <pt x="23" y="-53" on="1"/>
        <pt x="182" y="-53" on="1"/>
        <pt x="182" y="708" on="1"/>
        <pt x="23" y="708" on="1"/>
        <pt x="23" y="752" on="1"/>
        <pt x="229" y="752" on="1"/>
      </contour>
    </TTGlyph>
    <TTGlyph name="bracketrightinferior" xMin="1" yMin="-269" xMax="125" yMax="288">
      <component glyphName="bracketrightsuperior" x="0" y="-522" flags="0x4"/>
    </TTGlyph>
    <TTGlyph name="bracketrightsuperior" xMin="1" yMin="253" xMax="125" yMax="810">
      <contour>
        <pt x="125" y="253" on="1"/>
        <pt x="1" y="253" on="1"/>
        <pt x="1" y="288" on="1"/>
        <pt x="85" y="288" on="1"/>
        <pt x="85" y="775" on="1"/>
        <pt x="1" y="775" on="1"/>
        <pt x="1" y="810" on="1"/>
        <pt x="125" y="810" on="1"/>
      </contour>
    </TTGlyph>
    <TTGlyph name="breve" xMin="117" yMin="579" xMax="388" yMax="714">
      <contour>
        <pt x="388" y="652" on="0"/>
        <pt x="314" y="579" on="0"/>
        <pt x="252" y="579" on="1"/>
        <pt x="191" y="579" on="0"/>
        <pt x="117" y="653" on="0"/>
        <pt x="117" y="714" on="1"/>
        <pt x="159" y="714" on="1"/>
        <pt x="159" y="672" on="0"/>
        <pt x="211" y="617" on="0"/>
        <pt x="252" y="617" on="1"/>
        <pt x="294" y="617" on="0"/>
        <pt x="346" y="672" on="0"/>
        <pt x="346" y="714" on="1"/>
        <pt x="388" y="714" on="1"/>
      </contour>
    </TTGlyph>
    <TTGlyph name="brokenbar" xMin="88" yMin="-168" xMax="132" yMax="730">
      <contour>
        <pt x="132" y="366" on="1"/>
        <pt x="88" y="366" on="1"/>
        <pt x="88" y="730" on="1"/>
        <pt x="132" y="730" on="1"/>
      </contour>
      <contour>
        <pt x="132" y="-168" on="1"/>
        <pt x="88" y="-168" on="1"/>
        <pt x="88" y="196" on="1"/>
        <pt x="132" y="196" on="1"/>
      </contour>
    </TTGlyph>
    <TTGlyph name="bullet" xMin="120" yMin="246" xMax="310" yMax="430">
      <contour>
        <pt x="256" y="430" on="0"/>
        <pt x="310" y="378" on="0"/>
        <pt x="310" y="338" on="1"/>
        <pt x="310" y="298" on="0"/>
        <pt x="256" y="246" on="0"/>
        <pt x="215" y="246" on="1"/>
        <pt x="174" y="246" on="0"/>
        <pt x="120" y="298" on="0"/>
        <pt x="120" y="338" on="1"/>
        <pt x="120" y="378" on="0"/>
        <pt x="174" y="430" on="0"/>
        <pt x="215" y="430" on="1"/>
      </contour>
    </TTGlyph>
    <TTGlyph name="c" xMin="57" yMin="-10" xMax="500" yMax="510">
      <contour>
        <pt x="368" y="510" on="0"/>
        <pt x="473" y="439" on="0"/>
        <pt x="496" y="375" on="1"/>
        <pt x="449" y="353" on="1"/>
        <pt x="432" y="408" on="0"/>
        <pt x="352" y="466" on="0"/>
        <pt x="292" y="466" on="1"/>
        <pt x="205" y="466" on="0"/>
        <pt x="107" y="351" on="0"/>
        <pt x="107" y="250" on="1"/>
        <pt x="107" y="148" on="0"/>
        <pt x="204" y="34" on="0"/>
        <pt x="291" y="34" on="1"/>
        <pt x="355" y="34" on="0"/>
        <pt x="444" y="97" on="0"/>
        <pt x="454" y="153" on="1"/>
        <pt x="500" y="137" on="1"/>
        <pt x="480" y="69" on="0"/>
        <pt x="369" y="-10" on="0"/>
        <pt x="292" y="-10" on="1"/>
        <pt x="181" y="-10" on="0"/>
        <pt x="57" y="128" on="0"/>
        <pt x="57" y="250" on="1"/>
        <pt x="57" y="372" on="0"/>
        <pt x="182" y="510" on="0"/>
        <pt x="293" y="510" on="1"/>
      </contour>
    </TTGlyph>
    <TTGlyph name="c.sc" xMin="56" yMin="-8" xMax="560" yMax="568">
      <contour>
        <pt x="539" y="72" on="0"/>
        <pt x="413" y="-8" on="0"/>
        <pt x="321" y="-8" on="1"/>
        <pt x="242" y="-8" on="0"/>
        <pt x="122" y="62" on="0"/>
        <pt x="56" y="192" on="0"/>
        <pt x="56" y="280" on="1"/>
        <pt x="56" y="368" on="0"/>
        <pt x="122" y="498" on="0"/>
        <pt x="243" y="568" on="0"/>
        <pt x="323" y="568" on="1"/>
        <pt x="413" y="568" on="0"/>
        <pt x="530" y="493" on="0"/>
        <pt x="553" y="418" on="1"/>
        <pt x="506" y="397" on="1"/>
        <pt x="487" y="463" on="0"/>
        <pt x="398" y="525" on="0"/>
        <pt x="322" y="525" on="1"/>
        <pt x="258" y="525" on="0"/>
        <pt x="160" y="466" on="0"/>
        <pt x="106" y="355" on="0"/>
        <pt x="106" y="280" on="1"/>
        <pt x="106" y="205" on="0"/>
        <pt x="160" y="94" on="0"/>
        <pt x="257" y="35" on="0"/>
        <pt x="320" y="35" on="1"/>
        <pt x="399" y="35" on="0"/>
        <pt x="497" y="100" on="0"/>
        <pt x="512" y="162" on="1"/>
        <pt x="560" y="146" on="1"/>
      </contour>
    </TTGlyph>
    <TTGlyph name="c_t" xMin="57" yMin="-10" xMax="856" yMax="733">
      <contour>
        <pt x="856" y="32" on="1"/>
        <pt x="836" y="12" on="0"/>
        <pt x="778" y="-10" on="0"/>
        <pt x="743" y="-10" on="1"/>
        <pt x="682" y="-10" on="0"/>
        <pt x="612" y="57" on="0"/>
        <pt x="612" y="125" on="1"/>
        <pt x="612" y="561" on="1"/>
        <pt x="612" y="690" on="0"/>
        <pt x="522" y="690" on="1"/>
        <pt x="433" y="690" on="0"/>
        <pt x="433" y="573" on="1"/>
        <pt x="433" y="533" on="0"/>
        <pt x="464" y="440" on="0"/>
        <pt x="495" y="375" on="1"/>
        <pt x="448" y="353" on="1"/>
        <pt x="431" y="407" on="0"/>
        <pt x="351" y="466" on="0"/>
        <pt x="292" y="466" on="1"/>
        <pt x="205" y="466" on="0"/>
        <pt x="107" y="351" on="0"/>
        <pt x="107" y="250" on="1"/>
        <pt x="107" y="148" on="0"/>
        <pt x="204" y="34" on="0"/>
        <pt x="291" y="34" on="1"/>
        <pt x="353" y="34" on="0"/>
        <pt x="441" y="97" on="0"/>
        <pt x="454" y="153" on="1"/>
        <pt x="499" y="138" on="1"/>
        <pt x="480" y="69" on="0"/>
        <pt x="369" y="-10" on="0"/>
        <pt x="292" y="-10" on="1"/>
        <pt x="181" y="-10" on="0"/>
        <pt x="57" y="128" on="0"/>
        <pt x="57" y="250" on="1"/>
        <pt x="57" y="372" on="0"/>
        <pt x="182" y="510" on="0"/>
        <pt x="293" y="510" on="1"/>
        <pt x="363" y="510" on="0"/>
        <pt x="409" y="479" on="1"/>
        <pt x="388" y="526" on="0"/>
        <pt x="388" y="580" on="1"/>
        <pt x="388" y="658" on="0"/>
        <pt x="464" y="733" on="0"/>
        <pt x="525" y="733" on="1"/>
        <pt x="588" y="733" on="0"/>
        <pt x="662" y="657" on="0"/>
        <pt x="662" y="582" on="1"/>
        <pt x="662" y="500" on="1"/>
        <pt x="851" y="500" on="1"/>
        <pt x="851" y="457" on="1"/>
        <pt x="662" y="457" on="1"/>
        <pt x="662" y="132" on="1"/>
        <pt x="662" y="85" on="0"/>
        <pt x="708" y="36" on="0"/>
        <pt x="751" y="36" on="1"/>
        <pt x="802" y="36" on="0"/>
        <pt x="837" y="73" on="1"/>
      </contour>
    </TTGlyph>
    <TTGlyph name="cacute" xMin="57" yMin="-10" xMax="500" yMax="741">
      <component glyphName="c" x="0" y="0" flags="0x0"/>
      <component glyphName="acute" x="8" y="0" flags="0x0"/>
    </TTGlyph>
    <TTGlyph name="cacute.sc" xMin="56" yMin="-8" xMax="560" yMax="797">
      <component glyphName="c.sc" x="0" y="0" flags="0x0"/>
      <component glyphName="acutecomb.cap" x="319" y="-100" flags="0x4"/>
    </TTGlyph>
    <TTGlyph name="caron" xMin="111" yMin="583" xMax="389" yMax="738">
      <contour>
        <pt x="278" y="583" on="1"/>
        <pt x="222" y="583" on="1"/>
        <pt x="111" y="738" on="1"/>
        <pt x="157" y="738" on="1"/>
        <pt x="250" y="617" on="1"/>
        <pt x="343" y="738" on="1"/>
        <pt x="389" y="738" on="1"/>
      </contour>
    </TTGlyph>
    <TTGlyph name="ccaron" xMin="57" yMin="-10" xMax="500" yMax="738">
      <component glyphName="c" x="0" y="0" flags="0x0"/>
      <component glyphName="caron" x="36" y="0" flags="0x0"/>
    </TTGlyph>
    <TTGlyph name="ccaron.sc" xMin="56" yMin="-8" xMax="560" yMax="794">
      <component glyphName="c.sc" x="0" y="0" flags="0x0"/>
      <component glyphName="uni030C.cap" x="319" y="-100" flags="0x4"/>
    </TTGlyph>
    <TTGlyph name="ccedilla" xMin="57" yMin="-209" xMax="500" yMax="510">
      <contour>
        <pt x="483" y="76" on="0"/>
        <pt x="388" y="-1" on="0"/>
        <pt x="322" y="-8" on="1"/>
        <pt x="387" y="-51" on="0"/>
        <pt x="387" y="-113" on="1"/>
        <pt x="387" y="-154" on="0"/>
        <pt x="331" y="-209" on="0"/>
        <pt x="284" y="-209" on="1"/>
        <pt x="250" y="-209" on="0"/>
        <pt x="201" y="-191" on="0"/>
        <pt x="181" y="-171" on="1"/>
        <pt x="201" y="-136" on="1"/>
        <pt x="230" y="-171" on="0"/>
        <pt x="278" y="-171" on="1"/>
        <pt x="306" y="-171" on="0"/>
        <pt x="343" y="-136" on="0"/>
        <pt x="343" y="-107" on="1"/>
        <pt x="343" y="-78" on="0"/>
        <pt x="307" y="-33" on="0"/>
        <pt x="259" y="-8" on="1"/>
        <pt x="163" y="2" on="0"/>
        <pt x="57" y="137" on="0"/>
        <pt x="57" y="250" on="1"/>
        <pt x="57" y="372" on="0"/>
        <pt x="182" y="510" on="0"/>
        <pt x="293" y="510" on="1"/>
        <pt x="368" y="510" on="0"/>
        <pt x="473" y="439" on="0"/>
        <pt x="496" y="375" on="1"/>
        <pt x="449" y="353" on="1"/>
        <pt x="432" y="408" on="0"/>
        <pt x="352" y="466" on="0"/>
        <pt x="292" y="466" on="1"/>
        <pt x="205" y="466" on="0"/>
        <pt x="107" y="351" on="0"/>
        <pt x="107" y="250" on="1"/>
        <pt x="107" y="148" on="0"/>
        <pt x="204" y="34" on="0"/>
        <pt x="291" y="34" on="1"/>
        <pt x="355" y="34" on="0"/>
        <pt x="444" y="97" on="0"/>
        <pt x="454" y="153" on="1"/>
        <pt x="500" y="137" on="1"/>
      </contour>
    </TTGlyph>
    <TTGlyph name="ccedilla.sc" xMin="56" yMin="-209" xMax="560" yMax="568">
      <contour>
        <pt x="541" y="80" on="0"/>
        <pt x="438" y="2" on="0"/>
        <pt x="361" y="-6" on="1"/>
        <pt x="430" y="-49" on="0"/>
        <pt x="430" y="-113" on="1"/>
        <pt x="430" y="-154" on="0"/>
        <pt x="374" y="-209" on="0"/>
        <pt x="327" y="-209" on="1"/>
        <pt x="293" y="-209" on="0"/>
        <pt x="244" y="-191" on="0"/>
        <pt x="224" y="-171" on="1"/>
        <pt x="244" y="-136" on="1"/>
        <pt x="273" y="-171" on="0"/>
        <pt x="321" y="-171" on="1"/>
        <pt x="349" y="-171" on="0"/>
        <pt x="386" y="-136" on="0"/>
        <pt x="386" y="-107" on="1"/>
        <pt x="386" y="-77" on="0"/>
        <pt x="349" y="-33" on="0"/>
        <pt x="300" y="-7" on="1"/>
        <pt x="227" y="-3" on="0"/>
        <pt x="117" y="70" on="0"/>
        <pt x="56" y="196" on="0"/>
        <pt x="56" y="280" on="1"/>
        <pt x="56" y="368" on="0"/>
        <pt x="122" y="498" on="0"/>
        <pt x="243" y="568" on="0"/>
        <pt x="323" y="568" on="1"/>
        <pt x="413" y="568" on="0"/>
        <pt x="530" y="493" on="0"/>
        <pt x="553" y="418" on="1"/>
        <pt x="506" y="397" on="1"/>
        <pt x="487" y="463" on="0"/>
        <pt x="398" y="525" on="0"/>
        <pt x="322" y="525" on="1"/>
        <pt x="258" y="525" on="0"/>
        <pt x="160" y="466" on="0"/>
        <pt x="106" y="355" on="0"/>
        <pt x="106" y="280" on="1"/>
        <pt x="106" y="205" on="0"/>
        <pt x="160" y="94" on="0"/>
        <pt x="257" y="35" on="0"/>
        <pt x="320" y="35" on="1"/>
        <pt x="399" y="35" on="0"/>
        <pt x="497" y="100" on="0"/>
        <pt x="512" y="162" on="1"/>
        <pt x="560" y="146" on="1"/>
      </contour>
    </TTGlyph>
    <TTGlyph name="cedilla" xMin="170" yMin="-209" xMax="376" yMax="17">
      <contour>
        <pt x="260" y="17" on="1"/>
        <pt x="319" y="-6" on="0"/>
        <pt x="376" y="-73" on="0"/>
        <pt x="376" y="-113" on="1"/>
        <pt x="376" y="-154" on="0"/>
        <pt x="320" y="-209" on="0"/>
        <pt x="273" y="-209" on="1"/>
        <pt x="239" y="-209" on="0"/>
        <pt x="190" y="-191" on="0"/>
        <pt x="170" y="-171" on="1"/>
        <pt x="190" y="-136" on="1"/>
        <pt x="219" y="-171" on="0"/>
        <pt x="267" y="-171" on="1"/>
        <pt x="295" y="-171" on="0"/>
        <pt x="332" y="-136" on="0"/>
        <pt x="332" y="-107" on="1"/>
        <pt x="332" y="-75" on="0"/>
        <pt x="288" y="-27" on="0"/>
        <pt x="226" y="3" on="1"/>
      </contour>
    </TTGlyph>
    <TTGlyph name="cent" xMin="62" yMin="-100" xMax="505" yMax="600">
      <contour>
        <pt x="487" y="72" on="0"/>
        <pt x="385" y="-5" on="0"/>
        <pt x="312" y="-10" on="1"/>
        <pt x="312" y="-100" on="1"/>
        <pt x="270" y="-100" on="1"/>
        <pt x="270" y="-9" on="1"/>
        <pt x="171" y="-1" on="0"/>
        <pt x="62" y="136" on="0"/>
        <pt x="62" y="250" on="1"/>
        <pt x="62" y="363" on="0"/>
        <pt x="172" y="500" on="0"/>
        <pt x="270" y="509" on="1"/>
        <pt x="270" y="600" on="1"/>
        <pt x="312" y="600" on="1"/>
        <pt x="312" y="510" on="1"/>
        <pt x="382" y="507" on="0"/>
        <pt x="478" y="437" on="0"/>
        <pt x="500" y="375" on="1"/>
        <pt x="453" y="353" on="1"/>
        <pt x="438" y="405" on="0"/>
        <pt x="365" y="465" on="0"/>
        <pt x="312" y="469" on="1"/>
        <pt x="312" y="32" on="1"/>
        <pt x="369" y="36" on="0"/>
        <pt x="448" y="100" on="0"/>
        <pt x="460" y="153" on="1"/>
        <pt x="505" y="138" on="1"/>
      </contour>
      <contour>
        <pt x="110" y="154" on="0"/>
        <pt x="193" y="41" on="0"/>
        <pt x="270" y="32" on="1"/>
        <pt x="270" y="467" on="1"/>
        <pt x="193" y="458" on="0"/>
        <pt x="110" y="345" on="0"/>
        <pt x="110" y="250" on="1"/>
      </contour>
    </TTGlyph>
    <TTGlyph name="cent.tf" xMin="80" yMin="-100" xMax="523" yMax="600">
      <component glyphName="cent" x="18" y="0" flags="0x0"/>
    </TTGlyph>
    <TTGlyph name="circle" xMin="62" yMin="11" xMax="538" yMax="489">
      <contour>
        <pt x="233" y="11" on="0"/>
        <pt x="125" y="74" on="0"/>
        <pt x="62" y="183" on="0"/>
        <pt x="62" y="250" on="1"/>
        <pt x="62" y="317" on="0"/>
        <pt x="125" y="426" on="0"/>
        <pt x="233" y="489" on="0"/>
        <pt x="300" y="489" on="1"/>
        <pt x="367" y="489" on="0"/>
        <pt x="475" y="426" on="0"/>
        <pt x="538" y="317" on="0"/>
        <pt x="538" y="250" on="1"/>
        <pt x="538" y="183" on="0"/>
        <pt x="475" y="74" on="0"/>
        <pt x="367" y="11" on="0"/>
        <pt x="300" y="11" on="1"/>
      </contour>
      <contour>
        <pt x="353" y="58" on="0"/>
        <pt x="439" y="108" on="0"/>
        <pt x="488" y="196" on="0"/>
        <pt x="488" y="250" on="1"/>
        <pt x="488" y="304" on="0"/>
        <pt x="439" y="392" on="0"/>
        <pt x="353" y="443" on="0"/>
        <pt x="300" y="443" on="1"/>
        <pt x="247" y="443" on="0"/>
        <pt x="161" y="392" on="0"/>
        <pt x="112" y="304" on="0"/>
        <pt x="112" y="250" on="1"/>
        <pt x="112" y="196" on="0"/>
        <pt x="161" y="108" on="0"/>
        <pt x="247" y="58" on="0"/>
        <pt x="300" y="58" on="1"/>
      </contour>
    </TTGlyph>
    <TTGlyph name="circle.case" xMin="62" yMin="30" xMax="662" yMax="630">
      <contour>
        <pt x="277" y="30" on="0"/>
        <pt x="140" y="108" on="0"/>
        <pt x="62" y="246" on="0"/>
        <pt x="62" y="330" on="1"/>
        <pt x="62" y="415" on="0"/>
        <pt x="140" y="552" on="0"/>
        <pt x="277" y="630" on="0"/>
        <pt x="362" y="630" on="1"/>
        <pt x="446" y="630" on="0"/>
        <pt x="584" y="552" on="0"/>
        <pt x="662" y="415" on="0"/>
        <pt x="662" y="330" on="1"/>
        <pt x="662" y="246" on="0"/>
        <pt x="583" y="109" on="0"/>
        <pt x="446" y="30" on="0"/>
        <pt x="362" y="30" on="1"/>
      </contour>
      <contour>
        <pt x="433" y="76" on="0"/>
        <pt x="547" y="142" on="0"/>
        <pt x="612" y="258" on="0"/>
        <pt x="612" y="330" on="1"/>
        <pt x="612" y="402" on="0"/>
        <pt x="547" y="518" on="0"/>
        <pt x="433" y="584" on="0"/>
        <pt x="362" y="584" on="1"/>
        <pt x="291" y="584" on="0"/>
        <pt x="177" y="518" on="0"/>
        <pt x="112" y="402" on="0"/>
        <pt x="112" y="330" on="1"/>
        <pt x="112" y="258" on="0"/>
        <pt x="177" y="142" on="0"/>
        <pt x="291" y="76" on="0"/>
        <pt x="362" y="76" on="1"/>
      </contour>
    </TTGlyph>
    <TTGlyph name="circumflex" xMin="123" yMin="580" xMax="401" yMax="735">
      <contour>
        <pt x="355" y="580" on="1"/>
        <pt x="262" y="701" on="1"/>
        <pt x="169" y="580" on="1"/>
        <pt x="123" y="580" on="1"/>
        <pt x="234" y="735" on="1"/>
        <pt x="290" y="735" on="1"/>
        <pt x="401" y="580" on="1"/>
      </contour>
    </TTGlyph>
    <TTGlyph name="colon" xMin="79" yMin="-8" xMax="169" yMax="505">
      <component glyphName="period" x="14" y="423" flags="0x4"/>
      <component glyphName="period" x="14" y="0" flags="0x0"/>
    </TTGlyph>
    <TTGlyph name="colon.tf" xMin="106" yMin="-8" xMax="196" yMax="505">
      <component glyphName="period" x="41" y="423" flags="0x4"/>
      <component glyphName="period" x="41" y="0" flags="0x0"/>
    </TTGlyph>
    <TTGlyph name="coloninferior" xMin="47" yMin="-194" xMax="112" yMax="147">
      <component glyphName="periodsuperior" x="0" y="-522" flags="0x4"/>
      <component glyphName="periodsuperior" x="0" y="-247" flags="0x4"/>
    </TTGlyph>
    <TTGlyph name="colonsuperior" xMin="47" yMin="328" xMax="112" yMax="669">
      <component glyphName="periodsuperior" x="0" y="0" flags="0x0"/>
      <component glyphName="periodsuperior" x="0" y="275" flags="0x4"/>
    </TTGlyph>
    <TTGlyph name="comma" xMin="52" yMin="-128" xMax="166" yMax="82">
      <contour>
        <pt x="137" y="82" on="0"/>
        <pt x="166" y="42" on="0"/>
        <pt x="166" y="9" on="1"/>
        <pt x="166" y="-33" on="0"/>
        <pt x="122" y="-107" on="0"/>
        <pt x="80" y="-128" on="1"/>
        <pt x="52" y="-103" on="1"/>
        <pt x="87" y="-90" on="0"/>
        <pt x="132" y="-28" on="0"/>
        <pt x="130" y="1" on="1"/>
        <pt x="127" y="2" on="1"/>
        <pt x="120" y="-8" on="0"/>
        <pt x="104" y="-8" on="1"/>
        <pt x="89" y="-8" on="0"/>
        <pt x="65" y="16" on="0"/>
        <pt x="65" y="36" on="1"/>
        <pt x="65" y="55" on="0"/>
        <pt x="92" y="82" on="0"/>
        <pt x="111" y="82" on="1"/>
      </contour>
    </TTGlyph>
    <TTGlyph name="comma.tf" xMin="94" yMin="-128" xMax="208" yMax="82">
      <component glyphName="comma" x="42" y="0" flags="0x0"/>
    </TTGlyph>
    <TTGlyph name="commainferior" xMin="44" yMin="-277" xMax="123" yMax="-128">
      <component glyphName="commasuperior" x="0" y="-522" flags="0x4"/>
    </TTGlyph>
    <TTGlyph name="commasuperior" xMin="44" yMin="245" xMax="123" yMax="394">
      <contour>
        <pt x="100" y="394" on="0"/>
        <pt x="123" y="364" on="0"/>
        <pt x="123" y="340" on="1"/>
        <pt x="123" y="311" on="0"/>
        <pt x="93" y="259" on="0"/>
        <pt x="65" y="245" on="1"/>
        <pt x="44" y="264" on="1"/>
        <pt x="66" y="273" on="0"/>
        <pt x="95" y="315" on="0"/>
        <pt x="93" y="333" on="1"/>
        <pt x="91" y="333" on="1"/>
        <pt x="90" y="331" on="0"/>
        <pt x="83" y="328" on="0"/>
        <pt x="78" y="328" on="1"/>
        <pt x="65" y="328" on="0"/>
        <pt x="47" y="347" on="0"/>
        <pt x="47" y="362" on="1"/>
        <pt x="47" y="376" on="0"/>
        <pt x="65" y="394" on="0"/>
        <pt x="80" y="394" on="1"/>
      </contour>
    </TTGlyph>
    <TTGlyph name="copyright" xMin="62" yMin="-10" xMax="746" yMax="670">
      <contour>
        <pt x="506" y="670" on="0"/>
        <pt x="661" y="586" on="0"/>
        <pt x="746" y="432" on="0"/>
        <pt x="746" y="330" on="1"/>
        <pt x="746" y="228" on="0"/>
        <pt x="661" y="74" on="0"/>
        <pt x="506" y="-10" on="0"/>
        <pt x="404" y="-10" on="1"/>
        <pt x="302" y="-10" on="0"/>
        <pt x="147" y="74" on="0"/>
        <pt x="62" y="229" on="0"/>
        <pt x="62" y="330" on="1"/>
        <pt x="62" y="431" on="0"/>
        <pt x="147" y="586" on="0"/>
        <pt x="302" y="670" on="0"/>
        <pt x="404" y="670" on="1"/>
      </contour>
      <contour>
        <pt x="315" y="629" on="0"/>
        <pt x="181" y="555" on="0"/>
        <pt x="108" y="419" on="0"/>
        <pt x="108" y="330" on="1"/>
        <pt x="108" y="241" on="0"/>
        <pt x="181" y="105" on="0"/>
        <pt x="315" y="31" on="0"/>
        <pt x="404" y="31" on="1"/>
        <pt x="493" y="31" on="0"/>
        <pt x="627" y="105" on="0"/>
        <pt x="701" y="241" on="0"/>
        <pt x="701" y="330" on="1"/>
        <pt x="701" y="419" on="0"/>
        <pt x="627" y="555" on="0"/>
        <pt x="493" y="629" on="0"/>
        <pt x="404" y="629" on="1"/>
      </contour>
      <contour>
        <pt x="471" y="513" on="0"/>
        <pt x="548" y="463" on="0"/>
        <pt x="566" y="416" on="1"/>
        <pt x="529" y="397" on="1"/>
        <pt x="502" y="475" on="0"/>
        <pt x="413" y="475" on="1"/>
        <pt x="348" y="475" on="0"/>
        <pt x="275" y="397" on="0"/>
        <pt x="275" y="328" on="1"/>
        <pt x="275" y="259" on="0"/>
        <pt x="348" y="181" on="0"/>
        <pt x="413" y="181" on="1"/>
        <pt x="459" y="181" on="0"/>
        <pt x="523" y="225" on="0"/>
        <pt x="535" y="265" on="1"/>
        <pt x="571" y="250" on="1"/>
        <pt x="554" y="200" on="0"/>
        <pt x="472" y="143" on="0"/>
        <pt x="414" y="143" on="1"/>
        <pt x="329" y="143" on="0"/>
        <pt x="232" y="242" on="0"/>
        <pt x="232" y="328" on="1"/>
        <pt x="232" y="414" on="0"/>
        <pt x="329" y="513" on="0"/>
        <pt x="414" y="513" on="1"/>
      </contour>
    </TTGlyph>
    <TTGlyph name="currency" xMin="66" yMin="78" xMax="569" yMax="581">
      <contour>
        <pt x="512" y="256" on="0"/>
        <pt x="473" y="205" on="1"/>
        <pt x="569" y="110" on="1"/>
        <pt x="537" y="78" on="1"/>
        <pt x="441" y="172" on="1"/>
        <pt x="390" y="132" on="0"/>
        <pt x="318" y="132" on="1"/>
        <pt x="244" y="132" on="0"/>
        <pt x="193" y="174" on="1"/>
        <pt x="99" y="78" on="1"/>
        <pt x="66" y="110" on="1"/>
        <pt x="161" y="206" on="1"/>
        <pt x="123" y="260" on="0"/>
        <pt x="123" y="331" on="1"/>
        <pt x="123" y="403" on="0"/>
        <pt x="161" y="455" on="1"/>
        <pt x="66" y="548" on="1"/>
        <pt x="99" y="581" on="1"/>
        <pt x="193" y="487" on="1"/>
        <pt x="245" y="528" on="0"/>
        <pt x="318" y="528" on="1"/>
        <pt x="393" y="528" on="0"/>
        <pt x="443" y="487" on="1"/>
        <pt x="537" y="581" on="1"/>
        <pt x="569" y="548" on="1"/>
        <pt x="475" y="453" on="1"/>
        <pt x="512" y="404" on="0"/>
        <pt x="512" y="331" on="1"/>
      </contour>
      <contour>
        <pt x="383" y="177" on="0"/>
        <pt x="462" y="262" on="0"/>
        <pt x="462" y="331" on="1"/>
        <pt x="462" y="399" on="0"/>
        <pt x="383" y="483" on="0"/>
        <pt x="318" y="483" on="1"/>
        <pt x="253" y="483" on="0"/>
        <pt x="173" y="399" on="0"/>
        <pt x="173" y="331" on="1"/>
        <pt x="173" y="262" on="0"/>
        <pt x="253" y="177" on="0"/>
        <pt x="318" y="177" on="1"/>
      </contour>
    </TTGlyph>
    <TTGlyph name="currency.tf" xMin="50" yMin="78" xMax="553" yMax="581">
      <component glyphName="currency" x="-16" y="0" flags="0x0"/>
    </TTGlyph>
    <TTGlyph name="d" xMin="58" yMin="-10" xMax="520" yMax="730">
      <contour>
        <pt x="520" y="730" on="1"/>
        <pt x="520" y="0" on="1"/>
        <pt x="475" y="0" on="1"/>
        <pt x="472" y="112" on="1"/>
        <pt x="451" y="55" on="0"/>
        <pt x="353" y="-10" on="0"/>
        <pt x="286" y="-10" on="1"/>
        <pt x="180" y="-10" on="0"/>
        <pt x="58" y="128" on="0"/>
        <pt x="58" y="250" on="1"/>
        <pt x="58" y="372" on="0"/>
        <pt x="180" y="510" on="0"/>
        <pt x="286" y="510" on="1"/>
        <pt x="350" y="510" on="0"/>
        <pt x="447" y="448" on="0"/>
        <pt x="470" y="394" on="1"/>
        <pt x="470" y="730" on="1"/>
      </contour>
      <contour>
        <pt x="373" y="34" on="0"/>
        <pt x="470" y="147" on="0"/>
        <pt x="470" y="245" on="1"/>
        <pt x="470" y="255" on="1"/>
        <pt x="470" y="352" on="0"/>
        <pt x="373" y="466" on="0"/>
        <pt x="292" y="466" on="1"/>
        <pt x="205" y="466" on="0"/>
        <pt x="108" y="351" on="0"/>
        <pt x="108" y="250" on="1"/>
        <pt x="108" y="149" on="0"/>
        <pt x="205" y="34" on="0"/>
        <pt x="292" y="34" on="1"/>
      </contour>
    </TTGlyph>
    <TTGlyph name="d.sc" xMin="92" yMin="0" xMax="573" yMax="560">
      <contour>
        <pt x="423" y="560" on="0"/>
        <pt x="573" y="418" on="0"/>
        <pt x="573" y="284" on="1"/>
        <pt x="573" y="146" on="0"/>
        <pt x="423" y="0" on="0"/>
        <pt x="282" y="0" on="1"/>
        <pt x="92" y="0" on="1"/>
        <pt x="92" y="560" on="1"/>
        <pt x="282" y="560" on="1"/>
      </contour>
      <contour>
        <pt x="401" y="43" on="0"/>
        <pt x="523" y="167" on="0"/>
        <pt x="523" y="284" on="1"/>
        <pt x="523" y="397" on="0"/>
        <pt x="401" y="517" on="0"/>
        <pt x="285" y="517" on="1"/>
        <pt x="142" y="517" on="1"/>
        <pt x="142" y="43" on="1"/>
        <pt x="285" y="43" on="1"/>
      </contour>
    </TTGlyph>
    <TTGlyph name="dagger" xMin="44" yMin="-100" xMax="467" yMax="660">
      <contour>
        <pt x="467" y="408" on="1"/>
        <pt x="281" y="408" on="1"/>
        <pt x="281" y="-100" on="1"/>
        <pt x="231" y="-100" on="1"/>
        <pt x="231" y="408" on="1"/>
        <pt x="44" y="408" on="1"/>
        <pt x="44" y="450" on="1"/>
        <pt x="231" y="450" on="1"/>
        <pt x="231" y="660" on="1"/>
        <pt x="281" y="660" on="1"/>
        <pt x="281" y="450" on="1"/>
        <pt x="467" y="450" on="1"/>
      </contour>
    </TTGlyph>
    <TTGlyph name="daggerdbl" xMin="44" yMin="-100" xMax="467" yMax="660">
      <contour>
        <pt x="281" y="408" on="1"/>
        <pt x="281" y="152" on="1"/>
        <pt x="467" y="152" on="1"/>
        <pt x="467" y="110" on="1"/>
        <pt x="281" y="110" on="1"/>
        <pt x="281" y="-100" on="1"/>
        <pt x="231" y="-100" on="1"/>
        <pt x="231" y="110" on="1"/>
        <pt x="44" y="110" on="1"/>
        <pt x="44" y="152" on="1"/>
        <pt x="231" y="152" on="1"/>
        <pt x="231" y="408" on="1"/>
        <pt x="44" y="408" on="1"/>
        <pt x="44" y="450" on="1"/>
        <pt x="231" y="450" on="1"/>
        <pt x="231" y="660" on="1"/>
        <pt x="281" y="660" on="1"/>
        <pt x="281" y="450" on="1"/>
        <pt x="467" y="450" on="1"/>
        <pt x="467" y="408" on="1"/>
      </contour>
    </TTGlyph>
    <TTGlyph name="daggerdblsuperior" xMin="34" yMin="262" xMax="373" yMax="730">
      <contour>
        <pt x="223" y="554" on="1"/>
        <pt x="223" y="438" on="1"/>
        <pt x="373" y="438" on="1"/>
        <pt x="373" y="401" on="1"/>
        <pt x="223" y="401" on="1"/>
        <pt x="223" y="262" on="1"/>
        <pt x="180" y="262" on="1"/>
        <pt x="180" y="401" on="1"/>
        <pt x="34" y="401" on="1"/>
        <pt x="34" y="438" on="1"/>
        <pt x="180" y="438" on="1"/>
        <pt x="180" y="554" on="1"/>
        <pt x="34" y="554" on="1"/>
        <pt x="34" y="591" on="1"/>
        <pt x="180" y="591" on="1"/>
        <pt x="180" y="730" on="1"/>
        <pt x="223" y="730" on="1"/>
        <pt x="223" y="591" on="1"/>
        <pt x="373" y="591" on="1"/>
        <pt x="373" y="554" on="1"/>
      </contour>
    </TTGlyph>
    <TTGlyph name="daggersuperior" xMin="34" yMin="262" xMax="373" yMax="730">
      <contour>
        <pt x="373" y="554" on="1"/>
        <pt x="223" y="554" on="1"/>
        <pt x="223" y="262" on="1"/>
        <pt x="180" y="262" on="1"/>
        <pt x="180" y="554" on="1"/>
        <pt x="34" y="554" on="1"/>
        <pt x="34" y="591" on="1"/>
        <pt x="180" y="591" on="1"/>
        <pt x="180" y="730" on="1"/>
        <pt x="223" y="730" on="1"/>
        <pt x="223" y="591" on="1"/>
        <pt x="373" y="591" on="1"/>
      </contour>
    </TTGlyph>
    <TTGlyph name="dcaron" xMin="58" yMin="-10" xMax="662" yMax="730">
      <contour>
        <pt x="470" y="730" on="1"/>
        <pt x="520" y="730" on="1"/>
        <pt x="520" y="0" on="1"/>
        <pt x="475" y="0" on="1"/>
        <pt x="472" y="112" on="1"/>
        <pt x="451" y="55" on="0"/>
        <pt x="353" y="-10" on="0"/>
        <pt x="286" y="-10" on="1"/>
        <pt x="180" y="-10" on="0"/>
        <pt x="58" y="128" on="0"/>
        <pt x="58" y="250" on="1"/>
        <pt x="58" y="372" on="0"/>
        <pt x="180" y="510" on="0"/>
        <pt x="286" y="510" on="1"/>
        <pt x="350" y="510" on="0"/>
        <pt x="447" y="448" on="0"/>
        <pt x="470" y="394" on="1"/>
      </contour>
      <contour>
        <pt x="662" y="730" on="1"/>
        <pt x="626" y="533" on="1"/>
        <pt x="591" y="533" on="1"/>
        <pt x="613" y="730" on="1"/>
      </contour>
      <contour>
        <pt x="373" y="34" on="0"/>
        <pt x="470" y="147" on="0"/>
        <pt x="470" y="245" on="1"/>
        <pt x="470" y="255" on="1"/>
        <pt x="470" y="352" on="0"/>
        <pt x="373" y="466" on="0"/>
        <pt x="292" y="466" on="1"/>
        <pt x="205" y="466" on="0"/>
        <pt x="108" y="351" on="0"/>
        <pt x="108" y="250" on="1"/>
        <pt x="108" y="149" on="0"/>
        <pt x="205" y="34" on="0"/>
        <pt x="292" y="34" on="1"/>
      </contour>
    </TTGlyph>
    <TTGlyph name="dcaron.sc" xMin="92" yMin="0" xMax="573" yMax="794">
      <component glyphName="d.sc" x="0" y="0" flags="0x0"/>
      <component glyphName="uni030C.cap" x="285" y="-100" flags="0x4"/>
    </TTGlyph>
    <TTGlyph name="dcroat" xMin="58" yMin="-10" xMax="606" yMax="730">
      <contour>
        <pt x="606" y="579" on="1"/>
        <pt x="520" y="579" on="1"/>
        <pt x="520" y="0" on="1"/>
        <pt x="475" y="0" on="1"/>
        <pt x="472" y="112" on="1"/>
        <pt x="451" y="55" on="0"/>
        <pt x="353" y="-10" on="0"/>
        <pt x="286" y="-10" on="1"/>
        <pt x="180" y="-10" on="0"/>
        <pt x="58" y="128" on="0"/>
        <pt x="58" y="250" on="1"/>
        <pt x="58" y="372" on="0"/>
        <pt x="180" y="510" on="0"/>
        <pt x="286" y="510" on="1"/>
        <pt x="350" y="510" on="0"/>
        <pt x="447" y="448" on="0"/>
        <pt x="470" y="394" on="1"/>
        <pt x="470" y="579" on="1"/>
        <pt x="301" y="579" on="1"/>
        <pt x="301" y="617" on="1"/>
        <pt x="470" y="617" on="1"/>
        <pt x="470" y="730" on="1"/>
        <pt x="520" y="730" on="1"/>
        <pt x="520" y="617" on="1"/>
        <pt x="606" y="617" on="1"/>
      </contour>
      <contour>
        <pt x="373" y="34" on="0"/>
        <pt x="470" y="147" on="0"/>
        <pt x="470" y="245" on="1"/>
        <pt x="470" y="255" on="1"/>
        <pt x="470" y="352" on="0"/>
        <pt x="373" y="466" on="0"/>
        <pt x="292" y="466" on="1"/>
        <pt x="205" y="466" on="0"/>
        <pt x="108" y="351" on="0"/>
        <pt x="108" y="250" on="1"/>
        <pt x="108" y="149" on="0"/>
        <pt x="205" y="34" on="0"/>
        <pt x="292" y="34" on="1"/>
      </contour>
    </TTGlyph>
    <TTGlyph name="dcroat.sc" xMin="17" yMin="0" xMax="588" yMax="560">
      <contour>
        <pt x="438" y="560" on="0"/>
        <pt x="588" y="418" on="0"/>
        <pt x="588" y="284" on="1"/>
        <pt x="588" y="146" on="0"/>
        <pt x="438" y="0" on="0"/>
        <pt x="297" y="0" on="1"/>
        <pt x="107" y="0" on="1"/>
        <pt x="107" y="264" on="1"/>
        <pt x="17" y="264" on="1"/>
        <pt x="17" y="301" on="1"/>
        <pt x="107" y="301" on="1"/>
        <pt x="107" y="560" on="1"/>
        <pt x="297" y="560" on="1"/>
      </contour>
      <contour>
        <pt x="416" y="43" on="0"/>
        <pt x="538" y="167" on="0"/>
        <pt x="538" y="284" on="1"/>
        <pt x="538" y="397" on="0"/>
        <pt x="416" y="517" on="0"/>
        <pt x="300" y="517" on="1"/>
        <pt x="157" y="517" on="1"/>
        <pt x="157" y="301" on="1"/>
        <pt x="327" y="301" on="1"/>
        <pt x="327" y="264" on="1"/>
        <pt x="157" y="264" on="1"/>
        <pt x="157" y="43" on="1"/>
        <pt x="300" y="43" on="1"/>
      </contour>
    </TTGlyph>
    <TTGlyph name="degree" xMin="56" yMin="368" xMax="362" yMax="670">
      <contour>
        <pt x="141" y="368" on="0"/>
        <pt x="56" y="453" on="0"/>
        <pt x="56" y="519" on="1"/>
        <pt x="56" y="586" on="0"/>
        <pt x="141" y="670" on="0"/>
        <pt x="209" y="670" on="1"/>
        <pt x="277" y="670" on="0"/>
        <pt x="362" y="586" on="0"/>
        <pt x="362" y="519" on="1"/>
        <pt x="362" y="453" on="0"/>
        <pt x="276" y="368" on="0"/>
        <pt x="209" y="368" on="1"/>
      </contour>
      <contour>
        <pt x="257" y="409" on="0"/>
        <pt x="317" y="471" on="0"/>
        <pt x="317" y="519" on="1"/>
        <pt x="317" y="567" on="0"/>
        <pt x="257" y="629" on="0"/>
        <pt x="209" y="629" on="1"/>
        <pt x="161" y="629" on="0"/>
        <pt x="100" y="567" on="0"/>
        <pt x="100" y="519" on="1"/>
        <pt x="100" y="471" on="0"/>
        <pt x="161" y="409" on="0"/>
        <pt x="209" y="409" on="1"/>
      </contour>
    </TTGlyph>
    <TTGlyph name="dieresis" xMin="128" yMin="590" xMax="399" yMax="671">
      <contour>
        <pt x="187" y="671" on="0"/>
        <pt x="209" y="648" on="0"/>
        <pt x="209" y="630" on="1"/>
        <pt x="209" y="612" on="0"/>
        <pt x="187" y="590" on="0"/>
        <pt x="169" y="590" on="1"/>
        <pt x="151" y="590" on="0"/>
        <pt x="128" y="612" on="0"/>
        <pt x="128" y="630" on="1"/>
        <pt x="128" y="648" on="0"/>
        <pt x="151" y="671" on="0"/>
        <pt x="169" y="671" on="1"/>
      </contour>
      <contour>
        <pt x="376" y="671" on="0"/>
        <pt x="399" y="648" on="0"/>
        <pt x="399" y="630" on="1"/>
        <pt x="399" y="612" on="0"/>
        <pt x="376" y="590" on="0"/>
        <pt x="358" y="590" on="1"/>
        <pt x="340" y="590" on="0"/>
        <pt x="317" y="612" on="0"/>
        <pt x="317" y="630" on="1"/>
        <pt x="317" y="648" on="0"/>
        <pt x="340" y="671" on="0"/>
        <pt x="358" y="671" on="1"/>
      </contour>
    </TTGlyph>
    <TTGlyph name="divide" xMin="67" yMin="80" xMax="537" yMax="552">
      <contour>
        <pt x="322" y="552" on="0"/>
        <pt x="347" y="527" on="0"/>
        <pt x="347" y="507" on="1"/>
        <pt x="347" y="487" on="0"/>
        <pt x="322" y="462" on="0"/>
        <pt x="302" y="462" on="1"/>
        <pt x="282" y="462" on="0"/>
        <pt x="257" y="487" on="0"/>
        <pt x="257" y="507" on="1"/>
        <pt x="257" y="527" on="0"/>
        <pt x="282" y="552" on="0"/>
        <pt x="302" y="552" on="1"/>
      </contour>
      <contour>
        <pt x="537" y="293" on="1"/>
        <pt x="67" y="293" on="1"/>
        <pt x="67" y="339" on="1"/>
        <pt x="537" y="339" on="1"/>
      </contour>
      <contour>
        <pt x="322" y="170" on="0"/>
        <pt x="347" y="145" on="0"/>
        <pt x="347" y="125" on="1"/>
        <pt x="347" y="105" on="0"/>
        <pt x="322" y="80" on="0"/>
        <pt x="302" y="80" on="1"/>
        <pt x="282" y="80" on="0"/>
        <pt x="257" y="105" on="0"/>
        <pt x="257" y="125" on="1"/>
        <pt x="257" y="145" on="0"/>
        <pt x="282" y="170" on="0"/>
        <pt x="302" y="170" on="1"/>
      </contour>
    </TTGlyph>
    <TTGlyph name="dollar" xMin="52" yMin="-100" xMax="540" yMax="760">
      <contour>
        <pt x="285" y="1" on="1"/>
        <pt x="196" y="6" on="0"/>
        <pt x="74" y="94" on="0"/>
        <pt x="52" y="171" on="1"/>
        <pt x="98" y="195" on="1"/>
        <pt x="111" y="131" on="0"/>
        <pt x="213" y="51" on="0"/>
        <pt x="285" y="43" on="1"/>
        <pt x="285" y="309" on="1"/>
        <pt x="217" y="323" on="0"/>
        <pt x="130" y="355" on="0"/>
        <pt x="72" y="421" on="0"/>
        <pt x="72" y="477" on="1"/>
        <pt x="72" y="525" on="0"/>
        <pt x="123" y="607" on="0"/>
        <pt x="220" y="657" on="0"/>
        <pt x="285" y="659" on="1"/>
        <pt x="285" y="760" on="1"/>
        <pt x="328" y="760" on="1"/>
        <pt x="328" y="659" on="1"/>
        <pt x="406" y="655" on="0"/>
        <pt x="507" y="584" on="0"/>
        <pt x="535" y="516" on="1"/>
        <pt x="495" y="484" on="1"/>
        <pt x="473" y="548" on="0"/>
        <pt x="392" y="611" on="0"/>
        <pt x="328" y="616" on="1"/>
        <pt x="328" y="344" on="1"/>
        <pt x="396" y="330" on="0"/>
        <pt x="482" y="298" on="0"/>
        <pt x="540" y="232" on="0"/>
        <pt x="540" y="175" on="1"/>
        <pt x="540" y="99" on="0"/>
        <pt x="425" y="5" on="0"/>
        <pt x="328" y="1" on="1"/>
        <pt x="328" y="-100" on="1"/>
        <pt x="285" y="-100" on="1"/>
      </contour>
      <contour>
        <pt x="285" y="617" on="1"/>
        <pt x="208" y="614" on="0"/>
        <pt x="120" y="540" on="0"/>
        <pt x="120" y="481" on="1"/>
        <pt x="120" y="441" on="0"/>
        <pt x="164" y="391" on="0"/>
        <pt x="232" y="365" on="0"/>
        <pt x="285" y="353" on="1"/>
      </contour>
      <contour>
        <pt x="402" y="45" on="0"/>
        <pt x="493" y="112" on="0"/>
        <pt x="493" y="171" on="1"/>
        <pt x="493" y="211" on="0"/>
        <pt x="449" y="262" on="0"/>
        <pt x="381" y="289" on="0"/>
        <pt x="328" y="300" on="1"/>
        <pt x="328" y="42" on="1"/>
      </contour>
    </TTGlyph>
    <TTGlyph name="dollar.tf" xMin="68" yMin="-100" xMax="545" yMax="760">
      <contour>
        <pt x="545" y="99" on="0"/>
        <pt x="431" y="4" on="0"/>
        <pt x="335" y="0" on="1"/>
        <pt x="335" y="-100" on="1"/>
        <pt x="292" y="-100" on="1"/>
        <pt x="292" y="1" on="1"/>
        <pt x="207" y="7" on="0"/>
        <pt x="90" y="94" on="0"/>
        <pt x="68" y="171" on="1"/>
        <pt x="115" y="195" on="1"/>
        <pt x="127" y="131" on="0"/>
        <pt x="224" y="52" on="0"/>
        <pt x="292" y="44" on="1"/>
        <pt x="292" y="310" on="1"/>
        <pt x="227" y="324" on="0"/>
        <pt x="144" y="356" on="0"/>
        <pt x="88" y="422" on="0"/>
        <pt x="88" y="477" on="1"/>
        <pt x="88" y="525" on="0"/>
        <pt x="137" y="606" on="0"/>
        <pt x="230" y="657" on="0"/>
        <pt x="292" y="660" on="1"/>
        <pt x="292" y="760" on="1"/>
        <pt x="335" y="760" on="1"/>
        <pt x="335" y="659" on="1"/>
        <pt x="413" y="655" on="0"/>
        <pt x="512" y="585" on="0"/>
        <pt x="540" y="516" on="1"/>
        <pt x="500" y="484" on="1"/>
        <pt x="478" y="549" on="0"/>
        <pt x="400" y="611" on="0"/>
        <pt x="335" y="616" on="1"/>
        <pt x="335" y="345" on="1"/>
        <pt x="402" y="331" on="0"/>
        <pt x="487" y="299" on="0"/>
        <pt x="545" y="232" on="0"/>
        <pt x="545" y="175" on="1"/>
      </contour>
      <contour>
        <pt x="136" y="425" on="0"/>
        <pt x="216" y="371" on="0"/>
        <pt x="292" y="354" on="1"/>
        <pt x="292" y="616" on="1"/>
        <pt x="218" y="612" on="0"/>
        <pt x="136" y="539" on="0"/>
        <pt x="136" y="481" on="1"/>
      </contour>
      <contour>
        <pt x="409" y="45" on="0"/>
        <pt x="498" y="111" on="0"/>
        <pt x="498" y="171" on="1"/>
        <pt x="498" y="212" on="0"/>
        <pt x="455" y="262" on="0"/>
        <pt x="388" y="289" on="0"/>
        <pt x="335" y="301" on="1"/>
        <pt x="335" y="42" on="1"/>
      </contour>
    </TTGlyph>
    <TTGlyph name="dotaccent" xMin="220" yMin="597" xMax="304" yMax="681">
      <contour>
        <pt x="281" y="681" on="0"/>
        <pt x="304" y="658" on="0"/>
        <pt x="304" y="639" on="1"/>
        <pt x="304" y="620" on="0"/>
        <pt x="281" y="597" on="0"/>
        <pt x="262" y="597" on="1"/>
        <pt x="243" y="597" on="0"/>
        <pt x="220" y="620" on="0"/>
        <pt x="220" y="639" on="1"/>
        <pt x="220" y="658" on="0"/>
        <pt x="243" y="681" on="0"/>
        <pt x="262" y="681" on="1"/>
      </contour>
    </TTGlyph>
    <TTGlyph name="dotlessi" xMin="89" yMin="0" xMax="139" yMax="500">
      <contour>
        <pt x="139" y="0" on="1"/>
        <pt x="89" y="0" on="1"/>
        <pt x="89" y="500" on="1"/>
        <pt x="139" y="500" on="1"/>
      </contour>
    </TTGlyph>
    <TTGlyph name="e" xMin="57" yMin="-10" xMax="505" yMax="510">
      <contour>
        <pt x="505" y="245" on="0"/>
        <pt x="503" y="229" on="1"/>
        <pt x="107" y="229" on="1"/>
        <pt x="112" y="137" on="0"/>
        <pt x="210" y="34" on="0"/>
        <pt x="293" y="34" on="1"/>
        <pt x="352" y="34" on="0"/>
        <pt x="437" y="82" on="0"/>
        <pt x="456" y="126" on="1"/>
        <pt x="498" y="104" on="1"/>
        <pt x="470" y="49" on="0"/>
        <pt x="366" y="-10" on="0"/>
        <pt x="293" y="-10" on="1"/>
        <pt x="182" y="-10" on="0"/>
        <pt x="57" y="128" on="0"/>
        <pt x="57" y="250" on="1"/>
        <pt x="57" y="372" on="0"/>
        <pt x="178" y="510" on="0"/>
        <pt x="287" y="510" on="1"/>
        <pt x="389" y="510" on="0"/>
        <pt x="505" y="374" on="0"/>
        <pt x="505" y="262" on="1"/>
      </contour>
      <contour>
        <pt x="206" y="466" on="0"/>
        <pt x="112" y="365" on="0"/>
        <pt x="107" y="274" on="1"/>
        <pt x="458" y="274" on="1"/>
        <pt x="453" y="364" on="0"/>
        <pt x="364" y="466" on="0"/>
        <pt x="287" y="466" on="1"/>
      </contour>
    </TTGlyph>
    <TTGlyph name="e.sc" xMin="92" yMin="0" xMax="510" yMax="560">
      <contour>
        <pt x="510" y="43" on="1"/>
        <pt x="510" y="0" on="1"/>
        <pt x="92" y="0" on="1"/>
        <pt x="92" y="560" on="1"/>
        <pt x="496" y="560" on="1"/>
        <pt x="496" y="517" on="1"/>
        <pt x="142" y="517" on="1"/>
        <pt x="142" y="306" on="1"/>
        <pt x="422" y="306" on="1"/>
        <pt x="422" y="263" on="1"/>
        <pt x="142" y="263" on="1"/>
        <pt x="142" y="43" on="1"/>
      </contour>
    </TTGlyph>
    <TTGlyph name="eacute" xMin="57" yMin="-10" xMax="505" yMax="741">
      <component glyphName="e" x="0" y="0" flags="0x0"/>
      <component glyphName="acute" x="6" y="0" flags="0x0"/>
    </TTGlyph>
    <TTGlyph name="eacute.sc" xMin="92" yMin="0" xMax="510" yMax="797">
      <component glyphName="e.sc" x="0" y="0" flags="0x0"/>
      <component glyphName="acutecomb.cap" x="289" y="-100" flags="0x4"/>
    </TTGlyph>
    <TTGlyph name="ecaron" xMin="57" yMin="-10" xMax="505" yMax="738">
      <component glyphName="e" x="0" y="0" flags="0x0"/>
      <component glyphName="caron" x="34" y="0" flags="0x0"/>
    </TTGlyph>
    <TTGlyph name="ecaron.sc" xMin="92" yMin="0" xMax="510" yMax="794">
      <component glyphName="e.sc" x="0" y="0" flags="0x0"/>
      <component glyphName="uni030C.cap" x="289" y="-100" flags="0x4"/>
    </TTGlyph>
    <TTGlyph name="ecircumflex" xMin="57" yMin="-10" xMax="505" yMax="735">
      <component glyphName="e" x="0" y="0" flags="0x0"/>
      <component glyphName="circumflex" x="22" y="0" flags="0x0"/>
    </TTGlyph>
    <TTGlyph name="ecircumflex.sc" xMin="92" yMin="0" xMax="510" yMax="792">
      <component glyphName="e.sc" x="0" y="0" flags="0x0"/>
      <component glyphName="uni0302.cap" x="289" y="-100" flags="0x4"/>
    </TTGlyph>
    <TTGlyph name="edieresis" xMin="57" yMin="-10" xMax="505" yMax="671">
      <component glyphName="e" x="0" y="0" flags="0x0"/>
      <component glyphName="dieresis" x="20" y="0" flags="0x0"/>
    </TTGlyph>
    <TTGlyph name="edieresis.sc" xMin="92" yMin="0" xMax="510" yMax="731">
      <component glyphName="e.sc" x="0" y="0" flags="0x0"/>
      <component glyphName="dieresis" x="25" y="60" flags="0x4"/>
    </TTGlyph>
    <TTGlyph name="edotaccent" xMin="57" yMin="-10" xMax="505" yMax="681">
      <component glyphName="e" x="0" y="0" flags="0x0"/>
      <component glyphName="dotaccent" x="22" y="0" flags="0x0"/>
    </TTGlyph>
    <TTGlyph name="edotaccent.sc" xMin="92" yMin="0" xMax="510" yMax="741">
      <component glyphName="e.sc" x="0" y="0" flags="0x0"/>
      <component glyphName="dotaccent" x="27" y="60" flags="0x4"/>
    </TTGlyph>
    <TTGlyph name="egrave" xMin="57" yMin="-10" xMax="505" yMax="741">
      <component glyphName="e" x="0" y="0" flags="0x0"/>
      <component glyphName="grave" x="37" y="0" flags="0x0"/>
    </TTGlyph>
    <TTGlyph name="egrave.sc" xMin="92" yMin="0" xMax="510" yMax="797">
      <component glyphName="e.sc" x="0" y="0" flags="0x0"/>
      <component glyphName="gravecomb.cap" x="289" y="-100" flags="0x4"/>
    </TTGlyph>
    <TTGlyph name="eight" xMin="62" yMin="-10" xMax="529" yMax="669">
      <contour>
        <pt x="388" y="669" on="0"/>
        <pt x="500" y="578" on="0"/>
        <pt x="500" y="502" on="1"/>
        <pt x="500" y="445" on="0"/>
        <pt x="438" y="365" on="0"/>
        <pt x="383" y="348" on="1"/>
        <pt x="383" y="347" on="1"/>
        <pt x="450" y="330" on="0"/>
        <pt x="529" y="238" on="0"/>
        <pt x="529" y="174" on="1"/>
        <pt x="529" y="119" on="0"/>
        <pt x="471" y="36" on="0"/>
        <pt x="364" y="-10" on="0"/>
        <pt x="295" y="-10" on="1"/>
        <pt x="227" y="-10" on="0"/>
        <pt x="121" y="36" on="0"/>
        <pt x="62" y="119" on="0"/>
        <pt x="62" y="174" on="1"/>
        <pt x="62" y="238" on="0"/>
        <pt x="141" y="330" on="0"/>
        <pt x="208" y="347" on="1"/>
        <pt x="208" y="348" on="1"/>
        <pt x="153" y="365" on="0"/>
        <pt x="91" y="445" on="0"/>
        <pt x="91" y="502" on="1"/>
        <pt x="91" y="578" on="0"/>
        <pt x="202" y="669" on="0"/>
        <pt x="295" y="669" on="1"/>
      </contour>
      <contour>
        <pt x="225" y="623" on="0"/>
        <pt x="143" y="555" on="0"/>
        <pt x="143" y="497" on="1"/>
        <pt x="143" y="439" on="0"/>
        <pt x="226" y="370" on="0"/>
        <pt x="295" y="370" on="1"/>
        <pt x="364" y="370" on="0"/>
        <pt x="448" y="439" on="0"/>
        <pt x="448" y="497" on="1"/>
        <pt x="448" y="555" on="0"/>
        <pt x="365" y="623" on="0"/>
        <pt x="295" y="623" on="1"/>
      </contour>
      <contour>
        <pt x="377" y="36" on="0"/>
        <pt x="477" y="114" on="0"/>
        <pt x="477" y="178" on="1"/>
        <pt x="477" y="243" on="0"/>
        <pt x="377" y="323" on="0"/>
        <pt x="295" y="323" on="1"/>
        <pt x="214" y="323" on="0"/>
        <pt x="114" y="243" on="0"/>
        <pt x="114" y="178" on="1"/>
        <pt x="114" y="114" on="0"/>
        <pt x="213" y="36" on="0"/>
        <pt x="295" y="36" on="1"/>
      </contour>
    </TTGlyph>
    <TTGlyph name="eight.dnom" xMin="35" yMin="-10" xMax="331" yMax="397">
      <component glyphName="uni2078" x="0" y="-337" flags="0x4"/>
    </TTGlyph>
    <TTGlyph name="eight.numr" xMin="35" yMin="262" xMax="331" yMax="669">
      <component glyphName="uni2078" x="0" y="-65" flags="0x4"/>
    </TTGlyph>
    <TTGlyph name="eight.osf" xMin="57" yMin="-10" xMax="520" yMax="669">
      <contour>
        <pt x="380" y="669" on="0"/>
        <pt x="491" y="578" on="0"/>
        <pt x="491" y="502" on="1"/>
        <pt x="491" y="445" on="0"/>
        <pt x="430" y="365" on="0"/>
        <pt x="376" y="348" on="1"/>
        <pt x="376" y="347" on="1"/>
        <pt x="443" y="330" on="0"/>
        <pt x="520" y="238" on="0"/>
        <pt x="520" y="174" on="1"/>
        <pt x="520" y="119" on="0"/>
        <pt x="462" y="36" on="0"/>
        <pt x="357" y="-10" on="0"/>
        <pt x="288" y="-10" on="1"/>
        <pt x="220" y="-10" on="0"/>
        <pt x="115" y="36" on="0"/>
        <pt x="57" y="119" on="0"/>
        <pt x="57" y="174" on="1"/>
        <pt x="57" y="238" on="0"/>
        <pt x="134" y="330" on="0"/>
        <pt x="201" y="347" on="1"/>
        <pt x="201" y="348" on="1"/>
        <pt x="147" y="365" on="0"/>
        <pt x="86" y="446" on="0"/>
        <pt x="86" y="502" on="1"/>
        <pt x="86" y="578" on="0"/>
        <pt x="196" y="669" on="0"/>
        <pt x="288" y="669" on="1"/>
      </contour>
      <contour>
        <pt x="219" y="627" on="0"/>
        <pt x="136" y="558" on="0"/>
        <pt x="136" y="499" on="1"/>
        <pt x="136" y="440" on="0"/>
        <pt x="219" y="369" on="0"/>
        <pt x="288" y="369" on="1"/>
        <pt x="358" y="369" on="0"/>
        <pt x="441" y="440" on="0"/>
        <pt x="441" y="499" on="1"/>
        <pt x="441" y="558" on="0"/>
        <pt x="358" y="627" on="0"/>
        <pt x="288" y="627" on="1"/>
      </contour>
      <contour>
        <pt x="371" y="33" on="0"/>
        <pt x="470" y="112" on="0"/>
        <pt x="470" y="178" on="1"/>
        <pt x="470" y="244" on="0"/>
        <pt x="370" y="325" on="0"/>
        <pt x="288" y="325" on="1"/>
        <pt x="206" y="325" on="0"/>
        <pt x="107" y="244" on="0"/>
        <pt x="107" y="178" on="1"/>
        <pt x="107" y="112" on="0"/>
        <pt x="206" y="33" on="0"/>
        <pt x="288" y="33" on="1"/>
      </contour>
    </TTGlyph>
</ttFont>
